 0 
SECTION
 2 
HEADER
 9 
$ACADVER
 1 
AC1004
 9 
$EXTMIN
 10 
0.0
 20 
0.0
 9 
$EXTMAX
 10 
3.8
 20 
2.5
 9 
$LIMMIN
 10 
0.0
 20 
0.0
 9 
$LIMMAX
 10 
3.8
 20 
2.5
 9 
$INSBASE
 10 
0.0
 20 
0.0
 9 
$VIEWCTR
 10 
1.9
 20 
1.25
 9 
$VIEWSIZE
 40 
2.5
 9 
$ORTHOMODE
 70 
 0 
 9 
$REGENMODE
 70 
 1 
 9 
$FILLMODE
 70 
 1 
 9 
$QTEXTMODE
 70 
 0 
 9 
$DRAGMODE
 70 
 2 
 9 
$LTSCALE
 40 
1.0
 9 
$OSMODE
 70 
 0 
 9 
$ATTMODE
 70 
 1 
 9 
$TEXTSIZE
 40 
0.2
 9 
$TRACEWID
 40 
0.05
 9 
$TEXTSTYLE
 7 
STANDARD
 9 
$CLAYER
 8 
0
 9 
$CELTYPE
 6 
BYLAYER
 9 
$CECOLOR
 62 
 256 
 9 
$DIMSCALE
 40 
1.0
 9 
$DIMLFAC
 40 
1.0
 9 
$LUNITS
 70 
 2 
 9 
$LUPREC
 70 
 4 
 9 
$AXISMODE
 70 
 0 
 9 
$AXISUNIT
 10 
0.0
 20 
0.0
 9 
$SKETCHINC
 40 
0.1
 9 
$MENU
 1 
acad
 9 
$ELEVATION
 40 
0.0
 9 
$THICKNESS
 40 
0.0
 9 
$VIEWDIR
 10 
0.0
 20 
0.0
 30 
1.0
 9 
$LIMCHECK
 70 
 0 
 9 
$BLIPMODE
 70 
 1 
 9 
$FASTZOOM
 70 
 1 
 9 
$SKPOLY
 70 
 0 
 9 
$ANGBASE
 50 
0.0
 9 
$ANGDIR
 70 
 0 
 9 
$PDMODE
 70 
 0 
 9 
$PDSIZE
 40 
0.0
 9 
$PLINEWID
 40 
0.0
 9 
$COORDS
 70 
 0 
 9 
$ATTDIA
 70 
 0 
 9 
$ATTREQ
 70 
 1 
 0 
ENDSEC
 0 
SECTION
 2 
TABLES
 0 
TABLE
 2 
LTYPE
 70 
 10 
 0 
LTYPE
 2 
CONTINUOUS
 70 
 64 
 3 
Solid line
 72 
 65 
 73 
 0 
 40 
0.0
 0 
ENDTAB
 0 
TABLE
 2 
LAYER
 70 
 153 
 0 
LAYER
 2 
0
 70 
 64 
 62 
 7 
 6 
CONTINUOUS
 0 
ENDTAB
 0 
ENDSEC
 0 
SECTION
 2 
BLOCKS
 0 
ENDSEC
 0 
SECTION
 2 
ENTITIES
 0 
LINE
 8 
0
 62 
 7 
 10 
0.0
 20 
2.5
 11 
3.8
 21 
2.5
 0 
LINE
 8 
0
 62 
 7 
 10 
3.8
 20 
2.5
 11 
3.8
 21 
0.0
 0 
LINE
 8 
0
 62 
 7 
 10 
3.8
 20 
0.0
 11 
0.0
 21 
0.0
 0 
LINE
 8 
0
 62 
 7 
 10 
0.0
 20 
0.0
 11 
0.0
 21 
2.5
 0 
CIRCLE
 8 
0
 62 
 7 
 10 
1.475
 20 
1.225
 40 
0.038
 0 
CIRCLE
 8 
0
 62 
 7 
 10 
1.475
 20 
1.225
 40 
0.02
 0 
CIRCLE
 8 
0
 62 
 7 
 10 
1.375
 20 
1.225
 40 
0.038
 0 
CIRCLE
 8 
0
 62 
 7 
 10 
1.375
 20 
1.225
 40 
0.02
 0 
CIRCLE
 8 
0
 62 
 7 
 10 
1.275
 20 
1.225
 40 
0.038
 0 
CIRCLE
 8 
0
 62 
 7 
 10 
1.275
 20 
1.225
 40 
0.02
 0 
CIRCLE
 8 
0
 62 
 7 
 10 
1.175
 20 
1.225
 40 
0.038
 0 
CIRCLE
 8 
0
 62 
 7 
 10 
1.175
 20 
1.225
 40 
0.02
 0 
CIRCLE
 8 
0
 62 
 7 
 10 
1.075
 20 
1.225
 40 
0.038
 0 
CIRCLE
 8 
0
 62 
 7 
 10 
1.075
 20 
1.225
 40 
0.02
 0 
LINE
 8 
0
 62 
 7 
 10 
0.938
 20 
1.262
 11 
1.013
 21 
1.262
 0 
LINE
 8 
0
 62 
 7 
 10 
1.013
 20 
1.262
 11 
1.013
 21 
1.187
 0 
LINE
 8 
0
 62 
 7 
 10 
1.013
 20 
1.187
 11 
0.938
 21 
1.187
 0 
LINE
 8 
0
 62 
 7 
 10 
0.938
 20 
1.187
 11 
0.938
 21 
1.262
 0 
CIRCLE
 8 
0
 62 
 7 
 10 
0.975
 20 
1.225
 40 
0.02
 0 
LINE
 8 
0
 62 
 7 
 10 
0.405
 20 
1.363
 11 
0.445
 21 
1.363
 0 
LINE
 8 
0
 62 
 7 
 10 
0.445
 20 
1.363
 11 
0.445
 21 
1.313
 0 
LINE
 8 
0
 62 
 7 
 10 
0.445
 20 
1.313
 11 
0.405
 21 
1.313
 0 
LINE
 8 
0
 62 
 7 
 10 
0.405
 20 
1.313
 11 
0.405
 21 
1.363
 0 
LINE
 8 
0
 62 
 7 
 10 
0.329
 20 
1.363
 11 
0.369
 21 
1.363
 0 
LINE
 8 
0
 62 
 7 
 10 
0.369
 20 
1.363
 11 
0.369
 21 
1.313
 0 
LINE
 8 
0
 62 
 7 
 10 
0.369
 20 
1.313
 11 
0.329
 21 
1.313
 0 
LINE
 8 
0
 62 
 7 
 10 
0.329
 20 
1.313
 11 
0.329
 21 
1.363
 0 
LINE
 8 
0
 62 
 7 
 10 
0.33
 20 
1.482
 11 
0.37
 21 
1.482
 0 
LINE
 8 
0
 62 
 7 
 10 
0.37
 20 
1.482
 11 
0.37
 21 
1.432
 0 
LINE
 8 
0
 62 
 7 
 10 
0.37
 20 
1.432
 11 
0.33
 21 
1.432
 0 
LINE
 8 
0
 62 
 7 
 10 
0.33
 20 
1.432
 11 
0.33
 21 
1.482
 0 
LINE
 8 
0
 62 
 7 
 10 
0.406
 20 
1.482
 11 
0.446
 21 
1.482
 0 
LINE
 8 
0
 62 
 7 
 10 
0.446
 20 
1.482
 11 
0.446
 21 
1.432
 0 
LINE
 8 
0
 62 
 7 
 10 
0.446
 20 
1.432
 11 
0.406
 21 
1.432
 0 
LINE
 8 
0
 62 
 7 
 10 
0.406
 20 
1.432
 11 
0.406
 21 
1.482
 0 
LINE
 8 
0
 62 
 7 
 10 
0.33
 20 
1.925
 11 
0.37
 21 
1.925
 0 
LINE
 8 
0
 62 
 7 
 10 
0.37
 20 
1.925
 11 
0.37
 21 
1.875
 0 
LINE
 8 
0
 62 
 7 
 10 
0.37
 20 
1.875
 11 
0.33
 21 
1.875
 0 
LINE
 8 
0
 62 
 7 
 10 
0.33
 20 
1.875
 11 
0.33
 21 
1.925
 0 
LINE
 8 
0
 62 
 7 
 10 
0.406
 20 
1.925
 11 
0.446
 21 
1.925
 0 
LINE
 8 
0
 62 
 7 
 10 
0.446
 20 
1.925
 11 
0.446
 21 
1.875
 0 
LINE
 8 
0
 62 
 7 
 10 
0.446
 20 
1.875
 11 
0.406
 21 
1.875
 0 
LINE
 8 
0
 62 
 7 
 10 
0.406
 20 
1.875
 11 
0.406
 21 
1.925
 0 
LINE
 8 
0
 62 
 7 
 10 
0.405
 20 
1.75
 11 
0.445
 21 
1.75
 0 
LINE
 8 
0
 62 
 7 
 10 
0.445
 20 
1.75
 11 
0.445
 21 
1.7
 0 
LINE
 8 
0
 62 
 7 
 10 
0.445
 20 
1.7
 11 
0.405
 21 
1.7
 0 
LINE
 8 
0
 62 
 7 
 10 
0.405
 20 
1.7
 11 
0.405
 21 
1.75
 0 
LINE
 8 
0
 62 
 7 
 10 
0.329
 20 
1.75
 11 
0.369
 21 
1.75
 0 
LINE
 8 
0
 62 
 7 
 10 
0.369
 20 
1.75
 11 
0.369
 21 
1.7
 0 
LINE
 8 
0
 62 
 7 
 10 
0.369
 20 
1.7
 11 
0.329
 21 
1.7
 0 
LINE
 8 
0
 62 
 7 
 10 
0.329
 20 
1.7
 11 
0.329
 21 
1.75
 0 
LINE
 8 
0
 62 
 7 
 10 
0.404
 20 
2.04
 11 
0.444
 21 
2.04
 0 
LINE
 8 
0
 62 
 7 
 10 
0.444
 20 
2.04
 11 
0.444
 21 
2.01
 0 
LINE
 8 
0
 62 
 7 
 10 
0.444
 20 
2.01
 11 
0.404
 21 
2.01
 0 
LINE
 8 
0
 62 
 7 
 10 
0.404
 20 
2.01
 11 
0.404
 21 
2.04
 0 
LINE
 8 
0
 62 
 7 
 10 
0.404
 20 
2.115
 11 
0.444
 21 
2.115
 0 
LINE
 8 
0
 62 
 7 
 10 
0.444
 20 
2.115
 11 
0.444
 21 
2.085
 0 
LINE
 8 
0
 62 
 7 
 10 
0.444
 20 
2.085
 11 
0.404
 21 
2.085
 0 
LINE
 8 
0
 62 
 7 
 10 
0.404
 20 
2.085
 11 
0.404
 21 
2.115
 0 
LINE
 8 
0
 62 
 7 
 10 
0.314
 20 
2.078
 11 
0.354
 21 
2.078
 0 
LINE
 8 
0
 62 
 7 
 10 
0.354
 20 
2.078
 11 
0.354
 21 
2.048
 0 
LINE
 8 
0
 62 
 7 
 10 
0.354
 20 
2.048
 11 
0.314
 21 
2.048
 0 
LINE
 8 
0
 62 
 7 
 10 
0.314
 20 
2.048
 11 
0.314
 21 
2.078
 0 
LINE
 8 
0
 62 
 7 
 10 
0.138
 20 
1.31
 11 
0.213
 21 
1.31
 0 
LINE
 8 
0
 62 
 7 
 10 
0.213
 20 
1.31
 11 
0.213
 21 
1.235
 0 
LINE
 8 
0
 62 
 7 
 10 
0.213
 20 
1.235
 11 
0.138
 21 
1.235
 0 
LINE
 8 
0
 62 
 7 
 10 
0.138
 20 
1.235
 11 
0.138
 21 
1.31
 0 
CIRCLE
 8 
0
 62 
 7 
 10 
0.175
 20 
1.272
 40 
0.02
 0 
CIRCLE
 8 
0
 62 
 7 
 10 
0.175
 20 
1.172
 40 
0.038
 0 
CIRCLE
 8 
0
 62 
 7 
 10 
0.175
 20 
1.172
 40 
0.02
 0 
CIRCLE
 8 
0
 62 
 7 
 10 
0.175
 20 
1.072
 40 
0.038
 0 
CIRCLE
 8 
0
 62 
 7 
 10 
0.175
 20 
1.072
 40 
0.02
 0 
LINE
 8 
0
 62 
 7 
 10 
0.225
 20 
1.022
 11 
0.225
 21 
1.322
 0 
LINE
 8 
0
 62 
 7 
 10 
0.125
 20 
1.322
 11 
0.225
 21 
1.322
 0 
LINE
 8 
0
 62 
 7 
 10 
0.125
 20 
1.022
 11 
0.225
 21 
1.022
 0 
LINE
 8 
0
 62 
 7 
 10 
0.125
 20 
1.022
 11 
0.125
 21 
1.322
 0 
LINE
 8 
0
 62 
 7 
 10 
0.235
 20 
1.028
 11 
0.235
 21 
1.047
 0 
LINE
 8 
0
 62 
 7 
 10 
0.235
 20 
1.047
 11 
0.267
 21 
1.047
 0 
LINE
 8 
0
 62 
 7 
 10 
0.267
 20 
1.047
 11 
0.273
 21 
1.041
 0 
LINE
 8 
0
 62 
 7 
 10 
0.273
 20 
1.041
 11 
0.273
 21 
1.028
 0 
LINE
 8 
0
 62 
 7 
 10 
0.273
 20 
1.028
 11 
0.267
 21 
1.022
 0 
LINE
 8 
0
 62 
 7 
 10 
0.241
 20 
1.06
 11 
0.235
 21 
1.066
 0 
LINE
 8 
0
 62 
 7 
 10 
0.235
 20 
1.066
 11 
0.235
 21 
1.079
 0 
LINE
 8 
0
 62 
 7 
 10 
0.235
 20 
1.079
 11 
0.241
 21 
1.085
 0 
LINE
 8 
0
 62 
 7 
 10 
0.241
 20 
1.085
 11 
0.248
 21 
1.085
 0 
LINE
 8 
0
 62 
 7 
 10 
0.248
 20 
1.085
 11 
0.254
 21 
1.079
 0 
LINE
 8 
0
 62 
 7 
 10 
0.254
 20 
1.079
 11 
0.254
 21 
1.073
 0 
LINE
 8 
0
 62 
 7 
 10 
0.254
 20 
1.079
 11 
0.26
 21 
1.085
 0 
LINE
 8 
0
 62 
 7 
 10 
0.26
 20 
1.085
 11 
0.267
 21 
1.085
 0 
LINE
 8 
0
 62 
 7 
 10 
0.267
 20 
1.085
 11 
0.273
 21 
1.079
 0 
LINE
 8 
0
 62 
 7 
 10 
0.273
 20 
1.079
 11 
0.273
 21 
1.066
 0 
LINE
 8 
0
 62 
 7 
 10 
0.273
 20 
1.066
 11 
0.267
 21 
1.06
 0 
CIRCLE
 8 
0
 62 
 7 
 10 
0.075
 20 
2.425
 40 
0.038
 0 
CIRCLE
 8 
0
 62 
 7 
 10 
0.075
 20 
2.425
 40 
0.02
 0 
CIRCLE
 8 
0
 62 
 7 
 10 
0.175
 20 
2.425
 40 
0.038
 0 
CIRCLE
 8 
0
 62 
 7 
 10 
0.175
 20 
2.425
 40 
0.02
 0 
CIRCLE
 8 
0
 62 
 7 
 10 
0.275
 20 
2.425
 40 
0.038
 0 
CIRCLE
 8 
0
 62 
 7 
 10 
0.275
 20 
2.425
 40 
0.02
 0 
CIRCLE
 8 
0
 62 
 7 
 10 
0.375
 20 
2.425
 40 
0.038
 0 
CIRCLE
 8 
0
 62 
 7 
 10 
0.375
 20 
2.425
 40 
0.02
 0 
CIRCLE
 8 
0
 62 
 7 
 10 
0.475
 20 
2.425
 40 
0.038
 0 
CIRCLE
 8 
0
 62 
 7 
 10 
0.475
 20 
2.425
 40 
0.02
 0 
LINE
 8 
0
 62 
 7 
 10 
0.538
 20 
2.462
 11 
0.613
 21 
2.462
 0 
LINE
 8 
0
 62 
 7 
 10 
0.613
 20 
2.462
 11 
0.613
 21 
2.387
 0 
LINE
 8 
0
 62 
 7 
 10 
0.613
 20 
2.387
 11 
0.538
 21 
2.387
 0 
LINE
 8 
0
 62 
 7 
 10 
0.538
 20 
2.387
 11 
0.538
 21 
2.462
 0 
CIRCLE
 8 
0
 62 
 7 
 10 
0.575
 20 
2.425
 40 
0.02
 0 
CIRCLE
 8 
0
 62 
 7 
 10 
1.075
 20 
2.425
 40 
0.038
 0 
CIRCLE
 8 
0
 62 
 7 
 10 
1.075
 20 
2.425
 40 
0.02
 0 
CIRCLE
 8 
0
 62 
 7 
 10 
1.175
 20 
2.425
 40 
0.038
 0 
CIRCLE
 8 
0
 62 
 7 
 10 
1.175
 20 
2.425
 40 
0.02
 0 
CIRCLE
 8 
0
 62 
 7 
 10 
1.275
 20 
2.425
 40 
0.038
 0 
CIRCLE
 8 
0
 62 
 7 
 10 
1.275
 20 
2.425
 40 
0.02
 0 
CIRCLE
 8 
0
 62 
 7 
 10 
1.375
 20 
2.425
 40 
0.038
 0 
CIRCLE
 8 
0
 62 
 7 
 10 
1.375
 20 
2.425
 40 
0.02
 0 
CIRCLE
 8 
0
 62 
 7 
 10 
1.475
 20 
2.425
 40 
0.038
 0 
CIRCLE
 8 
0
 62 
 7 
 10 
1.475
 20 
2.425
 40 
0.02
 0 
LINE
 8 
0
 62 
 7 
 10 
1.538
 20 
2.462
 11 
1.613
 21 
2.462
 0 
LINE
 8 
0
 62 
 7 
 10 
1.613
 20 
2.462
 11 
1.613
 21 
2.387
 0 
LINE
 8 
0
 62 
 7 
 10 
1.613
 20 
2.387
 11 
1.538
 21 
2.387
 0 
LINE
 8 
0
 62 
 7 
 10 
1.538
 20 
2.387
 11 
1.538
 21 
2.462
 0 
CIRCLE
 8 
0
 62 
 7 
 10 
1.575
 20 
2.425
 40 
0.02
 0 
CIRCLE
 8 
0
 62 
 7 
 10 
0.975
 20 
2.425
 40 
0.038
 0 
CIRCLE
 8 
0
 62 
 7 
 10 
0.975
 20 
2.425
 40 
0.02
 0 
CIRCLE
 8 
0
 62 
 7 
 10 
0.875
 20 
2.425
 40 
0.038
 0 
CIRCLE
 8 
0
 62 
 7 
 10 
0.875
 20 
2.425
 40 
0.02
 0 
CIRCLE
 8 
0
 62 
 7 
 10 
0.775
 20 
2.425
 40 
0.038
 0 
CIRCLE
 8 
0
 62 
 7 
 10 
0.775
 20 
2.425
 40 
0.02
 0 
CIRCLE
 8 
0
 62 
 7 
 10 
0.675
 20 
2.425
 40 
0.038
 0 
CIRCLE
 8 
0
 62 
 7 
 10 
0.675
 20 
2.425
 40 
0.02
 0 
CIRCLE
 8 
0
 62 
 7 
 10 
1.425
 20 
1.744
 40 
0.028
 0 
CIRCLE
 8 
0
 62 
 7 
 10 
1.425
 20 
1.744
 40 
0.014
 0 
CIRCLE
 8 
0
 62 
 7 
 10 
1.325
 20 
1.644
 40 
0.028
 0 
CIRCLE
 8 
0
 62 
 7 
 10 
1.325
 20 
1.644
 40 
0.014
 0 
CIRCLE
 8 
0
 62 
 7 
 10 
1.425
 20 
1.544
 40 
0.028
 0 
CIRCLE
 8 
0
 62 
 7 
 10 
1.425
 20 
1.544
 40 
0.014
 0 
LINE
 8 
0
 62 
 7 
 10 
1.4
 20 
1.978
 11 
1.45
 21 
1.978
 0 
LINE
 8 
0
 62 
 7 
 10 
1.45
 20 
1.978
 11 
1.45
 21 
1.938
 0 
LINE
 8 
0
 62 
 7 
 10 
1.45
 20 
1.938
 11 
1.4
 21 
1.938
 0 
LINE
 8 
0
 62 
 7 
 10 
1.4
 20 
1.938
 11 
1.4
 21 
1.978
 0 
LINE
 8 
0
 62 
 7 
 10 
1.4
 20 
2.054
 11 
1.45
 21 
2.054
 0 
LINE
 8 
0
 62 
 7 
 10 
1.45
 20 
2.054
 11 
1.45
 21 
2.014
 0 
LINE
 8 
0
 62 
 7 
 10 
1.45
 20 
2.014
 11 
1.4
 21 
2.014
 0 
LINE
 8 
0
 62 
 7 
 10 
1.4
 20 
2.014
 11 
1.4
 21 
2.054
 0 
LINE
 8 
0
 62 
 7 
 10 
1.25
 20 
1.978
 11 
1.3
 21 
1.978
 0 
LINE
 8 
0
 62 
 7 
 10 
1.3
 20 
1.978
 11 
1.3
 21 
1.938
 0 
LINE
 8 
0
 62 
 7 
 10 
1.3
 20 
1.938
 11 
1.25
 21 
1.938
 0 
LINE
 8 
0
 62 
 7 
 10 
1.25
 20 
1.938
 11 
1.25
 21 
1.978
 0 
LINE
 8 
0
 62 
 7 
 10 
1.25
 20 
2.054
 11 
1.3
 21 
2.054
 0 
LINE
 8 
0
 62 
 7 
 10 
1.3
 20 
2.054
 11 
1.3
 21 
2.014
 0 
LINE
 8 
0
 62 
 7 
 10 
1.3
 20 
2.014
 11 
1.25
 21 
2.014
 0 
LINE
 8 
0
 62 
 7 
 10 
1.25
 20 
2.014
 11 
1.25
 21 
2.054
 0 
LINE
 8 
0
 62 
 7 
 10 
0.705
 20 
1.325
 11 
0.745
 21 
1.325
 0 
LINE
 8 
0
 62 
 7 
 10 
0.745
 20 
1.325
 11 
0.745
 21 
1.275
 0 
LINE
 8 
0
 62 
 7 
 10 
0.745
 20 
1.275
 11 
0.705
 21 
1.275
 0 
LINE
 8 
0
 62 
 7 
 10 
0.705
 20 
1.275
 11 
0.705
 21 
1.325
 0 
LINE
 8 
0
 62 
 7 
 10 
0.781
 20 
1.325
 11 
0.821
 21 
1.325
 0 
LINE
 8 
0
 62 
 7 
 10 
0.821
 20 
1.325
 11 
0.821
 21 
1.275
 0 
LINE
 8 
0
 62 
 7 
 10 
0.821
 20 
1.275
 11 
0.781
 21 
1.275
 0 
LINE
 8 
0
 62 
 7 
 10 
0.781
 20 
1.275
 11 
0.781
 21 
1.325
 0 
LINE
 8 
0
 62 
 7 
 10 
0.635
 20 
2.088
 11 
0.715
 21 
2.088
 0 
LINE
 8 
0
 62 
 7 
 10 
0.715
 20 
2.088
 11 
0.715
 21 
2.062
 0 
LINE
 8 
0
 62 
 7 
 10 
0.715
 20 
2.062
 11 
0.635
 21 
2.062
 0 
LINE
 8 
0
 62 
 7 
 10 
0.635
 20 
2.062
 11 
0.635
 21 
2.088
 0 
LINE
 8 
0
 62 
 7 
 10 
0.635
 20 
2.038
 11 
0.715
 21 
2.038
 0 
LINE
 8 
0
 62 
 7 
 10 
0.715
 20 
2.038
 11 
0.715
 21 
2.012
 0 
LINE
 8 
0
 62 
 7 
 10 
0.715
 20 
2.012
 11 
0.635
 21 
2.012
 0 
LINE
 8 
0
 62 
 7 
 10 
0.635
 20 
2.012
 11 
0.635
 21 
2.038
 0 
LINE
 8 
0
 62 
 7 
 10 
0.635
 20 
1.988
 11 
0.715
 21 
1.988
 0 
LINE
 8 
0
 62 
 7 
 10 
0.715
 20 
1.988
 11 
0.715
 21 
1.962
 0 
LINE
 8 
0
 62 
 7 
 10 
0.715
 20 
1.962
 11 
0.635
 21 
1.962
 0 
LINE
 8 
0
 62 
 7 
 10 
0.635
 20 
1.962
 11 
0.635
 21 
1.988
 0 
LINE
 8 
0
 62 
 7 
 10 
0.635
 20 
1.938
 11 
0.715
 21 
1.938
 0 
LINE
 8 
0
 62 
 7 
 10 
0.715
 20 
1.938
 11 
0.715
 21 
1.912
 0 
LINE
 8 
0
 62 
 7 
 10 
0.715
 20 
1.912
 11 
0.635
 21 
1.912
 0 
LINE
 8 
0
 62 
 7 
 10 
0.635
 20 
1.912
 11 
0.635
 21 
1.938
 0 
LINE
 8 
0
 62 
 7 
 10 
0.635
 20 
1.888
 11 
0.715
 21 
1.888
 0 
LINE
 8 
0
 62 
 7 
 10 
0.715
 20 
1.888
 11 
0.715
 21 
1.862
 0 
LINE
 8 
0
 62 
 7 
 10 
0.715
 20 
1.862
 11 
0.635
 21 
1.862
 0 
LINE
 8 
0
 62 
 7 
 10 
0.635
 20 
1.862
 11 
0.635
 21 
1.888
 0 
LINE
 8 
0
 62 
 7 
 10 
0.635
 20 
1.838
 11 
0.715
 21 
1.838
 0 
LINE
 8 
0
 62 
 7 
 10 
0.715
 20 
1.838
 11 
0.715
 21 
1.812
 0 
LINE
 8 
0
 62 
 7 
 10 
0.715
 20 
1.812
 11 
0.635
 21 
1.812
 0 
LINE
 8 
0
 62 
 7 
 10 
0.635
 20 
1.812
 11 
0.635
 21 
1.838
 0 
LINE
 8 
0
 62 
 7 
 10 
0.635
 20 
1.788
 11 
0.715
 21 
1.788
 0 
LINE
 8 
0
 62 
 7 
 10 
0.715
 20 
1.788
 11 
0.715
 21 
1.762
 0 
LINE
 8 
0
 62 
 7 
 10 
0.715
 20 
1.762
 11 
0.635
 21 
1.762
 0 
LINE
 8 
0
 62 
 7 
 10 
0.635
 20 
1.762
 11 
0.635
 21 
1.788
 0 
LINE
 8 
0
 62 
 7 
 10 
0.635
 20 
1.738
 11 
0.715
 21 
1.738
 0 
LINE
 8 
0
 62 
 7 
 10 
0.715
 20 
1.738
 11 
0.715
 21 
1.712
 0 
LINE
 8 
0
 62 
 7 
 10 
0.715
 20 
1.712
 11 
0.635
 21 
1.712
 0 
LINE
 8 
0
 62 
 7 
 10 
0.635
 20 
1.712
 11 
0.635
 21 
1.738
 0 
LINE
 8 
0
 62 
 7 
 10 
0.635
 20 
1.688
 11 
0.715
 21 
1.688
 0 
LINE
 8 
0
 62 
 7 
 10 
0.715
 20 
1.688
 11 
0.715
 21 
1.662
 0 
LINE
 8 
0
 62 
 7 
 10 
0.715
 20 
1.662
 11 
0.635
 21 
1.662
 0 
LINE
 8 
0
 62 
 7 
 10 
0.635
 20 
1.662
 11 
0.635
 21 
1.688
 0 
LINE
 8 
0
 62 
 7 
 10 
1.01
 20 
1.688
 11 
1.09
 21 
1.688
 0 
LINE
 8 
0
 62 
 7 
 10 
1.09
 20 
1.688
 11 
1.09
 21 
1.662
 0 
LINE
 8 
0
 62 
 7 
 10 
1.09
 20 
1.662
 11 
1.01
 21 
1.662
 0 
LINE
 8 
0
 62 
 7 
 10 
1.01
 20 
1.662
 11 
1.01
 21 
1.688
 0 
LINE
 8 
0
 62 
 7 
 10 
1.01
 20 
1.738
 11 
1.09
 21 
1.738
 0 
LINE
 8 
0
 62 
 7 
 10 
1.09
 20 
1.738
 11 
1.09
 21 
1.712
 0 
LINE
 8 
0
 62 
 7 
 10 
1.09
 20 
1.712
 11 
1.01
 21 
1.712
 0 
LINE
 8 
0
 62 
 7 
 10 
1.01
 20 
1.712
 11 
1.01
 21 
1.738
 0 
LINE
 8 
0
 62 
 7 
 10 
1.01
 20 
1.788
 11 
1.09
 21 
1.788
 0 
LINE
 8 
0
 62 
 7 
 10 
1.09
 20 
1.788
 11 
1.09
 21 
1.762
 0 
LINE
 8 
0
 62 
 7 
 10 
1.09
 20 
1.762
 11 
1.01
 21 
1.762
 0 
LINE
 8 
0
 62 
 7 
 10 
1.01
 20 
1.762
 11 
1.01
 21 
1.788
 0 
LINE
 8 
0
 62 
 7 
 10 
1.01
 20 
1.838
 11 
1.09
 21 
1.838
 0 
LINE
 8 
0
 62 
 7 
 10 
1.09
 20 
1.838
 11 
1.09
 21 
1.812
 0 
LINE
 8 
0
 62 
 7 
 10 
1.09
 20 
1.812
 11 
1.01
 21 
1.812
 0 
LINE
 8 
0
 62 
 7 
 10 
1.01
 20 
1.812
 11 
1.01
 21 
1.838
 0 
LINE
 8 
0
 62 
 7 
 10 
1.01
 20 
1.888
 11 
1.09
 21 
1.888
 0 
LINE
 8 
0
 62 
 7 
 10 
1.09
 20 
1.888
 11 
1.09
 21 
1.862
 0 
LINE
 8 
0
 62 
 7 
 10 
1.09
 20 
1.862
 11 
1.01
 21 
1.862
 0 
LINE
 8 
0
 62 
 7 
 10 
1.01
 20 
1.862
 11 
1.01
 21 
1.888
 0 
LINE
 8 
0
 62 
 7 
 10 
1.01
 20 
1.938
 11 
1.09
 21 
1.938
 0 
LINE
 8 
0
 62 
 7 
 10 
1.09
 20 
1.938
 11 
1.09
 21 
1.912
 0 
LINE
 8 
0
 62 
 7 
 10 
1.09
 20 
1.912
 11 
1.01
 21 
1.912
 0 
LINE
 8 
0
 62 
 7 
 10 
1.01
 20 
1.912
 11 
1.01
 21 
1.938
 0 
LINE
 8 
0
 62 
 7 
 10 
1.01
 20 
1.988
 11 
1.09
 21 
1.988
 0 
LINE
 8 
0
 62 
 7 
 10 
1.09
 20 
1.988
 11 
1.09
 21 
1.962
 0 
LINE
 8 
0
 62 
 7 
 10 
1.09
 20 
1.962
 11 
1.01
 21 
1.962
 0 
LINE
 8 
0
 62 
 7 
 10 
1.01
 20 
1.962
 11 
1.01
 21 
1.988
 0 
LINE
 8 
0
 62 
 7 
 10 
1.01
 20 
2.038
 11 
1.09
 21 
2.038
 0 
LINE
 8 
0
 62 
 7 
 10 
1.09
 20 
2.038
 11 
1.09
 21 
2.012
 0 
LINE
 8 
0
 62 
 7 
 10 
1.09
 20 
2.012
 11 
1.01
 21 
2.012
 0 
LINE
 8 
0
 62 
 7 
 10 
1.01
 20 
2.012
 11 
1.01
 21 
2.038
 0 
LINE
 8 
0
 62 
 7 
 10 
1.01
 20 
2.088
 11 
1.09
 21 
2.088
 0 
LINE
 8 
0
 62 
 7 
 10 
1.09
 20 
2.088
 11 
1.09
 21 
2.062
 0 
LINE
 8 
0
 62 
 7 
 10 
1.09
 20 
2.062
 11 
1.01
 21 
2.062
 0 
LINE
 8 
0
 62 
 7 
 10 
1.01
 20 
2.062
 11 
1.01
 21 
2.088
 0 
LINE
 8 
0
 62 
 7 
 10 
0.405
 20 
2.225
 11 
0.445
 21 
2.225
 0 
LINE
 8 
0
 62 
 7 
 10 
0.445
 20 
2.225
 11 
0.445
 21 
2.175
 0 
LINE
 8 
0
 62 
 7 
 10 
0.445
 20 
2.175
 11 
0.405
 21 
2.175
 0 
LINE
 8 
0
 62 
 7 
 10 
0.405
 20 
2.175
 11 
0.405
 21 
2.225
 0 
LINE
 8 
0
 62 
 7 
 10 
0.329
 20 
2.225
 11 
0.369
 21 
2.225
 0 
LINE
 8 
0
 62 
 7 
 10 
0.369
 20 
2.225
 11 
0.369
 21 
2.175
 0 
LINE
 8 
0
 62 
 7 
 10 
0.369
 20 
2.175
 11 
0.329
 21 
2.175
 0 
LINE
 8 
0
 62 
 7 
 10 
0.329
 20 
2.175
 11 
0.329
 21 
2.225
 0 
LINE
 8 
0
 62 
 7 
 10 
1.255
 20 
2.14
 11 
1.295
 21 
2.14
 0 
LINE
 8 
0
 62 
 7 
 10 
1.295
 20 
2.14
 11 
1.295
 21 
2.11
 0 
LINE
 8 
0
 62 
 7 
 10 
1.295
 20 
2.11
 11 
1.255
 21 
2.11
 0 
LINE
 8 
0
 62 
 7 
 10 
1.255
 20 
2.11
 11 
1.255
 21 
2.14
 0 
LINE
 8 
0
 62 
 7 
 10 
1.255
 20 
2.215
 11 
1.295
 21 
2.215
 0 
LINE
 8 
0
 62 
 7 
 10 
1.295
 20 
2.215
 11 
1.295
 21 
2.185
 0 
LINE
 8 
0
 62 
 7 
 10 
1.295
 20 
2.185
 11 
1.255
 21 
2.185
 0 
LINE
 8 
0
 62 
 7 
 10 
1.255
 20 
2.185
 11 
1.255
 21 
2.215
 0 
LINE
 8 
0
 62 
 7 
 10 
1.165
 20 
2.178
 11 
1.205
 21 
2.178
 0 
LINE
 8 
0
 62 
 7 
 10 
1.205
 20 
2.178
 11 
1.205
 21 
2.148
 0 
LINE
 8 
0
 62 
 7 
 10 
1.205
 20 
2.148
 11 
1.165
 21 
2.148
 0 
LINE
 8 
0
 62 
 7 
 10 
1.165
 20 
2.148
 11 
1.165
 21 
2.178
 0 
LINE
 8 
0
 62 
 7 
 10 
0.9
 20 
1.15
 11 
1.55
 21 
1.15
 0 
LINE
 8 
0
 62 
 7 
 10 
1.55
 20 
1.325
 11 
0.9
 21 
1.325
 0 
LINE
 8 
0
 62 
 7 
 10 
0.9
 20 
1.15
 11 
0.9
 21 
1.325
 0 
LINE
 8 
0
 62 
 7 
 10 
1.55
 20 
1.15
 11 
1.55
 21 
1.325
 0 
LINE
 8 
0
 62 
 7 
 10 
0.95
 20 
1.325
 11 
1.5
 21 
1.325
 0 
LINE
 8 
0
 62 
 7 
 10 
1.5
 20 
1.325
 11 
1.5
 21 
1.3
 0 
LINE
 8 
0
 62 
 7 
 10 
1.5
 20 
1.3
 11 
0.95
 21 
1.3
 0 
LINE
 8 
0
 62 
 7 
 10 
0.95
 20 
1.3
 11 
0.95
 21 
1.325
 0 
LINE
 8 
0
 62 
 7 
 10 
0.845
 20 
1.151
 11 
0.845
 21 
1.17
 0 
LINE
 8 
0
 62 
 7 
 10 
0.845
 20 
1.17
 11 
0.877
 21 
1.17
 0 
LINE
 8 
0
 62 
 7 
 10 
0.877
 20 
1.17
 11 
0.883
 21 
1.164
 0 
LINE
 8 
0
 62 
 7 
 10 
0.883
 20 
1.164
 11 
0.883
 21 
1.151
 0 
LINE
 8 
0
 62 
 7 
 10 
0.883
 20 
1.151
 11 
0.877
 21 
1.145
 0 
LINE
 8 
0
 62 
 7 
 10 
0.845
 20 
1.202
 11 
0.845
 21 
1.196
 0 
LINE
 8 
0
 62 
 7 
 10 
0.845
 20 
1.196
 11 
0.858
 21 
1.183
 0 
LINE
 8 
0
 62 
 7 
 10 
0.858
 20 
1.183
 11 
0.877
 21 
1.183
 0 
LINE
 8 
0
 62 
 7 
 10 
0.877
 20 
1.183
 11 
0.883
 21 
1.189
 0 
LINE
 8 
0
 62 
 7 
 10 
0.883
 20 
1.189
 11 
0.883
 21 
1.202
 0 
LINE
 8 
0
 62 
 7 
 10 
0.883
 20 
1.202
 11 
0.877
 21 
1.208
 0 
LINE
 8 
0
 62 
 7 
 10 
0.877
 20 
1.208
 11 
0.87
 21 
1.208
 0 
LINE
 8 
0
 62 
 7 
 10 
0.87
 20 
1.208
 11 
0.864
 21 
1.202
 0 
LINE
 8 
0
 62 
 7 
 10 
0.864
 20 
1.202
 11 
0.864
 21 
1.189
 0 
LINE
 8 
0
 62 
 7 
 10 
0.864
 20 
1.189
 11 
0.87
 21 
1.183
 0 
LINE
 8 
0
 62 
 7 
 10 
0.407
 20 
1.293
 11 
0.465
 21 
1.293
 0 
LINE
 8 
0
 62 
 7 
 10 
0.465
 20 
1.293
 11 
0.465
 21 
1.383
 0 
LINE
 8 
0
 62 
 7 
 10 
0.465
 20 
1.383
 11 
0.407
 21 
1.383
 0 
LINE
 8 
0
 62 
 7 
 10 
0.367
 20 
1.293
 11 
0.309
 21 
1.293
 0 
LINE
 8 
0
 62 
 7 
 10 
0.309
 20 
1.293
 11 
0.309
 21 
1.383
 0 
LINE
 8 
0
 62 
 7 
 10 
0.309
 20 
1.383
 11 
0.367
 21 
1.383
 0 
LINE
 8 
0
 62 
 7 
 10 
0.523
 20 
1.308
 11 
0.485
 21 
1.308
 0 
LINE
 8 
0
 62 
 7 
 10 
0.485
 20 
1.308
 11 
0.485
 21 
1.327
 0 
LINE
 8 
0
 62 
 7 
 10 
0.485
 20 
1.327
 11 
0.491
 21 
1.333
 0 
LINE
 8 
0
 62 
 7 
 10 
0.491
 20 
1.333
 11 
0.498
 21 
1.333
 0 
LINE
 8 
0
 62 
 7 
 10 
0.498
 20 
1.333
 11 
0.504
 21 
1.327
 0 
LINE
 8 
0
 62 
 7 
 10 
0.504
 20 
1.327
 11 
0.504
 21 
1.308
 0 
LINE
 8 
0
 62 
 7 
 10 
0.504
 20 
1.314
 11 
0.523
 21 
1.333
 0 
LINE
 8 
0
 62 
 7 
 10 
0.491
 20 
1.346
 11 
0.485
 21 
1.352
 0 
LINE
 8 
0
 62 
 7 
 10 
0.485
 20 
1.352
 11 
0.485
 21 
1.365
 0 
LINE
 8 
0
 62 
 7 
 10 
0.485
 20 
1.365
 11 
0.491
 21 
1.371
 0 
LINE
 8 
0
 62 
 7 
 10 
0.491
 20 
1.371
 11 
0.498
 21 
1.371
 0 
LINE
 8 
0
 62 
 7 
 10 
0.498
 20 
1.371
 11 
0.504
 21 
1.365
 0 
LINE
 8 
0
 62 
 7 
 10 
0.504
 20 
1.365
 11 
0.504
 21 
1.352
 0 
LINE
 8 
0
 62 
 7 
 10 
0.504
 20 
1.352
 11 
0.51
 21 
1.346
 0 
LINE
 8 
0
 62 
 7 
 10 
0.51
 20 
1.346
 11 
0.523
 21 
1.346
 0 
LINE
 8 
0
 62 
 7 
 10 
0.523
 20 
1.346
 11 
0.523
 21 
1.371
 0 
LINE
 8 
0
 62 
 7 
 10 
0.368
 20 
1.502
 11 
0.31
 21 
1.502
 0 
LINE
 8 
0
 62 
 7 
 10 
0.31
 20 
1.502
 11 
0.31
 21 
1.412
 0 
LINE
 8 
0
 62 
 7 
 10 
0.31
 20 
1.412
 11 
0.368
 21 
1.412
 0 
LINE
 8 
0
 62 
 7 
 10 
0.408
 20 
1.502
 11 
0.466
 21 
1.502
 0 
LINE
 8 
0
 62 
 7 
 10 
0.466
 20 
1.502
 11 
0.466
 21 
1.412
 0 
LINE
 8 
0
 62 
 7 
 10 
0.466
 20 
1.412
 11 
0.408
 21 
1.412
 0 
LINE
 8 
0
 62 
 7 
 10 
0.491
 20 
1.457
 11 
0.485
 21 
1.451
 0 
LINE
 8 
0
 62 
 7 
 10 
0.485
 20 
1.451
 11 
0.485
 21 
1.438
 0 
LINE
 8 
0
 62 
 7 
 10 
0.485
 20 
1.438
 11 
0.491
 21 
1.432
 0 
LINE
 8 
0
 62 
 7 
 10 
0.491
 20 
1.432
 11 
0.517
 21 
1.432
 0 
LINE
 8 
0
 62 
 7 
 10 
0.517
 20 
1.432
 11 
0.523
 21 
1.438
 0 
LINE
 8 
0
 62 
 7 
 10 
0.523
 20 
1.438
 11 
0.523
 21 
1.451
 0 
LINE
 8 
0
 62 
 7 
 10 
0.523
 20 
1.451
 11 
0.517
 21 
1.457
 0 
LINE
 8 
0
 62 
 7 
 10 
0.491
 20 
1.476
 11 
0.485
 21 
1.483
 0 
LINE
 8 
0
 62 
 7 
 10 
0.485
 20 
1.483
 11 
0.523
 21 
1.483
 0 
LINE
 8 
0
 62 
 7 
 10 
0.523
 20 
1.476
 11 
0.523
 21 
1.489
 0 
LINE
 8 
0
 62 
 7 
 10 
0.368
 20 
1.945
 11 
0.31
 21 
1.945
 0 
LINE
 8 
0
 62 
 7 
 10 
0.31
 20 
1.945
 11 
0.31
 21 
1.855
 0 
LINE
 8 
0
 62 
 7 
 10 
0.31
 20 
1.855
 11 
0.368
 21 
1.855
 0 
LINE
 8 
0
 62 
 7 
 10 
0.408
 20 
1.945
 11 
0.466
 21 
1.945
 0 
LINE
 8 
0
 62 
 7 
 10 
0.466
 20 
1.945
 11 
0.466
 21 
1.855
 0 
LINE
 8 
0
 62 
 7 
 10 
0.466
 20 
1.855
 11 
0.408
 21 
1.855
 0 
LINE
 8 
0
 62 
 7 
 10 
0.523
 20 
1.87
 11 
0.485
 21 
1.87
 0 
LINE
 8 
0
 62 
 7 
 10 
0.485
 20 
1.87
 11 
0.485
 21 
1.889
 0 
LINE
 8 
0
 62 
 7 
 10 
0.485
 20 
1.889
 11 
0.491
 21 
1.895
 0 
LINE
 8 
0
 62 
 7 
 10 
0.491
 20 
1.895
 11 
0.498
 21 
1.895
 0 
LINE
 8 
0
 62 
 7 
 10 
0.498
 20 
1.895
 11 
0.504
 21 
1.889
 0 
LINE
 8 
0
 62 
 7 
 10 
0.504
 20 
1.889
 11 
0.504
 21 
1.87
 0 
LINE
 8 
0
 62 
 7 
 10 
0.504
 20 
1.876
 11 
0.523
 21 
1.895
 0 
LINE
 8 
0
 62 
 7 
 10 
0.491
 20 
1.908
 11 
0.485
 21 
1.908
 0 
LINE
 8 
0
 62 
 7 
 10 
0.485
 20 
1.908
 11 
0.485
 21 
1.933
 0 
LINE
 8 
0
 62 
 7 
 10 
0.485
 20 
1.933
 11 
0.491
 21 
1.933
 0 
LINE
 8 
0
 62 
 7 
 10 
0.491
 20 
1.933
 11 
0.51
 21 
1.914
 0 
LINE
 8 
0
 62 
 7 
 10 
0.51
 20 
1.914
 11 
0.523
 21 
1.914
 0 
LINE
 8 
0
 62 
 7 
 10 
0.407
 20 
1.68
 11 
0.465
 21 
1.68
 0 
LINE
 8 
0
 62 
 7 
 10 
0.465
 20 
1.68
 11 
0.465
 21 
1.77
 0 
LINE
 8 
0
 62 
 7 
 10 
0.465
 20 
1.77
 11 
0.407
 21 
1.77
 0 
LINE
 8 
0
 62 
 7 
 10 
0.367
 20 
1.68
 11 
0.309
 21 
1.68
 0 
LINE
 8 
0
 62 
 7 
 10 
0.309
 20 
1.68
 11 
0.309
 21 
1.77
 0 
LINE
 8 
0
 62 
 7 
 10 
0.309
 20 
1.77
 11 
0.367
 21 
1.77
 0 
LINE
 8 
0
 62 
 7 
 10 
0.523
 20 
1.695
 11 
0.485
 21 
1.695
 0 
LINE
 8 
0
 62 
 7 
 10 
0.485
 20 
1.695
 11 
0.485
 21 
1.714
 0 
LINE
 8 
0
 62 
 7 
 10 
0.485
 20 
1.714
 11 
0.491
 21 
1.72
 0 
LINE
 8 
0
 62 
 7 
 10 
0.491
 20 
1.72
 11 
0.498
 21 
1.72
 0 
LINE
 8 
0
 62 
 7 
 10 
0.498
 20 
1.72
 11 
0.504
 21 
1.714
 0 
LINE
 8 
0
 62 
 7 
 10 
0.504
 20 
1.714
 11 
0.504
 21 
1.695
 0 
LINE
 8 
0
 62 
 7 
 10 
0.504
 20 
1.701
 11 
0.523
 21 
1.72
 0 
LINE
 8 
0
 62 
 7 
 10 
0.51
 20 
1.758
 11 
0.51
 21 
1.733
 0 
LINE
 8 
0
 62 
 7 
 10 
0.51
 20 
1.733
 11 
0.504
 21 
1.733
 0 
LINE
 8 
0
 62 
 7 
 10 
0.504
 20 
1.733
 11 
0.485
 21 
1.752
 0 
LINE
 8 
0
 62 
 7 
 10 
0.485
 20 
1.752
 11 
0.523
 21 
1.752
 0 
LINE
 8 
0
 62 
 7 
 10 
0.382
 20 
2.007
 11 
0.332
 21 
2.007
 0 
LINE
 8 
0
 62 
 7 
 10 
0.332
 20 
2.007
 11 
0.332
 21 
2.028
 0 
LINE
 8 
0
 62 
 7 
 10 
0.382
 20 
2.118
 11 
0.332
 21 
2.118
 0 
LINE
 8 
0
 62 
 7 
 10 
0.43
 20 
2.056
 11 
0.43
 21 
2.069
 0 
LINE
 8 
0
 62 
 7 
 10 
0.332
 20 
2.097
 11 
0.332
 21 
2.118
 0 
LINE
 8 
0
 62 
 7 
 10 
0.461
 20 
2.065
 11 
0.455
 21 
2.059
 0 
LINE
 8 
0
 62 
 7 
 10 
0.455
 20 
2.059
 11 
0.455
 21 
2.046
 0 
LINE
 8 
0
 62 
 7 
 10 
0.455
 20 
2.046
 11 
0.461
 21 
2.04
 0 
LINE
 8 
0
 62 
 7 
 10 
0.461
 20 
2.04
 11 
0.487
 21 
2.04
 0 
LINE
 8 
0
 62 
 7 
 10 
0.487
 20 
2.04
 11 
0.493
 21 
2.046
 0 
LINE
 8 
0
 62 
 7 
 10 
0.493
 20 
2.046
 11 
0.493
 21 
2.053
 0 
LINE
 8 
0
 62 
 7 
 10 
0.493
 20 
2.053
 11 
0.48
 21 
2.065
 0 
LINE
 8 
0
 62 
 7 
 10 
0.48
 20 
2.065
 11 
0.461
 21 
2.065
 0 
LINE
 8 
0
 62 
 7 
 10 
0.48
 20 
2.053
 11 
0.493
 21 
2.065
 0 
LINE
 8 
0
 62 
 7 
 10 
0.461
 20 
2.078
 11 
0.455
 21 
2.084
 0 
LINE
 8 
0
 62 
 7 
 10 
0.455
 20 
2.084
 11 
0.455
 21 
2.097
 0 
LINE
 8 
0
 62 
 7 
 10 
0.455
 20 
2.097
 11 
0.461
 21 
2.103
 0 
LINE
 8 
0
 62 
 7 
 10 
0.461
 20 
2.103
 11 
0.468
 21 
2.103
 0 
LINE
 8 
0
 62 
 7 
 10 
0.468
 20 
2.103
 11 
0.474
 21 
2.097
 0 
LINE
 8 
0
 62 
 7 
 10 
0.474
 20 
2.097
 11 
0.474
 21 
2.084
 0 
LINE
 8 
0
 62 
 7 
 10 
0.474
 20 
2.084
 11 
0.48
 21 
2.078
 0 
LINE
 8 
0
 62 
 7 
 10 
0.48
 20 
2.078
 11 
0.493
 21 
2.078
 0 
LINE
 8 
0
 62 
 7 
 10 
0.493
 20 
2.078
 11 
0.493
 21 
2.103
 0 
LINE
 8 
0
 62 
 7 
 10 
0.475
 20 
1.63
 11 
0.525
 21 
1.63
 0 
LINE
 8 
0
 62 
 7 
 10 
0.525
 20 
1.63
 11 
0.525
 21 
1.547
 0 
LINE
 8 
0
 62 
 7 
 10 
0.525
 20 
1.547
 11 
0.475
 21 
1.547
 0 
LINE
 8 
0
 62 
 7 
 10 
0.475
 20 
1.547
 11 
0.475
 21 
1.63
 0 
LINE
 8 
0
 62 
 7 
 10 
0.328
 20 
1.63
 11 
0.378
 21 
1.63
 0 
LINE
 8 
0
 62 
 7 
 10 
0.378
 20 
1.63
 11 
0.378
 21 
1.547
 0 
LINE
 8 
0
 62 
 7 
 10 
0.378
 20 
1.547
 11 
0.328
 21 
1.547
 0 
LINE
 8 
0
 62 
 7 
 10 
0.328
 20 
1.547
 11 
0.328
 21 
1.63
 0 
LINE
 8 
0
 62 
 7 
 10 
0.31
 20 
1.529
 11 
0.31
 21 
1.649
 0 
LINE
 8 
0
 62 
 7 
 10 
0.54
 20 
1.649
 11 
0.31
 21 
1.649
 0 
LINE
 8 
0
 62 
 7 
 10 
0.46
 20 
1.649
 11 
0.46
 21 
1.529
 0 
LINE
 8 
0
 62 
 7 
 10 
0.625
 20 
2.475
 11 
0.025
 21 
2.475
 0 
LINE
 8 
0
 62 
 7 
 10 
0.025
 20 
2.375
 11 
0.625
 21 
2.375
 0 
LINE
 8 
0
 62 
 7 
 10 
0.625
 20 
2.475
 11 
0.625
 21 
2.375
 0 
LINE
 8 
0
 62 
 7 
 10 
0.025
 20 
2.475
 11 
0.025
 21 
2.375
 0 
LINE
 8 
0
 62 
 7 
 10 
1.625
 20 
2.475
 11 
1.025
 21 
2.475
 0 
LINE
 8 
0
 62 
 7 
 10 
1.025
 20 
2.375
 11 
1.625
 21 
2.375
 0 
LINE
 8 
0
 62 
 7 
 10 
1.625
 20 
2.475
 11 
1.625
 21 
2.375
 0 
LINE
 8 
0
 62 
 7 
 10 
1.025
 20 
2.475
 11 
1.025
 21 
2.375
 0 
LINE
 8 
0
 62 
 7 
 10 
0.37
 20 
1.12
 11 
0.37
 21 
1.082
 0 
LINE
 8 
0
 62 
 7 
 10 
0.395
 20 
1.12
 11 
0.395
 21 
1.082
 0 
LINE
 8 
0
 62 
 7 
 10 
0.37
 20 
1.101
 11 
0.395
 21 
1.101
 0 
LINE
 8 
0
 62 
 7 
 10 
0.433
 20 
1.101
 11 
0.427
 21 
1.107
 0 
LINE
 8 
0
 62 
 7 
 10 
0.427
 20 
1.107
 11 
0.414
 21 
1.107
 0 
LINE
 8 
0
 62 
 7 
 10 
0.414
 20 
1.107
 11 
0.408
 21 
1.101
 0 
LINE
 8 
0
 62 
 7 
 10 
0.408
 20 
1.101
 11 
0.408
 21 
1.088
 0 
LINE
 8 
0
 62 
 7 
 10 
0.408
 20 
1.088
 11 
0.414
 21 
1.082
 0 
LINE
 8 
0
 62 
 7 
 10 
0.414
 20 
1.082
 11 
0.427
 21 
1.082
 0 
LINE
 8 
0
 62 
 7 
 10 
0.427
 20 
1.082
 11 
0.433
 21 
1.088
 0 
LINE
 8 
0
 62 
 7 
 10 
0.433
 20 
1.088
 11 
0.433
 21 
1.101
 0 
LINE
 8 
0
 62 
 7 
 10 
0.446
 20 
1.12
 11 
0.446
 21 
1.082
 0 
LINE
 8 
0
 62 
 7 
 10 
0.446
 20 
1.095
 11 
0.459
 21 
1.107
 0 
LINE
 8 
0
 62 
 7 
 10 
0.459
 20 
1.107
 11 
0.465
 21 
1.107
 0 
LINE
 8 
0
 62 
 7 
 10 
0.465
 20 
1.107
 11 
0.471
 21 
1.101
 0 
LINE
 8 
0
 62 
 7 
 10 
0.471
 20 
1.101
 11 
0.471
 21 
1.088
 0 
LINE
 8 
0
 62 
 7 
 10 
0.471
 20 
1.088
 11 
0.465
 21 
1.082
 0 
LINE
 8 
0
 62 
 7 
 10 
0.465
 20 
1.082
 11 
0.452
 21 
1.082
 0 
LINE
 8 
0
 62 
 7 
 10 
0.452
 20 
1.082
 11 
0.446
 21 
1.088
 0 
LINE
 8 
0
 62 
 7 
 10 
0.484
 20 
1.12
 11 
0.484
 21 
1.082
 0 
LINE
 8 
0
 62 
 7 
 10 
0.484
 20 
1.095
 11 
0.497
 21 
1.107
 0 
LINE
 8 
0
 62 
 7 
 10 
0.497
 20 
1.107
 11 
0.503
 21 
1.107
 0 
LINE
 8 
0
 62 
 7 
 10 
0.503
 20 
1.107
 11 
0.509
 21 
1.101
 0 
LINE
 8 
0
 62 
 7 
 10 
0.509
 20 
1.101
 11 
0.509
 21 
1.088
 0 
LINE
 8 
0
 62 
 7 
 10 
0.509
 20 
1.088
 11 
0.503
 21 
1.082
 0 
LINE
 8 
0
 62 
 7 
 10 
0.503
 20 
1.082
 11 
0.49
 21 
1.082
 0 
LINE
 8 
0
 62 
 7 
 10 
0.49
 20 
1.082
 11 
0.484
 21 
1.088
 0 
LINE
 8 
0
 62 
 7 
 10 
0.522
 20 
1.107
 11 
0.522
 21 
1.088
 0 
LINE
 8 
0
 62 
 7 
 10 
0.522
 20 
1.088
 11 
0.528
 21 
1.082
 0 
LINE
 8 
0
 62 
 7 
 10 
0.528
 20 
1.082
 11 
0.535
 21 
1.082
 0 
LINE
 8 
0
 62 
 7 
 10 
0.535
 20 
1.082
 11 
0.547
 21 
1.095
 0 
LINE
 8 
0
 62 
 7 
 10 
0.547
 20 
1.107
 11 
0.547
 21 
1.076
 0 
LINE
 8 
0
 62 
 7 
 10 
0.547
 20 
1.076
 11 
0.541
 21 
1.069
 0 
LINE
 8 
0
 62 
 7 
 10 
0.541
 20 
1.069
 11 
0.522
 21 
1.069
 0 
LINE
 8 
0
 62 
 7 
 10 
0.56
 20 
1.12
 11 
0.56
 21 
1.082
 0 
LINE
 8 
0
 62 
 7 
 10 
0.56
 20 
1.095
 11 
0.573
 21 
1.107
 0 
LINE
 8 
0
 62 
 7 
 10 
0.573
 20 
1.107
 11 
0.579
 21 
1.107
 0 
LINE
 8 
0
 62 
 7 
 10 
0.579
 20 
1.107
 11 
0.585
 21 
1.101
 0 
LINE
 8 
0
 62 
 7 
 10 
0.585
 20 
1.101
 11 
0.585
 21 
1.088
 0 
LINE
 8 
0
 62 
 7 
 10 
0.585
 20 
1.088
 11 
0.579
 21 
1.082
 0 
LINE
 8 
0
 62 
 7 
 10 
0.579
 20 
1.082
 11 
0.566
 21 
1.082
 0 
LINE
 8 
0
 62 
 7 
 10 
0.566
 20 
1.082
 11 
0.56
 21 
1.088
 0 
LINE
 8 
0
 62 
 7 
 10 
0.623
 20 
1.101
 11 
0.617
 21 
1.107
 0 
LINE
 8 
0
 62 
 7 
 10 
0.617
 20 
1.107
 11 
0.604
 21 
1.107
 0 
LINE
 8 
0
 62 
 7 
 10 
0.604
 20 
1.107
 11 
0.598
 21 
1.101
 0 
LINE
 8 
0
 62 
 7 
 10 
0.598
 20 
1.101
 11 
0.598
 21 
1.088
 0 
LINE
 8 
0
 62 
 7 
 10 
0.598
 20 
1.088
 11 
0.604
 21 
1.082
 0 
LINE
 8 
0
 62 
 7 
 10 
0.604
 20 
1.082
 11 
0.617
 21 
1.082
 0 
LINE
 8 
0
 62 
 7 
 10 
0.617
 20 
1.082
 11 
0.623
 21 
1.088
 0 
LINE
 8 
0
 62 
 7 
 10 
0.623
 20 
1.088
 11 
0.623
 21 
1.101
 0 
LINE
 8 
0
 62 
 7 
 10 
0.642
 20 
1.12
 11 
0.642
 21 
1.088
 0 
LINE
 8 
0
 62 
 7 
 10 
0.642
 20 
1.088
 11 
0.649
 21 
1.082
 0 
LINE
 8 
0
 62 
 7 
 10 
0.649
 20 
1.082
 11 
0.655
 21 
1.082
 0 
LINE
 8 
0
 62 
 7 
 10 
0.655
 20 
1.082
 11 
0.661
 21 
1.088
 0 
LINE
 8 
0
 62 
 7 
 10 
0.636
 20 
1.107
 11 
0.655
 21 
1.107
 0 
LINE
 8 
0
 62 
 7 
 10 
0.687
 20 
1.12
 11 
0.687
 21 
1.114
 0 
LINE
 8 
0
 62 
 7 
 10 
0.68
 20 
1.082
 11 
0.693
 21 
1.082
 0 
LINE
 8 
0
 62 
 7 
 10 
0.68
 20 
1.101
 11 
0.687
 21 
1.101
 0 
LINE
 8 
0
 62 
 7 
 10 
0.687
 20 
1.101
 11 
0.687
 21 
1.082
 0 
LINE
 8 
0
 62 
 7 
 10 
0.737
 20 
1.101
 11 
0.731
 21 
1.107
 0 
LINE
 8 
0
 62 
 7 
 10 
0.731
 20 
1.107
 11 
0.718
 21 
1.107
 0 
LINE
 8 
0
 62 
 7 
 10 
0.718
 20 
1.107
 11 
0.712
 21 
1.101
 0 
LINE
 8 
0
 62 
 7 
 10 
0.712
 20 
1.101
 11 
0.712
 21 
1.088
 0 
LINE
 8 
0
 62 
 7 
 10 
0.712
 20 
1.088
 11 
0.718
 21 
1.082
 0 
LINE
 8 
0
 62 
 7 
 10 
0.718
 20 
1.082
 11 
0.731
 21 
1.082
 0 
LINE
 8 
0
 62 
 7 
 10 
0.731
 20 
1.082
 11 
0.737
 21 
1.088
 0 
LINE
 8 
0
 62 
 7 
 10 
0.775
 20 
1.107
 11 
0.756
 21 
1.107
 0 
LINE
 8 
0
 62 
 7 
 10 
0.756
 20 
1.107
 11 
0.75
 21 
1.101
 0 
LINE
 8 
0
 62 
 7 
 10 
0.75
 20 
1.101
 11 
0.756
 21 
1.095
 0 
LINE
 8 
0
 62 
 7 
 10 
0.756
 20 
1.095
 11 
0.769
 21 
1.095
 0 
LINE
 8 
0
 62 
 7 
 10 
0.769
 20 
1.095
 11 
0.775
 21 
1.088
 0 
LINE
 8 
0
 62 
 7 
 10 
0.775
 20 
1.088
 11 
0.769
 21 
1.082
 0 
LINE
 8 
0
 62 
 7 
 10 
0.769
 20 
1.082
 11 
0.75
 21 
1.082
 0 
LINE
 8 
0
 62 
 7 
 10 
0.37
 20 
1.05
 11 
0.37
 21 
1.012
 0 
LINE
 8 
0
 62 
 7 
 10 
0.37
 20 
1.012
 11 
0.395
 21 
1.012
 0 
LINE
 8 
0
 62 
 7 
 10 
0.433
 20 
1.044
 11 
0.427
 21 
1.05
 0 
LINE
 8 
0
 62 
 7 
 10 
0.427
 20 
1.05
 11 
0.414
 21 
1.05
 0 
LINE
 8 
0
 62 
 7 
 10 
0.414
 20 
1.05
 11 
0.408
 21 
1.044
 0 
LINE
 8 
0
 62 
 7 
 10 
0.408
 20 
1.044
 11 
0.408
 21 
1.018
 0 
LINE
 8 
0
 62 
 7 
 10 
0.408
 20 
1.018
 11 
0.414
 21 
1.012
 0 
LINE
 8 
0
 62 
 7 
 10 
0.414
 20 
1.012
 11 
0.427
 21 
1.012
 0 
LINE
 8 
0
 62 
 7 
 10 
0.427
 20 
1.012
 11 
0.433
 21 
1.018
 0 
LINE
 8 
0
 62 
 7 
 10 
0.446
 20 
1.05
 11 
0.465
 21 
1.05
 0 
LINE
 8 
0
 62 
 7 
 10 
0.465
 20 
1.05
 11 
0.471
 21 
1.044
 0 
LINE
 8 
0
 62 
 7 
 10 
0.471
 20 
1.044
 11 
0.471
 21 
1.018
 0 
LINE
 8 
0
 62 
 7 
 10 
0.471
 20 
1.018
 11 
0.465
 21 
1.012
 0 
LINE
 8 
0
 62 
 7 
 10 
0.465
 20 
1.012
 11 
0.446
 21 
1.012
 0 
LINE
 8 
0
 62 
 7 
 10 
0.452
 20 
1.05
 11 
0.452
 21 
1.012
 0 
LINE
 8 
0
 62 
 7 
 10 
0.522
 20 
1.05
 11 
0.541
 21 
1.05
 0 
LINE
 8 
0
 62 
 7 
 10 
0.541
 20 
1.05
 11 
0.547
 21 
1.044
 0 
LINE
 8 
0
 62 
 7 
 10 
0.547
 20 
1.044
 11 
0.547
 21 
1.037
 0 
LINE
 8 
0
 62 
 7 
 10 
0.547
 20 
1.037
 11 
0.541
 21 
1.031
 0 
LINE
 8 
0
 62 
 7 
 10 
0.541
 20 
1.031
 11 
0.547
 21 
1.025
 0 
LINE
 8 
0
 62 
 7 
 10 
0.547
 20 
1.025
 11 
0.547
 21 
1.018
 0 
LINE
 8 
0
 62 
 7 
 10 
0.547
 20 
1.018
 11 
0.541
 21 
1.012
 0 
LINE
 8 
0
 62 
 7 
 10 
0.541
 20 
1.012
 11 
0.522
 21 
1.012
 0 
LINE
 8 
0
 62 
 7 
 10 
0.528
 20 
1.05
 11 
0.528
 21 
1.012
 0 
LINE
 8 
0
 62 
 7 
 10 
0.528
 20 
1.031
 11 
0.541
 21 
1.031
 0 
LINE
 8 
0
 62 
 7 
 10 
0.566
 20 
1.037
 11 
0.579
 21 
1.037
 0 
LINE
 8 
0
 62 
 7 
 10 
0.579
 20 
1.037
 11 
0.585
 21 
1.031
 0 
LINE
 8 
0
 62 
 7 
 10 
0.585
 20 
1.031
 11 
0.585
 21 
1.012
 0 
LINE
 8 
0
 62 
 7 
 10 
0.585
 20 
1.025
 11 
0.566
 21 
1.025
 0 
LINE
 8 
0
 62 
 7 
 10 
0.566
 20 
1.025
 11 
0.56
 21 
1.018
 0 
LINE
 8 
0
 62 
 7 
 10 
0.56
 20 
1.018
 11 
0.566
 21 
1.012
 0 
LINE
 8 
0
 62 
 7 
 10 
0.566
 20 
1.012
 11 
0.579
 21 
1.012
 0 
LINE
 8 
0
 62 
 7 
 10 
0.579
 20 
1.012
 11 
0.585
 21 
1.018
 0 
LINE
 8 
0
 62 
 7 
 10 
0.623
 20 
1.031
 11 
0.617
 21 
1.037
 0 
LINE
 8 
0
 62 
 7 
 10 
0.617
 20 
1.037
 11 
0.604
 21 
1.037
 0 
LINE
 8 
0
 62 
 7 
 10 
0.604
 20 
1.037
 11 
0.598
 21 
1.031
 0 
LINE
 8 
0
 62 
 7 
 10 
0.598
 20 
1.031
 11 
0.598
 21 
1.018
 0 
LINE
 8 
0
 62 
 7 
 10 
0.598
 20 
1.018
 11 
0.604
 21 
1.012
 0 
LINE
 8 
0
 62 
 7 
 10 
0.604
 20 
1.012
 11 
0.617
 21 
1.012
 0 
LINE
 8 
0
 62 
 7 
 10 
0.617
 20 
1.012
 11 
0.623
 21 
1.018
 0 
LINE
 8 
0
 62 
 7 
 10 
0.636
 20 
1.05
 11 
0.642
 21 
1.05
 0 
LINE
 8 
0
 62 
 7 
 10 
0.642
 20 
1.05
 11 
0.642
 21 
1.012
 0 
LINE
 8 
0
 62 
 7 
 10 
0.661
 20 
1.037
 11 
0.649
 21 
1.025
 0 
LINE
 8 
0
 62 
 7 
 10 
0.649
 20 
1.025
 11 
0.661
 21 
1.012
 0 
LINE
 8 
0
 62 
 7 
 10 
0.642
 20 
1.025
 11 
0.649
 21 
1.025
 0 
LINE
 8 
0
 62 
 7 
 10 
0.674
 20 
1.037
 11 
0.674
 21 
0.999
 0 
LINE
 8 
0
 62 
 7 
 10 
0.674
 20 
1.031
 11 
0.68
 21 
1.037
 0 
LINE
 8 
0
 62 
 7 
 10 
0.68
 20 
1.037
 11 
0.693
 21 
1.037
 0 
LINE
 8 
0
 62 
 7 
 10 
0.693
 20 
1.037
 11 
0.699
 21 
1.031
 0 
LINE
 8 
0
 62 
 7 
 10 
0.699
 20 
1.031
 11 
0.699
 21 
1.018
 0 
LINE
 8 
0
 62 
 7 
 10 
0.699
 20 
1.018
 11 
0.693
 21 
1.012
 0 
LINE
 8 
0
 62 
 7 
 10 
0.693
 20 
1.012
 11 
0.687
 21 
1.012
 0 
LINE
 8 
0
 62 
 7 
 10 
0.687
 20 
1.012
 11 
0.674
 21 
1.025
 0 
LINE
 8 
0
 62 
 7 
 10 
0.718
 20 
1.037
 11 
0.731
 21 
1.037
 0 
LINE
 8 
0
 62 
 7 
 10 
0.731
 20 
1.037
 11 
0.737
 21 
1.031
 0 
LINE
 8 
0
 62 
 7 
 10 
0.737
 20 
1.031
 11 
0.737
 21 
1.012
 0 
LINE
 8 
0
 62 
 7 
 10 
0.737
 20 
1.025
 11 
0.718
 21 
1.025
 0 
LINE
 8 
0
 62 
 7 
 10 
0.718
 20 
1.025
 11 
0.712
 21 
1.018
 0 
LINE
 8 
0
 62 
 7 
 10 
0.712
 20 
1.018
 11 
0.718
 21 
1.012
 0 
LINE
 8 
0
 62 
 7 
 10 
0.718
 20 
1.012
 11 
0.731
 21 
1.012
 0 
LINE
 8 
0
 62 
 7 
 10 
0.731
 20 
1.012
 11 
0.737
 21 
1.018
 0 
LINE
 8 
0
 62 
 7 
 10 
0.775
 20 
1.031
 11 
0.769
 21 
1.037
 0 
LINE
 8 
0
 62 
 7 
 10 
0.769
 20 
1.037
 11 
0.756
 21 
1.037
 0 
LINE
 8 
0
 62 
 7 
 10 
0.756
 20 
1.037
 11 
0.75
 21 
1.031
 0 
LINE
 8 
0
 62 
 7 
 10 
0.75
 20 
1.031
 11 
0.75
 21 
1.018
 0 
LINE
 8 
0
 62 
 7 
 10 
0.75
 20 
1.018
 11 
0.756
 21 
1.012
 0 
LINE
 8 
0
 62 
 7 
 10 
0.756
 20 
1.012
 11 
0.769
 21 
1.012
 0 
LINE
 8 
0
 62 
 7 
 10 
0.769
 20 
1.012
 11 
0.775
 21 
1.018
 0 
LINE
 8 
0
 62 
 7 
 10 
0.788
 20 
1.05
 11 
0.794
 21 
1.05
 0 
LINE
 8 
0
 62 
 7 
 10 
0.794
 20 
1.05
 11 
0.794
 21 
1.012
 0 
LINE
 8 
0
 62 
 7 
 10 
0.813
 20 
1.037
 11 
0.801
 21 
1.025
 0 
LINE
 8 
0
 62 
 7 
 10 
0.801
 20 
1.025
 11 
0.813
 21 
1.012
 0 
LINE
 8 
0
 62 
 7 
 10 
0.794
 20 
1.025
 11 
0.801
 21 
1.025
 0 
LINE
 8 
0
 62 
 7 
 10 
1.575
 20 
1.794
 11 
1.575
 21 
1.494
 0 
LINE
 8 
0
 62 
 7 
 10 
1.275
 20 
1.494
 11 
1.575
 21 
1.494
 0 
LINE
 8 
0
 62 
 7 
 10 
1.275
 20 
1.494
 11 
1.275
 21 
1.794
 0 
LINE
 8 
0
 62 
 7 
 10 
1.575
 20 
1.794
 11 
1.275
 21 
1.794
 0 
LINE
 8 
0
 62 
 7 
 10 
1.263
 20 
1.494
 11 
1.225
 21 
1.494
 0 
LINE
 8 
0
 62 
 7 
 10 
1.225
 20 
1.494
 11 
1.225
 21 
1.513
 0 
LINE
 8 
0
 62 
 7 
 10 
1.225
 20 
1.513
 11 
1.231
 21 
1.519
 0 
LINE
 8 
0
 62 
 7 
 10 
1.231
 20 
1.519
 11 
1.238
 21 
1.519
 0 
LINE
 8 
0
 62 
 7 
 10 
1.238
 20 
1.519
 11 
1.244
 21 
1.513
 0 
LINE
 8 
0
 62 
 7 
 10 
1.244
 20 
1.513
 11 
1.244
 21 
1.494
 0 
LINE
 8 
0
 62 
 7 
 10 
1.244
 20 
1.5
 11 
1.263
 21 
1.519
 0 
LINE
 8 
0
 62 
 7 
 10 
1.225
 20 
1.551
 11 
1.225
 21 
1.545
 0 
LINE
 8 
0
 62 
 7 
 10 
1.225
 20 
1.545
 11 
1.238
 21 
1.532
 0 
LINE
 8 
0
 62 
 7 
 10 
1.238
 20 
1.532
 11 
1.257
 21 
1.532
 0 
LINE
 8 
0
 62 
 7 
 10 
1.257
 20 
1.532
 11 
1.263
 21 
1.538
 0 
LINE
 8 
0
 62 
 7 
 10 
1.263
 20 
1.538
 11 
1.263
 21 
1.551
 0 
LINE
 8 
0
 62 
 7 
 10 
1.263
 20 
1.551
 11 
1.257
 21 
1.557
 0 
LINE
 8 
0
 62 
 7 
 10 
1.257
 20 
1.557
 11 
1.25
 21 
1.557
 0 
LINE
 8 
0
 62 
 7 
 10 
1.25
 20 
1.557
 11 
1.244
 21 
1.551
 0 
LINE
 8 
0
 62 
 7 
 10 
1.244
 20 
1.551
 11 
1.244
 21 
1.538
 0 
LINE
 8 
0
 62 
 7 
 10 
1.244
 20 
1.538
 11 
1.25
 21 
1.532
 0 
LINE
 8 
0
 62 
 7 
 10 
1.38
 20 
1.976
 11 
1.38
 21 
1.918
 0 
LINE
 8 
0
 62 
 7 
 10 
1.38
 20 
1.918
 11 
1.47
 21 
1.918
 0 
LINE
 8 
0
 62 
 7 
 10 
1.47
 20 
1.918
 11 
1.47
 21 
1.976
 0 
LINE
 8 
0
 62 
 7 
 10 
1.38
 20 
2.016
 11 
1.38
 21 
2.074
 0 
LINE
 8 
0
 62 
 7 
 10 
1.38
 20 
2.074
 11 
1.47
 21 
2.074
 0 
LINE
 8 
0
 62 
 7 
 10 
1.47
 20 
2.074
 11 
1.47
 21 
2.016
 0 
LINE
 8 
0
 62 
 7 
 10 
1.395
 20 
1.86
 11 
1.395
 21 
1.898
 0 
LINE
 8 
0
 62 
 7 
 10 
1.395
 20 
1.898
 11 
1.414
 21 
1.898
 0 
LINE
 8 
0
 62 
 7 
 10 
1.414
 20 
1.898
 11 
1.42
 21 
1.892
 0 
LINE
 8 
0
 62 
 7 
 10 
1.42
 20 
1.892
 11 
1.42
 21 
1.885
 0 
LINE
 8 
0
 62 
 7 
 10 
1.42
 20 
1.885
 11 
1.414
 21 
1.879
 0 
LINE
 8 
0
 62 
 7 
 10 
1.414
 20 
1.879
 11 
1.395
 21 
1.879
 0 
LINE
 8 
0
 62 
 7 
 10 
1.401
 20 
1.879
 11 
1.42
 21 
1.86
 0 
LINE
 8 
0
 62 
 7 
 10 
1.458
 20 
1.898
 11 
1.433
 21 
1.898
 0 
LINE
 8 
0
 62 
 7 
 10 
1.433
 20 
1.898
 11 
1.433
 21 
1.885
 0 
LINE
 8 
0
 62 
 7 
 10 
1.433
 20 
1.885
 11 
1.452
 21 
1.885
 0 
LINE
 8 
0
 62 
 7 
 10 
1.452
 20 
1.885
 11 
1.458
 21 
1.879
 0 
LINE
 8 
0
 62 
 7 
 10 
1.458
 20 
1.879
 11 
1.458
 21 
1.866
 0 
LINE
 8 
0
 62 
 7 
 10 
1.458
 20 
1.866
 11 
1.452
 21 
1.86
 0 
LINE
 8 
0
 62 
 7 
 10 
1.452
 20 
1.86
 11 
1.439
 21 
1.86
 0 
LINE
 8 
0
 62 
 7 
 10 
1.439
 20 
1.86
 11 
1.433
 21 
1.866
 0 
LINE
 8 
0
 62 
 7 
 10 
1.23
 20 
1.976
 11 
1.23
 21 
1.918
 0 
LINE
 8 
0
 62 
 7 
 10 
1.23
 20 
1.918
 11 
1.32
 21 
1.918
 0 
LINE
 8 
0
 62 
 7 
 10 
1.32
 20 
1.918
 11 
1.32
 21 
1.976
 0 
LINE
 8 
0
 62 
 7 
 10 
1.23
 20 
2.016
 11 
1.23
 21 
2.074
 0 
LINE
 8 
0
 62 
 7 
 10 
1.23
 20 
2.074
 11 
1.32
 21 
2.074
 0 
LINE
 8 
0
 62 
 7 
 10 
1.32
 20 
2.074
 11 
1.32
 21 
2.016
 0 
LINE
 8 
0
 62 
 7 
 10 
1.245
 20 
1.86
 11 
1.245
 21 
1.898
 0 
LINE
 8 
0
 62 
 7 
 10 
1.245
 20 
1.898
 11 
1.264
 21 
1.898
 0 
LINE
 8 
0
 62 
 7 
 10 
1.264
 20 
1.898
 11 
1.27
 21 
1.892
 0 
LINE
 8 
0
 62 
 7 
 10 
1.27
 20 
1.892
 11 
1.27
 21 
1.885
 0 
LINE
 8 
0
 62 
 7 
 10 
1.27
 20 
1.885
 11 
1.264
 21 
1.879
 0 
LINE
 8 
0
 62 
 7 
 10 
1.264
 20 
1.879
 11 
1.245
 21 
1.879
 0 
LINE
 8 
0
 62 
 7 
 10 
1.251
 20 
1.879
 11 
1.27
 21 
1.86
 0 
LINE
 8 
0
 62 
 7 
 10 
1.283
 20 
1.892
 11 
1.289
 21 
1.898
 0 
LINE
 8 
0
 62 
 7 
 10 
1.289
 20 
1.898
 11 
1.302
 21 
1.898
 0 
LINE
 8 
0
 62 
 7 
 10 
1.302
 20 
1.898
 11 
1.308
 21 
1.892
 0 
LINE
 8 
0
 62 
 7 
 10 
1.308
 20 
1.892
 11 
1.308
 21 
1.885
 0 
LINE
 8 
0
 62 
 7 
 10 
1.308
 20 
1.885
 11 
1.302
 21 
1.879
 0 
LINE
 8 
0
 62 
 7 
 10 
1.302
 20 
1.879
 11 
1.296
 21 
1.879
 0 
LINE
 8 
0
 62 
 7 
 10 
1.302
 20 
1.879
 11 
1.308
 21 
1.873
 0 
LINE
 8 
0
 62 
 7 
 10 
1.308
 20 
1.873
 11 
1.308
 21 
1.866
 0 
LINE
 8 
0
 62 
 7 
 10 
1.308
 20 
1.866
 11 
1.302
 21 
1.86
 0 
LINE
 8 
0
 62 
 7 
 10 
1.302
 20 
1.86
 11 
1.289
 21 
1.86
 0 
LINE
 8 
0
 62 
 7 
 10 
1.289
 20 
1.86
 11 
1.283
 21 
1.866
 0 
LINE
 8 
0
 62 
 7 
 10 
0.743
 20 
1.345
 11 
0.685
 21 
1.345
 0 
LINE
 8 
0
 62 
 7 
 10 
0.685
 20 
1.345
 11 
0.685
 21 
1.255
 0 
LINE
 8 
0
 62 
 7 
 10 
0.685
 20 
1.255
 11 
0.743
 21 
1.255
 0 
LINE
 8 
0
 62 
 7 
 10 
0.783
 20 
1.345
 11 
0.841
 21 
1.345
 0 
LINE
 8 
0
 62 
 7 
 10 
0.841
 20 
1.345
 11 
0.841
 21 
1.255
 0 
LINE
 8 
0
 62 
 7 
 10 
0.841
 20 
1.255
 11 
0.783
 21 
1.255
 0 
LINE
 8 
0
 62 
 7 
 10 
0.663
 20 
1.275
 11 
0.625
 21 
1.275
 0 
LINE
 8 
0
 62 
 7 
 10 
0.625
 20 
1.275
 11 
0.625
 21 
1.294
 0 
LINE
 8 
0
 62 
 7 
 10 
0.625
 20 
1.294
 11 
0.631
 21 
1.3
 0 
LINE
 8 
0
 62 
 7 
 10 
0.631
 20 
1.3
 11 
0.638
 21 
1.3
 0 
LINE
 8 
0
 62 
 7 
 10 
0.638
 20 
1.3
 11 
0.644
 21 
1.294
 0 
LINE
 8 
0
 62 
 7 
 10 
0.644
 20 
1.294
 11 
0.644
 21 
1.275
 0 
LINE
 8 
0
 62 
 7 
 10 
0.644
 20 
1.281
 11 
0.663
 21 
1.3
 0 
LINE
 8 
0
 62 
 7 
 10 
0.631
 20 
1.319
 11 
0.625
 21 
1.326
 0 
LINE
 8 
0
 62 
 7 
 10 
0.625
 20 
1.326
 11 
0.663
 21 
1.326
 0 
LINE
 8 
0
 62 
 7 
 10 
0.663
 20 
1.319
 11 
0.663
 21 
1.332
 0 
LINE
 8 
0
 62 
 7 
 10 
0.85
 20 
2.095
 11 
0.745
 21 
2.095
 0 
LINE
 8 
0
 62 
 7 
 10 
0.745
 20 
2.095
 11 
0.745
 21 
1.655
 0 
LINE
 8 
0
 62 
 7 
 10 
0.745
 20 
1.655
 11 
0.981
 21 
1.655
 0 
LINE
 8 
0
 62 
 7 
 10 
0.981
 20 
1.655
 11 
0.981
 21 
2.095
 0 
LINE
 8 
0
 62 
 7 
 10 
0.981
 20 
2.095
 11 
0.876
 21 
2.095
 0 
LINE
 8 
0
 62 
 7 
 10 
0.876
 20 
2.095
 11 
0.876
 21 
2.069
 0 
LINE
 8 
0
 62 
 7 
 10 
0.876
 20 
2.069
 11 
0.85
 21 
2.069
 0 
LINE
 8 
0
 62 
 7 
 10 
0.85
 20 
2.069
 11 
0.85
 21 
2.095
 0 
LINE
 8 
0
 62 
 7 
 10 
0.838
 20 
1.825
 11 
0.87
 21 
1.825
 0 
LINE
 8 
0
 62 
 7 
 10 
0.87
 20 
1.825
 11 
0.876
 21 
1.831
 0 
LINE
 8 
0
 62 
 7 
 10 
0.876
 20 
1.831
 11 
0.876
 21 
1.844
 0 
LINE
 8 
0
 62 
 7 
 10 
0.876
 20 
1.844
 11 
0.87
 21 
1.85
 0 
LINE
 8 
0
 62 
 7 
 10 
0.87
 20 
1.85
 11 
0.838
 21 
1.85
 0 
LINE
 8 
0
 62 
 7 
 10 
0.844
 20 
1.869
 11 
0.838
 21 
1.876
 0 
LINE
 8 
0
 62 
 7 
 10 
0.838
 20 
1.876
 11 
0.876
 21 
1.876
 0 
LINE
 8 
0
 62 
 7 
 10 
0.876
 20 
1.869
 11 
0.876
 21 
1.882
 0 
LINE
 8 
0
 62 
 7 
 10 
0.407
 20 
2.155
 11 
0.465
 21 
2.155
 0 
LINE
 8 
0
 62 
 7 
 10 
0.465
 20 
2.155
 11 
0.465
 21 
2.245
 0 
LINE
 8 
0
 62 
 7 
 10 
0.465
 20 
2.245
 11 
0.407
 21 
2.245
 0 
LINE
 8 
0
 62 
 7 
 10 
0.367
 20 
2.155
 11 
0.309
 21 
2.155
 0 
LINE
 8 
0
 62 
 7 
 10 
0.309
 20 
2.155
 11 
0.309
 21 
2.245
 0 
LINE
 8 
0
 62 
 7 
 10 
0.309
 20 
2.245
 11 
0.367
 21 
2.245
 0 
LINE
 8 
0
 62 
 7 
 10 
0.518
 20 
2.17
 11 
0.48
 21 
2.17
 0 
LINE
 8 
0
 62 
 7 
 10 
0.48
 20 
2.17
 11 
0.48
 21 
2.189
 0 
LINE
 8 
0
 62 
 7 
 10 
0.48
 20 
2.189
 11 
0.486
 21 
2.195
 0 
LINE
 8 
0
 62 
 7 
 10 
0.486
 20 
2.195
 11 
0.493
 21 
2.195
 0 
LINE
 8 
0
 62 
 7 
 10 
0.493
 20 
2.195
 11 
0.499
 21 
2.189
 0 
LINE
 8 
0
 62 
 7 
 10 
0.499
 20 
2.189
 11 
0.499
 21 
2.17
 0 
LINE
 8 
0
 62 
 7 
 10 
0.499
 20 
2.176
 11 
0.518
 21 
2.195
 0 
LINE
 8 
0
 62 
 7 
 10 
0.499
 20 
2.214
 11 
0.493
 21 
2.208
 0 
LINE
 8 
0
 62 
 7 
 10 
0.493
 20 
2.208
 11 
0.486
 21 
2.208
 0 
LINE
 8 
0
 62 
 7 
 10 
0.486
 20 
2.208
 11 
0.48
 21 
2.214
 0 
LINE
 8 
0
 62 
 7 
 10 
0.48
 20 
2.214
 11 
0.48
 21 
2.227
 0 
LINE
 8 
0
 62 
 7 
 10 
0.48
 20 
2.227
 11 
0.486
 21 
2.233
 0 
LINE
 8 
0
 62 
 7 
 10 
0.486
 20 
2.233
 11 
0.493
 21 
2.233
 0 
LINE
 8 
0
 62 
 7 
 10 
0.493
 20 
2.233
 11 
0.499
 21 
2.227
 0 
LINE
 8 
0
 62 
 7 
 10 
0.499
 20 
2.227
 11 
0.499
 21 
2.214
 0 
LINE
 8 
0
 62 
 7 
 10 
0.499
 20 
2.214
 11 
0.505
 21 
2.208
 0 
LINE
 8 
0
 62 
 7 
 10 
0.505
 20 
2.208
 11 
0.512
 21 
2.208
 0 
LINE
 8 
0
 62 
 7 
 10 
0.512
 20 
2.208
 11 
0.518
 21 
2.214
 0 
LINE
 8 
0
 62 
 7 
 10 
0.518
 20 
2.214
 11 
0.518
 21 
2.227
 0 
LINE
 8 
0
 62 
 7 
 10 
0.518
 20 
2.227
 11 
0.512
 21 
2.233
 0 
LINE
 8 
0
 62 
 7 
 10 
0.512
 20 
2.233
 11 
0.505
 21 
2.233
 0 
LINE
 8 
0
 62 
 7 
 10 
0.505
 20 
2.233
 11 
0.499
 21 
2.227
 0 
LINE
 8 
0
 62 
 7 
 10 
1.233
 20 
2.107
 11 
1.183
 21 
2.107
 0 
LINE
 8 
0
 62 
 7 
 10 
1.183
 20 
2.107
 11 
1.183
 21 
2.128
 0 
LINE
 8 
0
 62 
 7 
 10 
1.233
 20 
2.218
 11 
1.183
 21 
2.218
 0 
LINE
 8 
0
 62 
 7 
 10 
1.281
 20 
2.156
 11 
1.281
 21 
2.169
 0 
LINE
 8 
0
 62 
 7 
 10 
1.183
 20 
2.197
 11 
1.183
 21 
2.218
 0 
LINE
 8 
0
 62 
 7 
 10 
1.311
 20 
2.16
 11 
1.305
 21 
2.154
 0 
LINE
 8 
0
 62 
 7 
 10 
1.305
 20 
2.154
 11 
1.305
 21 
2.141
 0 
LINE
 8 
0
 62 
 7 
 10 
1.305
 20 
2.141
 11 
1.311
 21 
2.135
 0 
LINE
 8 
0
 62 
 7 
 10 
1.311
 20 
2.135
 11 
1.337
 21 
2.135
 0 
LINE
 8 
0
 62 
 7 
 10 
1.337
 20 
2.135
 11 
1.343
 21 
2.141
 0 
LINE
 8 
0
 62 
 7 
 10 
1.343
 20 
2.141
 11 
1.343
 21 
2.148
 0 
LINE
 8 
0
 62 
 7 
 10 
1.343
 20 
2.148
 11 
1.33
 21 
2.16
 0 
LINE
 8 
0
 62 
 7 
 10 
1.33
 20 
2.16
 11 
1.311
 21 
2.16
 0 
LINE
 8 
0
 62 
 7 
 10 
1.33
 20 
2.148
 11 
1.343
 21 
2.16
 0 
LINE
 8 
0
 62 
 7 
 10 
1.311
 20 
2.179
 11 
1.305
 21 
2.186
 0 
LINE
 8 
0
 62 
 7 
 10 
1.305
 20 
2.186
 11 
1.343
 21 
2.186
 0 
LINE
 8 
0
 62 
 7 
 10 
1.343
 20 
2.179
 11 
1.343
 21 
2.192
 0 
LINE
 8 
0
 62 
 7 
 10 
0.138
 20 
1.61
 11 
0.213
 21 
1.61
 0 
LINE
 8 
0
 62 
 7 
 10 
0.213
 20 
1.61
 11 
0.213
 21 
1.535
 0 
LINE
 8 
0
 62 
 7 
 10 
0.213
 20 
1.535
 11 
0.138
 21 
1.535
 0 
LINE
 8 
0
 62 
 7 
 10 
0.138
 20 
1.535
 11 
0.138
 21 
1.61
 0 
CIRCLE
 8 
0
 62 
 7 
 10 
0.175
 20 
1.572
 40 
0.02
 0 
CIRCLE
 8 
0
 62 
 7 
 10 
0.175
 20 
1.472
 40 
0.038
 0 
CIRCLE
 8 
0
 62 
 7 
 10 
0.175
 20 
1.472
 40 
0.02
 0 
CIRCLE
 8 
0
 62 
 7 
 10 
0.175
 20 
1.372
 40 
0.038
 0 
CIRCLE
 8 
0
 62 
 7 
 10 
0.175
 20 
1.372
 40 
0.02
 0 
LINE
 8 
0
 62 
 7 
 10 
0.225
 20 
1.322
 11 
0.225
 21 
1.622
 0 
LINE
 8 
0
 62 
 7 
 10 
0.125
 20 
1.622
 11 
0.225
 21 
1.622
 0 
LINE
 8 
0
 62 
 7 
 10 
0.125
 20 
1.322
 11 
0.225
 21 
1.322
 0 
LINE
 8 
0
 62 
 7 
 10 
0.125
 20 
1.322
 11 
0.125
 21 
1.622
 0 
LINE
 8 
0
 62 
 7 
 10 
0.235
 20 
1.568
 11 
0.235
 21 
1.587
 0 
LINE
 8 
0
 62 
 7 
 10 
0.235
 20 
1.587
 11 
0.267
 21 
1.587
 0 
LINE
 8 
0
 62 
 7 
 10 
0.267
 20 
1.587
 11 
0.273
 21 
1.581
 0 
LINE
 8 
0
 62 
 7 
 10 
0.273
 20 
1.581
 11 
0.273
 21 
1.568
 0 
LINE
 8 
0
 62 
 7 
 10 
0.273
 20 
1.568
 11 
0.267
 21 
1.562
 0 
LINE
 8 
0
 62 
 7 
 10 
0.241
 20 
1.6
 11 
0.235
 21 
1.606
 0 
LINE
 8 
0
 62 
 7 
 10 
0.235
 20 
1.606
 11 
0.235
 21 
1.619
 0 
LINE
 8 
0
 62 
 7 
 10 
0.235
 20 
1.619
 11 
0.241
 21 
1.625
 0 
LINE
 8 
0
 62 
 7 
 10 
0.241
 20 
1.625
 11 
0.248
 21 
1.625
 0 
LINE
 8 
0
 62 
 7 
 10 
0.248
 20 
1.625
 11 
0.254
 21 
1.619
 0 
LINE
 8 
0
 62 
 7 
 10 
0.254
 20 
1.619
 11 
0.254
 21 
1.606
 0 
LINE
 8 
0
 62 
 7 
 10 
0.254
 20 
1.606
 11 
0.26
 21 
1.6
 0 
LINE
 8 
0
 62 
 7 
 10 
0.26
 20 
1.6
 11 
0.273
 21 
1.6
 0 
LINE
 8 
0
 62 
 7 
 10 
0.273
 20 
1.6
 11 
0.273
 21 
1.625
 0 
LINE
 8 
0
 62 
 7 
 10 
0.83
 20 
1.58
 11 
0.869
 21 
1.58
 0 
LINE
 8 
0
 62 
 7 
 10 
0.869
 20 
1.58
 11 
0.869
 21 
1.419
 0 
LINE
 8 
0
 62 
 7 
 10 
0.869
 20 
1.419
 11 
0.83
 21 
1.419
 0 
LINE
 8 
0
 62 
 7 
 10 
0.83
 20 
1.419
 11 
0.83
 21 
1.58
 0 
LINE
 8 
0
 62 
 7 
 10 
0.78
 20 
1.58
 11 
0.808
 21 
1.58
 0 
LINE
 8 
0
 62 
 7 
 10 
0.808
 20 
1.58
 11 
0.808
 21 
1.419
 0 
LINE
 8 
0
 62 
 7 
 10 
0.808
 20 
1.419
 11 
0.78
 21 
1.419
 0 
LINE
 8 
0
 62 
 7 
 10 
0.78
 20 
1.419
 11 
0.78
 21 
1.58
 0 
LINE
 8 
0
 62 
 7 
 10 
0.891
 20 
1.58
 11 
0.919
 21 
1.58
 0 
LINE
 8 
0
 62 
 7 
 10 
0.919
 20 
1.58
 11 
0.919
 21 
1.419
 0 
LINE
 8 
0
 62 
 7 
 10 
0.919
 20 
1.419
 11 
0.891
 21 
1.419
 0 
LINE
 8 
0
 62 
 7 
 10 
0.891
 20 
1.419
 11 
0.891
 21 
1.58
 0 
LINE
 8 
0
 62 
 7 
 10 
0.766
 20 
1.6
 11 
0.934
 21 
1.6
 0 
LINE
 8 
0
 62 
 7 
 10 
0.934
 20 
1.4
 11 
0.934
 21 
1.6
 0 
LINE
 8 
0
 62 
 7 
 10 
0.934
 20 
1.396
 11 
0.766
 21 
1.396
 0 
LINE
 8 
0
 62 
 7 
 10 
0.766
 20 
1.396
 11 
0.766
 21 
1.6
 0 
LINE
 8 
0
 62 
 7 
 10 
0.715
 20 
1.465
 11 
0.721
 21 
1.465
 0 
LINE
 8 
0
 62 
 7 
 10 
0.721
 20 
1.465
 11 
0.734
 21 
1.478
 0 
LINE
 8 
0
 62 
 7 
 10 
0.734
 20 
1.478
 11 
0.721
 21 
1.49
 0 
LINE
 8 
0
 62 
 7 
 10 
0.721
 20 
1.49
 11 
0.715
 21 
1.49
 0 
LINE
 8 
0
 62 
 7 
 10 
0.753
 20 
1.478
 11 
0.734
 21 
1.478
 0 
LINE
 8 
0
 62 
 7 
 10 
0.721
 20 
1.509
 11 
0.715
 21 
1.516
 0 
LINE
 8 
0
 62 
 7 
 10 
0.715
 20 
1.516
 11 
0.753
 21 
1.516
 0 
LINE
 8 
0
 62 
 7 
 10 
0.753
 20 
1.509
 11 
0.753
 21 
1.522
 0 
LINE
 8 
0
 62 
 7 
 10 
0.31
 20 
1.529
 11 
0.54
 21 
1.529
 0 
LINE
 8 
0
 62 
 7 
 10 
0.54
 20 
1.649
 11 
0.54
 21 
1.529
 0 
LINE
 8 
0
 62 
 7 
 10 
0.555
 20 
1.554
 11 
0.555
 21 
1.573
 0 
LINE
 8 
0
 62 
 7 
 10 
0.555
 20 
1.573
 11 
0.561
 21 
1.579
 0 
LINE
 8 
0
 62 
 7 
 10 
0.561
 20 
1.579
 11 
0.587
 21 
1.579
 0 
LINE
 8 
0
 62 
 7 
 10 
0.587
 20 
1.579
 11 
0.593
 21 
1.573
 0 
LINE
 8 
0
 62 
 7 
 10 
0.593
 20 
1.573
 11 
0.593
 21 
1.554
 0 
LINE
 8 
0
 62 
 7 
 10 
0.555
 20 
1.56
 11 
0.593
 21 
1.56
 0 
LINE
 8 
0
 62 
 7 
 10 
0.561
 20 
1.598
 11 
0.555
 21 
1.605
 0 
LINE
 8 
0
 62 
 7 
 10 
0.555
 20 
1.605
 11 
0.593
 21 
1.605
 0 
LINE
 8 
0
 62 
 7 
 10 
0.593
 20 
1.598
 11 
0.593
 21 
1.611
 0 
LINE
 8 
0
 62 
 7 
 10 
0.998
 20 
1.03
 11 
0.96
 21 
1.03
 0 
LINE
 8 
0
 62 
 7 
 10 
0.96
 20 
1.03
 11 
0.96
 21 
1.049
 0 
LINE
 8 
0
 62 
 7 
 10 
0.96
 20 
1.049
 11 
0.966
 21 
1.055
 0 
LINE
 8 
0
 62 
 7 
 10 
0.966
 20 
1.055
 11 
0.973
 21 
1.055
 0 
LINE
 8 
0
 62 
 7 
 10 
0.973
 20 
1.055
 11 
0.979
 21 
1.049
 0 
LINE
 8 
0
 62 
 7 
 10 
0.979
 20 
1.049
 11 
0.979
 21 
1.03
 0 
LINE
 8 
0
 62 
 7 
 10 
0.966
 20 
1.093
 11 
0.96
 21 
1.087
 0 
LINE
 8 
0
 62 
 7 
 10 
0.96
 20 
1.087
 11 
0.96
 21 
1.074
 0 
LINE
 8 
0
 62 
 7 
 10 
0.96
 20 
1.074
 11 
0.966
 21 
1.068
 0 
LINE
 8 
0
 62 
 7 
 10 
0.966
 20 
1.068
 11 
0.992
 21 
1.068
 0 
LINE
 8 
0
 62 
 7 
 10 
0.992
 20 
1.068
 11 
0.998
 21 
1.074
 0 
LINE
 8 
0
 62 
 7 
 10 
0.998
 20 
1.074
 11 
0.998
 21 
1.093
 0 
LINE
 8 
0
 62 
 7 
 10 
0.998
 20 
1.093
 11 
0.985
 21 
1.093
 0 
LINE
 8 
0
 62 
 7 
 10 
0.985
 20 
1.093
 11 
0.985
 21 
1.087
 0 
LINE
 8 
0
 62 
 7 
 10 
0.998
 20 
1.106
 11 
0.96
 21 
1.106
 0 
LINE
 8 
0
 62 
 7 
 10 
0.96
 20 
1.106
 11 
0.973
 21 
1.119
 0 
LINE
 8 
0
 62 
 7 
 10 
0.973
 20 
1.119
 11 
0.979
 21 
1.119
 0 
LINE
 8 
0
 62 
 7 
 10 
0.973
 20 
1.119
 11 
0.96
 21 
1.131
 0 
LINE
 8 
0
 62 
 7 
 10 
0.96
 20 
1.131
 11 
0.998
 21 
1.131
 0 
LINE
 8 
0
 62 
 7 
 10 
1.098
 20 
1.03
 11 
1.06
 21 
1.03
 0 
LINE
 8 
0
 62 
 7 
 10 
1.06
 20 
1.03
 11 
1.06
 21 
1.049
 0 
LINE
 8 
0
 62 
 7 
 10 
1.06
 20 
1.049
 11 
1.066
 21 
1.055
 0 
LINE
 8 
0
 62 
 7 
 10 
1.066
 20 
1.055
 11 
1.073
 21 
1.055
 0 
LINE
 8 
0
 62 
 7 
 10 
1.073
 20 
1.055
 11 
1.079
 21 
1.049
 0 
LINE
 8 
0
 62 
 7 
 10 
1.079
 20 
1.049
 11 
1.079
 21 
1.03
 0 
LINE
 8 
0
 62 
 7 
 10 
1.066
 20 
1.093
 11 
1.06
 21 
1.087
 0 
LINE
 8 
0
 62 
 7 
 10 
1.06
 20 
1.087
 11 
1.06
 21 
1.074
 0 
LINE
 8 
0
 62 
 7 
 10 
1.06
 20 
1.074
 11 
1.066
 21 
1.068
 0 
LINE
 8 
0
 62 
 7 
 10 
1.066
 20 
1.068
 11 
1.092
 21 
1.068
 0 
LINE
 8 
0
 62 
 7 
 10 
1.092
 20 
1.068
 11 
1.098
 21 
1.074
 0 
LINE
 8 
0
 62 
 7 
 10 
1.098
 20 
1.074
 11 
1.098
 21 
1.093
 0 
LINE
 8 
0
 62 
 7 
 10 
1.098
 20 
1.093
 11 
1.085
 21 
1.093
 0 
LINE
 8 
0
 62 
 7 
 10 
1.085
 20 
1.093
 11 
1.085
 21 
1.087
 0 
LINE
 8 
0
 62 
 7 
 10 
1.066
 20 
1.131
 11 
1.06
 21 
1.125
 0 
LINE
 8 
0
 62 
 7 
 10 
1.06
 20 
1.125
 11 
1.06
 21 
1.112
 0 
LINE
 8 
0
 62 
 7 
 10 
1.06
 20 
1.112
 11 
1.066
 21 
1.106
 0 
LINE
 8 
0
 62 
 7 
 10 
1.066
 20 
1.106
 11 
1.092
 21 
1.106
 0 
LINE
 8 
0
 62 
 7 
 10 
1.092
 20 
1.106
 11 
1.098
 21 
1.112
 0 
LINE
 8 
0
 62 
 7 
 10 
1.098
 20 
1.112
 11 
1.098
 21 
1.125
 0 
LINE
 8 
0
 62 
 7 
 10 
1.098
 20 
1.125
 11 
1.092
 21 
1.131
 0 
LINE
 8 
0
 62 
 7 
 10 
1.198
 20 
1.03
 11 
1.16
 21 
1.03
 0 
LINE
 8 
0
 62 
 7 
 10 
1.16
 20 
1.03
 11 
1.16
 21 
1.049
 0 
LINE
 8 
0
 62 
 7 
 10 
1.16
 20 
1.049
 11 
1.166
 21 
1.055
 0 
LINE
 8 
0
 62 
 7 
 10 
1.166
 20 
1.055
 11 
1.173
 21 
1.055
 0 
LINE
 8 
0
 62 
 7 
 10 
1.173
 20 
1.055
 11 
1.179
 21 
1.049
 0 
LINE
 8 
0
 62 
 7 
 10 
1.179
 20 
1.049
 11 
1.179
 21 
1.03
 0 
LINE
 8 
0
 62 
 7 
 10 
1.166
 20 
1.093
 11 
1.16
 21 
1.087
 0 
LINE
 8 
0
 62 
 7 
 10 
1.16
 20 
1.087
 11 
1.16
 21 
1.074
 0 
LINE
 8 
0
 62 
 7 
 10 
1.16
 20 
1.074
 11 
1.166
 21 
1.068
 0 
LINE
 8 
0
 62 
 7 
 10 
1.166
 20 
1.068
 11 
1.192
 21 
1.068
 0 
LINE
 8 
0
 62 
 7 
 10 
1.192
 20 
1.068
 11 
1.198
 21 
1.074
 0 
LINE
 8 
0
 62 
 7 
 10 
1.198
 20 
1.074
 11 
1.198
 21 
1.093
 0 
LINE
 8 
0
 62 
 7 
 10 
1.198
 20 
1.093
 11 
1.185
 21 
1.093
 0 
LINE
 8 
0
 62 
 7 
 10 
1.185
 20 
1.093
 11 
1.185
 21 
1.087
 0 
LINE
 8 
0
 62 
 7 
 10 
1.16
 20 
1.106
 11 
1.16
 21 
1.125
 0 
LINE
 8 
0
 62 
 7 
 10 
1.16
 20 
1.125
 11 
1.166
 21 
1.131
 0 
LINE
 8 
0
 62 
 7 
 10 
1.166
 20 
1.131
 11 
1.192
 21 
1.131
 0 
LINE
 8 
0
 62 
 7 
 10 
1.192
 20 
1.131
 11 
1.198
 21 
1.125
 0 
LINE
 8 
0
 62 
 7 
 10 
1.198
 20 
1.125
 11 
1.198
 21 
1.106
 0 
LINE
 8 
0
 62 
 7 
 10 
1.16
 20 
1.112
 11 
1.198
 21 
1.112
 0 
LINE
 8 
0
 62 
 7 
 10 
1.266
 20 
1.055
 11 
1.26
 21 
1.049
 0 
LINE
 8 
0
 62 
 7 
 10 
1.26
 20 
1.049
 11 
1.26
 21 
1.036
 0 
LINE
 8 
0
 62 
 7 
 10 
1.26
 20 
1.036
 11 
1.266
 21 
1.03
 0 
LINE
 8 
0
 62 
 7 
 10 
1.266
 20 
1.03
 11 
1.292
 21 
1.03
 0 
LINE
 8 
0
 62 
 7 
 10 
1.292
 20 
1.03
 11 
1.298
 21 
1.036
 0 
LINE
 8 
0
 62 
 7 
 10 
1.298
 20 
1.036
 11 
1.298
 21 
1.055
 0 
LINE
 8 
0
 62 
 7 
 10 
1.298
 20 
1.055
 11 
1.285
 21 
1.055
 0 
LINE
 8 
0
 62 
 7 
 10 
1.285
 20 
1.055
 11 
1.285
 21 
1.049
 0 
LINE
 8 
0
 62 
 7 
 10 
1.298
 20 
1.068
 11 
1.26
 21 
1.068
 0 
LINE
 8 
0
 62 
 7 
 10 
1.26
 20 
1.068
 11 
1.285
 21 
1.093
 0 
LINE
 8 
0
 62 
 7 
 10 
1.26
 20 
1.093
 11 
1.298
 21 
1.093
 0 
LINE
 8 
0
 62 
 7 
 10 
1.26
 20 
1.106
 11 
1.26
 21 
1.125
 0 
LINE
 8 
0
 62 
 7 
 10 
1.26
 20 
1.125
 11 
1.266
 21 
1.131
 0 
LINE
 8 
0
 62 
 7 
 10 
1.266
 20 
1.131
 11 
1.292
 21 
1.131
 0 
LINE
 8 
0
 62 
 7 
 10 
1.292
 20 
1.131
 11 
1.298
 21 
1.125
 0 
LINE
 8 
0
 62 
 7 
 10 
1.298
 20 
1.125
 11 
1.298
 21 
1.106
 0 
LINE
 8 
0
 62 
 7 
 10 
1.26
 20 
1.112
 11 
1.298
 21 
1.112
 0 
LINE
 8 
0
 62 
 7 
 10 
1.36
 20 
1.03
 11 
1.379
 21 
1.03
 0 
LINE
 8 
0
 62 
 7 
 10 
1.379
 20 
1.03
 11 
1.392
 21 
1.043
 0 
LINE
 8 
0
 62 
 7 
 10 
1.392
 20 
1.043
 11 
1.379
 21 
1.055
 0 
LINE
 8 
0
 62 
 7 
 10 
1.379
 20 
1.055
 11 
1.36
 21 
1.055
 0 
LINE
 8 
0
 62 
 7 
 10 
1.392
 20 
1.043
 11 
1.398
 21 
1.043
 0 
LINE
 8 
0
 62 
 7 
 10 
1.36
 20 
1.068
 11 
1.36
 21 
1.087
 0 
LINE
 8 
0
 62 
 7 
 10 
1.36
 20 
1.087
 11 
1.366
 21 
1.093
 0 
LINE
 8 
0
 62 
 7 
 10 
1.366
 20 
1.093
 11 
1.392
 21 
1.093
 0 
LINE
 8 
0
 62 
 7 
 10 
1.392
 20 
1.093
 11 
1.398
 21 
1.087
 0 
LINE
 8 
0
 62 
 7 
 10 
1.398
 20 
1.087
 11 
1.398
 21 
1.068
 0 
LINE
 8 
0
 62 
 7 
 10 
1.36
 20 
1.074
 11 
1.398
 21 
1.074
 0 
LINE
 8 
0
 62 
 7 
 10 
1.36
 20 
1.106
 11 
1.36
 21 
1.125
 0 
LINE
 8 
0
 62 
 7 
 10 
1.36
 20 
1.125
 11 
1.366
 21 
1.131
 0 
LINE
 8 
0
 62 
 7 
 10 
1.366
 20 
1.131
 11 
1.392
 21 
1.131
 0 
LINE
 8 
0
 62 
 7 
 10 
1.392
 20 
1.131
 11 
1.398
 21 
1.125
 0 
LINE
 8 
0
 62 
 7 
 10 
1.398
 20 
1.125
 11 
1.398
 21 
1.106
 0 
LINE
 8 
0
 62 
 7 
 10 
1.36
 20 
1.112
 11 
1.398
 21 
1.112
 0 
LINE
 8 
0
 62 
 7 
 10 
1.498
 20 
0.991
 11 
1.46
 21 
0.991
 0 
LINE
 8 
0
 62 
 7 
 10 
1.46
 20 
0.991
 11 
1.473
 21 
1.004
 0 
LINE
 8 
0
 62 
 7 
 10 
1.473
 20 
1.004
 11 
1.479
 21 
1.004
 0 
LINE
 8 
0
 62 
 7 
 10 
1.473
 20 
1.004
 11 
1.46
 21 
1.016
 0 
LINE
 8 
0
 62 
 7 
 10 
1.46
 20 
1.016
 11 
1.498
 21 
1.016
 0 
LINE
 8 
0
 62 
 7 
 10 
1.466
 20 
1.054
 11 
1.46
 21 
1.048
 0 
LINE
 8 
0
 62 
 7 
 10 
1.46
 20 
1.048
 11 
1.46
 21 
1.035
 0 
LINE
 8 
0
 62 
 7 
 10 
1.46
 20 
1.035
 11 
1.466
 21 
1.029
 0 
LINE
 8 
0
 62 
 7 
 10 
1.466
 20 
1.029
 11 
1.492
 21 
1.029
 0 
LINE
 8 
0
 62 
 7 
 10 
1.492
 20 
1.029
 11 
1.498
 21 
1.035
 0 
LINE
 8 
0
 62 
 7 
 10 
1.498
 20 
1.035
 11 
1.498
 21 
1.048
 0 
LINE
 8 
0
 62 
 7 
 10 
1.498
 20 
1.048
 11 
1.492
 21 
1.054
 0 
LINE
 8 
0
 62 
 7 
 10 
1.46
 20 
1.067
 11 
1.498
 21 
1.067
 0 
LINE
 8 
0
 62 
 7 
 10 
1.498
 20 
1.067
 11 
1.498
 21 
1.092
 0 
LINE
 8 
0
 62 
 7 
 10 
1.498
 20 
1.105
 11 
1.46
 21 
1.105
 0 
LINE
 8 
0
 62 
 7 
 10 
1.46
 20 
1.105
 11 
1.46
 21 
1.124
 0 
LINE
 8 
0
 62 
 7 
 10 
1.46
 20 
1.124
 11 
1.466
 21 
1.13
 0 
LINE
 8 
0
 62 
 7 
 10 
1.466
 20 
1.13
 11 
1.473
 21 
1.13
 0 
LINE
 8 
0
 62 
 7 
 10 
1.473
 20 
1.13
 11 
1.479
 21 
1.124
 0 
LINE
 8 
0
 62 
 7 
 10 
1.479
 20 
1.124
 11 
1.479
 21 
1.105
 0 
LINE
 8 
0
 62 
 7 
 10 
1.479
 20 
1.111
 11 
1.498
 21 
1.13
 0 
LINE
 8 
0
 62 
 7 
 10 
0.025
 20 
2.475
 11 
1.625
 21 
2.475
 0 
LINE
 8 
0
 62 
 7 
 10 
1.625
 20 
2.475
 11 
1.625
 21 
0.975
 0 
LINE
 8 
0
 62 
 7 
 10 
1.625
 20 
0.975
 11 
0.025
 21 
0.975
 0 
LINE
 8 
0
 62 
 7 
 10 
0.025
 20 
0.975
 11 
0.025
 21 
2.475
 0 
LINE
 8 
0
 62 
 7 
 10 
0.045
 20 
1.557
 11 
0.045
 21 
1.595
 0 
LINE
 8 
0
 62 
 7 
 10 
0.045
 20 
1.595
 11 
0.058
 21 
1.582
 0 
LINE
 8 
0
 62 
 7 
 10 
0.058
 20 
1.582
 11 
0.058
 21 
1.576
 0 
LINE
 8 
0
 62 
 7 
 10 
0.058
 20 
1.582
 11 
0.07
 21 
1.595
 0 
LINE
 8 
0
 62 
 7 
 10 
0.07
 20 
1.595
 11 
0.07
 21 
1.557
 0 
LINE
 8 
0
 62 
 7 
 10 
0.108
 20 
1.589
 11 
0.102
 21 
1.595
 0 
LINE
 8 
0
 62 
 7 
 10 
0.102
 20 
1.595
 11 
0.089
 21 
1.595
 0 
LINE
 8 
0
 62 
 7 
 10 
0.089
 20 
1.595
 11 
0.083
 21 
1.589
 0 
LINE
 8 
0
 62 
 7 
 10 
0.083
 20 
1.589
 11 
0.083
 21 
1.563
 0 
LINE
 8 
0
 62 
 7 
 10 
0.083
 20 
1.563
 11 
0.089
 21 
1.557
 0 
LINE
 8 
0
 62 
 7 
 10 
0.089
 20 
1.557
 11 
0.102
 21 
1.557
 0 
LINE
 8 
0
 62 
 7 
 10 
0.102
 20 
1.557
 11 
0.108
 21 
1.563
 0 
LINE
 8 
0
 62 
 7 
 10 
0.045
 20 
1.357
 11 
0.045
 21 
1.395
 0 
LINE
 8 
0
 62 
 7 
 10 
0.045
 20 
1.395
 11 
0.064
 21 
1.395
 0 
LINE
 8 
0
 62 
 7 
 10 
0.064
 20 
1.395
 11 
0.07
 21 
1.389
 0 
LINE
 8 
0
 62 
 7 
 10 
0.07
 20 
1.389
 11 
0.07
 21 
1.382
 0 
LINE
 8 
0
 62 
 7 
 10 
0.07
 20 
1.382
 11 
0.064
 21 
1.376
 0 
LINE
 8 
0
 62 
 7 
 10 
0.064
 20 
1.376
 11 
0.045
 21 
1.376
 0 
LINE
 8 
0
 62 
 7 
 10 
0.108
 20 
1.389
 11 
0.102
 21 
1.395
 0 
LINE
 8 
0
 62 
 7 
 10 
0.102
 20 
1.395
 11 
0.089
 21 
1.395
 0 
LINE
 8 
0
 62 
 7 
 10 
0.089
 20 
1.395
 11 
0.083
 21 
1.389
 0 
LINE
 8 
0
 62 
 7 
 10 
0.083
 20 
1.389
 11 
0.083
 21 
1.363
 0 
LINE
 8 
0
 62 
 7 
 10 
0.083
 20 
1.363
 11 
0.089
 21 
1.357
 0 
LINE
 8 
0
 62 
 7 
 10 
0.089
 20 
1.357
 11 
0.102
 21 
1.357
 0 
LINE
 8 
0
 62 
 7 
 10 
0.102
 20 
1.357
 11 
0.108
 21 
1.363
 0 
LINE
 8 
0
 62 
 7 
 10 
0.045
 20 
1.057
 11 
0.045
 21 
1.095
 0 
LINE
 8 
0
 62 
 7 
 10 
0.045
 20 
1.095
 11 
0.058
 21 
1.082
 0 
LINE
 8 
0
 62 
 7 
 10 
0.058
 20 
1.082
 11 
0.058
 21 
1.076
 0 
LINE
 8 
0
 62 
 7 
 10 
0.058
 20 
1.082
 11 
0.07
 21 
1.095
 0 
LINE
 8 
0
 62 
 7 
 10 
0.07
 20 
1.095
 11 
0.07
 21 
1.057
 0 
LINE
 8 
0
 62 
 7 
 10 
0.108
 20 
1.089
 11 
0.102
 21 
1.095
 0 
LINE
 8 
0
 62 
 7 
 10 
0.102
 20 
1.095
 11 
0.089
 21 
1.095
 0 
LINE
 8 
0
 62 
 7 
 10 
0.089
 20 
1.095
 11 
0.083
 21 
1.089
 0 
LINE
 8 
0
 62 
 7 
 10 
0.083
 20 
1.089
 11 
0.083
 21 
1.063
 0 
LINE
 8 
0
 62 
 7 
 10 
0.083
 20 
1.063
 11 
0.089
 21 
1.057
 0 
LINE
 8 
0
 62 
 7 
 10 
0.089
 20 
1.057
 11 
0.102
 21 
1.057
 0 
LINE
 8 
0
 62 
 7 
 10 
0.102
 20 
1.057
 11 
0.108
 21 
1.063
 0 
LINE
 8 
0
 62 
 7 
 10 
0.045
 20 
1.257
 11 
0.045
 21 
1.295
 0 
LINE
 8 
0
 62 
 7 
 10 
0.045
 20 
1.295
 11 
0.064
 21 
1.295
 0 
LINE
 8 
0
 62 
 7 
 10 
0.064
 20 
1.295
 11 
0.07
 21 
1.289
 0 
LINE
 8 
0
 62 
 7 
 10 
0.07
 20 
1.289
 11 
0.07
 21 
1.282
 0 
LINE
 8 
0
 62 
 7 
 10 
0.07
 20 
1.282
 11 
0.064
 21 
1.276
 0 
LINE
 8 
0
 62 
 7 
 10 
0.064
 20 
1.276
 11 
0.045
 21 
1.276
 0 
LINE
 8 
0
 62 
 7 
 10 
0.108
 20 
1.289
 11 
0.102
 21 
1.295
 0 
LINE
 8 
0
 62 
 7 
 10 
0.102
 20 
1.295
 11 
0.089
 21 
1.295
 0 
LINE
 8 
0
 62 
 7 
 10 
0.089
 20 
1.295
 11 
0.083
 21 
1.289
 0 
LINE
 8 
0
 62 
 7 
 10 
0.083
 20 
1.289
 11 
0.083
 21 
1.263
 0 
LINE
 8 
0
 62 
 7 
 10 
0.083
 20 
1.263
 11 
0.089
 21 
1.257
 0 
LINE
 8 
0
 62 
 7 
 10 
0.089
 20 
1.257
 11 
0.102
 21 
1.257
 0 
LINE
 8 
0
 62 
 7 
 10 
0.102
 20 
1.257
 11 
0.108
 21 
1.263
 0 
LINE
 8 
0
 62 
 7 
 10 
0.14
 20 
1.984
 11 
0.14
 21 
2.022
 0 
LINE
 8 
0
 62 
 7 
 10 
0.14
 20 
2.022
 11 
0.159
 21 
2.022
 0 
LINE
 8 
0
 62 
 7 
 10 
0.159
 20 
2.022
 11 
0.165
 21 
2.016
 0 
LINE
 8 
0
 62 
 7 
 10 
0.165
 20 
2.016
 11 
0.165
 21 
2.009
 0 
LINE
 8 
0
 62 
 7 
 10 
0.165
 20 
2.009
 11 
0.159
 21 
2.003
 0 
LINE
 8 
0
 62 
 7 
 10 
0.159
 20 
2.003
 11 
0.14
 21 
2.003
 0 
LINE
 8 
0
 62 
 7 
 10 
0.146
 20 
2.003
 11 
0.165
 21 
1.984
 0 
LINE
 8 
0
 62 
 7 
 10 
0.178
 20 
2.022
 11 
0.178
 21 
2.016
 0 
LINE
 8 
0
 62 
 7 
 10 
0.178
 20 
2.016
 11 
0.203
 21 
1.99
 0 
LINE
 8 
0
 62 
 7 
 10 
0.203
 20 
1.99
 11 
0.203
 21 
1.984
 0 
LINE
 8 
0
 62 
 7 
 10 
0.203
 20 
2.022
 11 
0.203
 21 
2.016
 0 
LINE
 8 
0
 62 
 7 
 10 
0.203
 20 
2.016
 11 
0.178
 21 
1.99
 0 
LINE
 8 
0
 62 
 7 
 10 
0.178
 20 
1.99
 11 
0.178
 21 
1.984
 0 
LINE
 8 
0
 62 
 7 
 10 
0.222
 20 
2.022
 11 
0.235
 21 
2.022
 0 
LINE
 8 
0
 62 
 7 
 10 
0.222
 20 
1.984
 11 
0.235
 21 
1.984
 0 
LINE
 8 
0
 62 
 7 
 10 
0.229
 20 
2.022
 11 
0.229
 21 
1.984
 0 
LINE
 8 
0
 62 
 7 
 10 
0.14
 20 
2.122
 11 
0.14
 21 
2.103
 0 
LINE
 8 
0
 62 
 7 
 10 
0.14
 20 
2.103
 11 
0.153
 21 
2.09
 0 
LINE
 8 
0
 62 
 7 
 10 
0.153
 20 
2.09
 11 
0.165
 21 
2.103
 0 
LINE
 8 
0
 62 
 7 
 10 
0.165
 20 
2.103
 11 
0.165
 21 
2.122
 0 
LINE
 8 
0
 62 
 7 
 10 
0.153
 20 
2.09
 11 
0.153
 21 
2.084
 0 
LINE
 8 
0
 62 
 7 
 10 
0.203
 20 
2.116
 11 
0.197
 21 
2.122
 0 
LINE
 8 
0
 62 
 7 
 10 
0.197
 20 
2.122
 11 
0.184
 21 
2.122
 0 
LINE
 8 
0
 62 
 7 
 10 
0.184
 20 
2.122
 11 
0.178
 21 
2.116
 0 
LINE
 8 
0
 62 
 7 
 10 
0.178
 20 
2.116
 11 
0.178
 21 
2.09
 0 
LINE
 8 
0
 62 
 7 
 10 
0.178
 20 
2.09
 11 
0.184
 21 
2.084
 0 
LINE
 8 
0
 62 
 7 
 10 
0.184
 20 
2.084
 11 
0.197
 21 
2.084
 0 
LINE
 8 
0
 62 
 7 
 10 
0.197
 20 
2.084
 11 
0.203
 21 
2.09
 0 
LINE
 8 
0
 62 
 7 
 10 
0.241
 20 
2.116
 11 
0.235
 21 
2.122
 0 
LINE
 8 
0
 62 
 7 
 10 
0.235
 20 
2.122
 11 
0.222
 21 
2.122
 0 
LINE
 8 
0
 62 
 7 
 10 
0.222
 20 
2.122
 11 
0.216
 21 
2.116
 0 
LINE
 8 
0
 62 
 7 
 10 
0.216
 20 
2.116
 11 
0.216
 21 
2.09
 0 
LINE
 8 
0
 62 
 7 
 10 
0.216
 20 
2.09
 11 
0.222
 21 
2.084
 0 
LINE
 8 
0
 62 
 7 
 10 
0.222
 20 
2.084
 11 
0.235
 21 
2.084
 0 
LINE
 8 
0
 62 
 7 
 10 
0.235
 20 
2.084
 11 
0.241
 21 
2.09
 0 
LINE
 8 
0
 62 
 7 
 10 
0.165
 20 
2.216
 11 
0.159
 21 
2.222
 0 
LINE
 8 
0
 62 
 7 
 10 
0.159
 20 
2.222
 11 
0.146
 21 
2.222
 0 
LINE
 8 
0
 62 
 7 
 10 
0.146
 20 
2.222
 11 
0.14
 21 
2.216
 0 
LINE
 8 
0
 62 
 7 
 10 
0.14
 20 
2.216
 11 
0.14
 21 
2.19
 0 
LINE
 8 
0
 62 
 7 
 10 
0.14
 20 
2.19
 11 
0.146
 21 
2.184
 0 
LINE
 8 
0
 62 
 7 
 10 
0.146
 20 
2.184
 11 
0.165
 21 
2.184
 0 
LINE
 8 
0
 62 
 7 
 10 
0.165
 20 
2.184
 11 
0.165
 21 
2.197
 0 
LINE
 8 
0
 62 
 7 
 10 
0.165
 20 
2.197
 11 
0.159
 21 
2.197
 0 
LINE
 8 
0
 62 
 7 
 10 
0.178
 20 
2.184
 11 
0.178
 21 
2.222
 0 
LINE
 8 
0
 62 
 7 
 10 
0.178
 20 
2.222
 11 
0.203
 21 
2.197
 0 
LINE
 8 
0
 62 
 7 
 10 
0.203
 20 
2.222
 11 
0.203
 21 
2.184
 0 
LINE
 8 
0
 62 
 7 
 10 
0.216
 20 
2.222
 11 
0.235
 21 
2.222
 0 
LINE
 8 
0
 62 
 7 
 10 
0.235
 20 
2.222
 11 
0.241
 21 
2.216
 0 
LINE
 8 
0
 62 
 7 
 10 
0.241
 20 
2.216
 11 
0.241
 21 
2.19
 0 
LINE
 8 
0
 62 
 7 
 10 
0.241
 20 
2.19
 11 
0.235
 21 
2.184
 0 
LINE
 8 
0
 62 
 7 
 10 
0.235
 20 
2.184
 11 
0.216
 21 
2.184
 0 
LINE
 8 
0
 62 
 7 
 10 
0.222
 20 
2.222
 11 
0.222
 21 
2.184
 0 
LINE
 8 
0
 62 
 7 
 10 
0.038
 20 
2.04
 11 
0.113
 21 
2.04
 0 
LINE
 8 
0
 62 
 7 
 10 
0.113
 20 
2.04
 11 
0.113
 21 
1.965
 0 
LINE
 8 
0
 62 
 7 
 10 
0.113
 20 
1.965
 11 
0.038
 21 
1.965
 0 
LINE
 8 
0
 62 
 7 
 10 
0.038
 20 
1.965
 11 
0.038
 21 
2.04
 0 
CIRCLE
 8 
0
 62 
 7 
 10 
0.075
 20 
2.002
 40 
0.02
 0 
CIRCLE
 8 
0
 62 
 7 
 10 
0.075
 20 
2.102
 40 
0.038
 0 
CIRCLE
 8 
0
 62 
 7 
 10 
0.075
 20 
2.102
 40 
0.02
 0 
CIRCLE
 8 
0
 62 
 7 
 10 
0.075
 20 
2.202
 40 
0.038
 0 
CIRCLE
 8 
0
 62 
 7 
 10 
0.075
 20 
2.202
 40 
0.02
 0 
LINE
 8 
0
 62 
 7 
 10 
0.025
 20 
2.252
 11 
0.025
 21 
1.952
 0 
LINE
 8 
0
 62 
 7 
 10 
0.125
 20 
1.952
 11 
0.025
 21 
1.952
 0 
LINE
 8 
0
 62 
 7 
 10 
0.125
 20 
2.252
 11 
0.025
 21 
2.252
 0 
LINE
 8 
0
 62 
 7 
 10 
0.125
 20 
2.252
 11 
0.125
 21 
1.952
 0 
LINE
 8 
0
 62 
 7 
 10 
0.056
 20 
1.932
 11 
0.075
 21 
1.932
 0 
LINE
 8 
0
 62 
 7 
 10 
0.075
 20 
1.932
 11 
0.075
 21 
1.9
 0 
LINE
 8 
0
 62 
 7 
 10 
0.075
 20 
1.9
 11 
0.069
 21 
1.894
 0 
LINE
 8 
0
 62 
 7 
 10 
0.069
 20 
1.894
 11 
0.056
 21 
1.894
 0 
LINE
 8 
0
 62 
 7 
 10 
0.056
 20 
1.894
 11 
0.05
 21 
1.9
 0 
LINE
 8 
0
 62 
 7 
 10 
0.094
 20 
1.926
 11 
0.101
 21 
1.932
 0 
LINE
 8 
0
 62 
 7 
 10 
0.101
 20 
1.932
 11 
0.101
 21 
1.894
 0 
LINE
 8 
0
 62 
 7 
 10 
0.094
 20 
1.894
 11 
0.107
 21 
1.894
 0 
LINE
 8 
0
 62 
 7 
 10 
1.56
 20 
2.26
 11 
1.579
 21 
2.26
 0 
LINE
 8 
0
 62 
 7 
 10 
1.579
 20 
2.26
 11 
1.592
 21 
2.273
 0 
LINE
 8 
0
 62 
 7 
 10 
1.592
 20 
2.273
 11 
1.579
 21 
2.285
 0 
LINE
 8 
0
 62 
 7 
 10 
1.579
 20 
2.285
 11 
1.56
 21 
2.285
 0 
LINE
 8 
0
 62 
 7 
 10 
1.592
 20 
2.273
 11 
1.598
 21 
2.273
 0 
LINE
 8 
0
 62 
 7 
 10 
1.566
 20 
2.323
 11 
1.56
 21 
2.317
 0 
LINE
 8 
0
 62 
 7 
 10 
1.56
 20 
2.317
 11 
1.56
 21 
2.304
 0 
LINE
 8 
0
 62 
 7 
 10 
1.56
 20 
2.304
 11 
1.566
 21 
2.298
 0 
LINE
 8 
0
 62 
 7 
 10 
1.566
 20 
2.298
 11 
1.573
 21 
2.298
 0 
LINE
 8 
0
 62 
 7 
 10 
1.573
 20 
2.298
 11 
1.579
 21 
2.304
 0 
LINE
 8 
0
 62 
 7 
 10 
1.579
 20 
2.304
 11 
1.579
 21 
2.317
 0 
LINE
 8 
0
 62 
 7 
 10 
1.579
 20 
2.317
 11 
1.585
 21 
2.323
 0 
LINE
 8 
0
 62 
 7 
 10 
1.585
 20 
2.323
 11 
1.592
 21 
2.323
 0 
LINE
 8 
0
 62 
 7 
 10 
1.592
 20 
2.323
 11 
1.598
 21 
2.317
 0 
LINE
 8 
0
 62 
 7 
 10 
1.598
 20 
2.317
 11 
1.598
 21 
2.304
 0 
LINE
 8 
0
 62 
 7 
 10 
1.598
 20 
2.304
 11 
1.592
 21 
2.298
 0 
LINE
 8 
0
 62 
 7 
 10 
1.566
 20 
2.361
 11 
1.56
 21 
2.355
 0 
LINE
 8 
0
 62 
 7 
 10 
1.56
 20 
2.355
 11 
1.56
 21 
2.342
 0 
LINE
 8 
0
 62 
 7 
 10 
1.56
 20 
2.342
 11 
1.566
 21 
2.336
 0 
LINE
 8 
0
 62 
 7 
 10 
1.566
 20 
2.336
 11 
1.573
 21 
2.336
 0 
LINE
 8 
0
 62 
 7 
 10 
1.573
 20 
2.336
 11 
1.579
 21 
2.342
 0 
LINE
 8 
0
 62 
 7 
 10 
1.579
 20 
2.342
 11 
1.579
 21 
2.355
 0 
LINE
 8 
0
 62 
 7 
 10 
1.579
 20 
2.355
 11 
1.585
 21 
2.361
 0 
LINE
 8 
0
 62 
 7 
 10 
1.585
 20 
2.361
 11 
1.592
 21 
2.361
 0 
LINE
 8 
0
 62 
 7 
 10 
1.592
 20 
2.361
 11 
1.598
 21 
2.355
 0 
LINE
 8 
0
 62 
 7 
 10 
1.598
 20 
2.355
 11 
1.598
 21 
2.342
 0 
LINE
 8 
0
 62 
 7 
 10 
1.598
 20 
2.342
 11 
1.592
 21 
2.336
 0 
LINE
 8 
0
 62 
 7 
 10 
1.46
 20 
2.26
 11 
1.479
 21 
2.26
 0 
LINE
 8 
0
 62 
 7 
 10 
1.479
 20 
2.26
 11 
1.492
 21 
2.273
 0 
LINE
 8 
0
 62 
 7 
 10 
1.492
 20 
2.273
 11 
1.479
 21 
2.285
 0 
LINE
 8 
0
 62 
 7 
 10 
1.479
 20 
2.285
 11 
1.46
 21 
2.285
 0 
LINE
 8 
0
 62 
 7 
 10 
1.492
 20 
2.273
 11 
1.498
 21 
2.273
 0 
LINE
 8 
0
 62 
 7 
 10 
1.46
 20 
2.298
 11 
1.46
 21 
2.317
 0 
LINE
 8 
0
 62 
 7 
 10 
1.46
 20 
2.317
 11 
1.466
 21 
2.323
 0 
LINE
 8 
0
 62 
 7 
 10 
1.466
 20 
2.323
 11 
1.492
 21 
2.323
 0 
LINE
 8 
0
 62 
 7 
 10 
1.492
 20 
2.323
 11 
1.498
 21 
2.317
 0 
LINE
 8 
0
 62 
 7 
 10 
1.498
 20 
2.317
 11 
1.498
 21 
2.298
 0 
LINE
 8 
0
 62 
 7 
 10 
1.46
 20 
2.304
 11 
1.498
 21 
2.304
 0 
LINE
 8 
0
 62 
 7 
 10 
1.46
 20 
2.336
 11 
1.46
 21 
2.355
 0 
LINE
 8 
0
 62 
 7 
 10 
1.46
 20 
2.355
 11 
1.466
 21 
2.361
 0 
LINE
 8 
0
 62 
 7 
 10 
1.466
 20 
2.361
 11 
1.492
 21 
2.361
 0 
LINE
 8 
0
 62 
 7 
 10 
1.492
 20 
2.361
 11 
1.498
 21 
2.355
 0 
LINE
 8 
0
 62 
 7 
 10 
1.498
 20 
2.355
 11 
1.498
 21 
2.336
 0 
LINE
 8 
0
 62 
 7 
 10 
1.46
 20 
2.342
 11 
1.498
 21 
2.342
 0 
LINE
 8 
0
 62 
 7 
 10 
1.36
 20 
2.3
 11 
1.379
 21 
2.3
 0 
LINE
 8 
0
 62 
 7 
 10 
1.379
 20 
2.3
 11 
1.392
 21 
2.313
 0 
LINE
 8 
0
 62 
 7 
 10 
1.392
 20 
2.313
 11 
1.379
 21 
2.325
 0 
LINE
 8 
0
 62 
 7 
 10 
1.379
 20 
2.325
 11 
1.36
 21 
2.325
 0 
LINE
 8 
0
 62 
 7 
 10 
1.392
 20 
2.313
 11 
1.398
 21 
2.313
 0 
LINE
 8 
0
 62 
 7 
 10 
1.366
 20 
2.363
 11 
1.36
 21 
2.357
 0 
LINE
 8 
0
 62 
 7 
 10 
1.36
 20 
2.357
 11 
1.36
 21 
2.344
 0 
LINE
 8 
0
 62 
 7 
 10 
1.36
 20 
2.344
 11 
1.366
 21 
2.338
 0 
LINE
 8 
0
 62 
 7 
 10 
1.366
 20 
2.338
 11 
1.392
 21 
2.338
 0 
LINE
 8 
0
 62 
 7 
 10 
1.392
 20 
2.338
 11 
1.398
 21 
2.344
 0 
LINE
 8 
0
 62 
 7 
 10 
1.398
 20 
2.344
 11 
1.398
 21 
2.357
 0 
LINE
 8 
0
 62 
 7 
 10 
1.398
 20 
2.357
 11 
1.392
 21 
2.363
 0 
LINE
 8 
0
 62 
 7 
 10 
1.392
 20 
2.363
 11 
1.366
 21 
2.363
 0 
LINE
 8 
0
 62 
 7 
 10 
1.298
 20 
2.26
 11 
1.26
 21 
2.26
 0 
LINE
 8 
0
 62 
 7 
 10 
1.26
 20 
2.26
 11 
1.26
 21 
2.279
 0 
LINE
 8 
0
 62 
 7 
 10 
1.26
 20 
2.279
 11 
1.266
 21 
2.285
 0 
LINE
 8 
0
 62 
 7 
 10 
1.266
 20 
2.285
 11 
1.273
 21 
2.285
 0 
LINE
 8 
0
 62 
 7 
 10 
1.273
 20 
2.285
 11 
1.279
 21 
2.279
 0 
LINE
 8 
0
 62 
 7 
 10 
1.279
 20 
2.279
 11 
1.279
 21 
2.26
 0 
LINE
 8 
0
 62 
 7 
 10 
1.279
 20 
2.266
 11 
1.298
 21 
2.285
 0 
LINE
 8 
0
 62 
 7 
 10 
1.292
 20 
2.298
 11 
1.266
 21 
2.323
 0 
LINE
 8 
0
 62 
 7 
 10 
1.266
 20 
2.361
 11 
1.26
 21 
2.355
 0 
LINE
 8 
0
 62 
 7 
 10 
1.26
 20 
2.355
 11 
1.26
 21 
2.342
 0 
LINE
 8 
0
 62 
 7 
 10 
1.26
 20 
2.342
 11 
1.266
 21 
2.336
 0 
LINE
 8 
0
 62 
 7 
 10 
1.266
 20 
2.336
 11 
1.273
 21 
2.336
 0 
LINE
 8 
0
 62 
 7 
 10 
1.273
 20 
2.336
 11 
1.279
 21 
2.342
 0 
LINE
 8 
0
 62 
 7 
 10 
1.279
 20 
2.342
 11 
1.279
 21 
2.355
 0 
LINE
 8 
0
 62 
 7 
 10 
1.279
 20 
2.355
 11 
1.285
 21 
2.361
 0 
LINE
 8 
0
 62 
 7 
 10 
1.285
 20 
2.361
 11 
1.292
 21 
2.361
 0 
LINE
 8 
0
 62 
 7 
 10 
1.292
 20 
2.361
 11 
1.298
 21 
2.355
 0 
LINE
 8 
0
 62 
 7 
 10 
1.298
 20 
2.355
 11 
1.298
 21 
2.342
 0 
LINE
 8 
0
 62 
 7 
 10 
1.298
 20 
2.342
 11 
1.292
 21 
2.336
 0 
LINE
 8 
0
 62 
 7 
 10 
1.198
 20 
2.26
 11 
1.16
 21 
2.26
 0 
LINE
 8 
0
 62 
 7 
 10 
1.16
 20 
2.26
 11 
1.16
 21 
2.279
 0 
LINE
 8 
0
 62 
 7 
 10 
1.16
 20 
2.279
 11 
1.166
 21 
2.285
 0 
LINE
 8 
0
 62 
 7 
 10 
1.166
 20 
2.285
 11 
1.173
 21 
2.285
 0 
LINE
 8 
0
 62 
 7 
 10 
1.173
 20 
2.285
 11 
1.179
 21 
2.279
 0 
LINE
 8 
0
 62 
 7 
 10 
1.179
 20 
2.279
 11 
1.179
 21 
2.26
 0 
LINE
 8 
0
 62 
 7 
 10 
1.179
 20 
2.266
 11 
1.198
 21 
2.285
 0 
LINE
 8 
0
 62 
 7 
 10 
1.192
 20 
2.298
 11 
1.166
 21 
2.323
 0 
LINE
 8 
0
 62 
 7 
 10 
1.16
 20 
2.336
 11 
1.198
 21 
2.336
 0 
LINE
 8 
0
 62 
 7 
 10 
1.198
 20 
2.336
 11 
1.185
 21 
2.349
 0 
LINE
 8 
0
 62 
 7 
 10 
1.185
 20 
2.349
 11 
1.198
 21 
2.361
 0 
LINE
 8 
0
 62 
 7 
 10 
1.198
 20 
2.361
 11 
1.16
 21 
2.361
 0 
LINE
 8 
0
 62 
 7 
 10 
1.185
 20 
2.349
 11 
1.179
 21 
2.349
 0 
LINE
 8 
0
 62 
 7 
 10 
1.05
 20 
2.325
 11 
1.05
 21 
2.3
 0 
LINE
 8 
0
 62 
 7 
 10 
1.05
 20 
2.3
 11 
1.088
 21 
2.3
 0 
LINE
 8 
0
 62 
 7 
 10 
1.088
 20 
2.3
 11 
1.088
 21 
2.325
 0 
LINE
 8 
0
 62 
 7 
 10 
1.069
 20 
2.3
 11 
1.069
 21 
2.319
 0 
LINE
 8 
0
 62 
 7 
 10 
1.088
 20 
2.338
 11 
1.05
 21 
2.338
 0 
LINE
 8 
0
 62 
 7 
 10 
1.05
 20 
2.338
 11 
1.075
 21 
2.363
 0 
LINE
 8 
0
 62 
 7 
 10 
1.05
 20 
2.363
 11 
1.088
 21 
2.363
 0 
LINE
 8 
0
 62 
 7 
 10 
0.56
 20 
2.3
 11 
0.56
 21 
2.319
 0 
LINE
 8 
0
 62 
 7 
 10 
0.56
 20 
2.319
 11 
0.566
 21 
2.325
 0 
LINE
 8 
0
 62 
 7 
 10 
0.566
 20 
2.325
 11 
0.573
 21 
2.325
 0 
LINE
 8 
0
 62 
 7 
 10 
0.573
 20 
2.325
 11 
0.579
 21 
2.319
 0 
LINE
 8 
0
 62 
 7 
 10 
0.579
 20 
2.319
 11 
0.585
 21 
2.325
 0 
LINE
 8 
0
 62 
 7 
 10 
0.585
 20 
2.325
 11 
0.592
 21 
2.325
 0 
LINE
 8 
0
 62 
 7 
 10 
0.592
 20 
2.325
 11 
0.598
 21 
2.319
 0 
LINE
 8 
0
 62 
 7 
 10 
0.598
 20 
2.319
 11 
0.598
 21 
2.3
 0 
LINE
 8 
0
 62 
 7 
 10 
0.56
 20 
2.306
 11 
0.598
 21 
2.306
 0 
LINE
 8 
0
 62 
 7 
 10 
0.579
 20 
2.306
 11 
0.579
 21 
2.319
 0 
LINE
 8 
0
 62 
 7 
 10 
0.585
 20 
2.363
 11 
0.585
 21 
2.338
 0 
LINE
 8 
0
 62 
 7 
 10 
0.585
 20 
2.338
 11 
0.579
 21 
2.338
 0 
LINE
 8 
0
 62 
 7 
 10 
0.579
 20 
2.338
 11 
0.56
 21 
2.357
 0 
LINE
 8 
0
 62 
 7 
 10 
0.56
 20 
2.357
 11 
0.598
 21 
2.357
 0 
LINE
 8 
0
 62 
 7 
 10 
0.45
 20 
2.3
 11 
0.45
 21 
2.319
 0 
LINE
 8 
0
 62 
 7 
 10 
0.45
 20 
2.319
 11 
0.456
 21 
2.325
 0 
LINE
 8 
0
 62 
 7 
 10 
0.456
 20 
2.325
 11 
0.463
 21 
2.325
 0 
LINE
 8 
0
 62 
 7 
 10 
0.463
 20 
2.325
 11 
0.469
 21 
2.319
 0 
LINE
 8 
0
 62 
 7 
 10 
0.469
 20 
2.319
 11 
0.475
 21 
2.325
 0 
LINE
 8 
0
 62 
 7 
 10 
0.475
 20 
2.325
 11 
0.482
 21 
2.325
 0 
LINE
 8 
0
 62 
 7 
 10 
0.482
 20 
2.325
 11 
0.488
 21 
2.319
 0 
LINE
 8 
0
 62 
 7 
 10 
0.488
 20 
2.319
 11 
0.488
 21 
2.3
 0 
LINE
 8 
0
 62 
 7 
 10 
0.45
 20 
2.306
 11 
0.488
 21 
2.306
 0 
LINE
 8 
0
 62 
 7 
 10 
0.469
 20 
2.306
 11 
0.469
 21 
2.319
 0 
LINE
 8 
0
 62 
 7 
 10 
0.45
 20 
2.363
 11 
0.45
 21 
2.338
 0 
LINE
 8 
0
 62 
 7 
 10 
0.45
 20 
2.338
 11 
0.463
 21 
2.338
 0 
LINE
 8 
0
 62 
 7 
 10 
0.463
 20 
2.338
 11 
0.463
 21 
2.357
 0 
LINE
 8 
0
 62 
 7 
 10 
0.463
 20 
2.357
 11 
0.469
 21 
2.363
 0 
LINE
 8 
0
 62 
 7 
 10 
0.469
 20 
2.363
 11 
0.482
 21 
2.363
 0 
LINE
 8 
0
 62 
 7 
 10 
0.482
 20 
2.363
 11 
0.488
 21 
2.357
 0 
LINE
 8 
0
 62 
 7 
 10 
0.488
 20 
2.357
 11 
0.488
 21 
2.344
 0 
LINE
 8 
0
 62 
 7 
 10 
0.488
 20 
2.344
 11 
0.482
 21 
2.338
 0 
LINE
 8 
0
 62 
 7 
 10 
0.35
 20 
2.3
 11 
0.35
 21 
2.319
 0 
LINE
 8 
0
 62 
 7 
 10 
0.35
 20 
2.319
 11 
0.356
 21 
2.325
 0 
LINE
 8 
0
 62 
 7 
 10 
0.356
 20 
2.325
 11 
0.363
 21 
2.325
 0 
LINE
 8 
0
 62 
 7 
 10 
0.363
 20 
2.325
 11 
0.369
 21 
2.319
 0 
LINE
 8 
0
 62 
 7 
 10 
0.369
 20 
2.319
 11 
0.375
 21 
2.325
 0 
LINE
 8 
0
 62 
 7 
 10 
0.375
 20 
2.325
 11 
0.382
 21 
2.325
 0 
LINE
 8 
0
 62 
 7 
 10 
0.382
 20 
2.325
 11 
0.388
 21 
2.319
 0 
LINE
 8 
0
 62 
 7 
 10 
0.388
 20 
2.319
 11 
0.388
 21 
2.3
 0 
LINE
 8 
0
 62 
 7 
 10 
0.35
 20 
2.306
 11 
0.388
 21 
2.306
 0 
LINE
 8 
0
 62 
 7 
 10 
0.369
 20 
2.306
 11 
0.369
 21 
2.319
 0 
LINE
 8 
0
 62 
 7 
 10 
0.35
 20 
2.357
 11 
0.35
 21 
2.351
 0 
LINE
 8 
0
 62 
 7 
 10 
0.35
 20 
2.351
 11 
0.363
 21 
2.338
 0 
LINE
 8 
0
 62 
 7 
 10 
0.363
 20 
2.338
 11 
0.382
 21 
2.338
 0 
LINE
 8 
0
 62 
 7 
 10 
0.382
 20 
2.338
 11 
0.388
 21 
2.344
 0 
LINE
 8 
0
 62 
 7 
 10 
0.388
 20 
2.344
 11 
0.388
 21 
2.357
 0 
LINE
 8 
0
 62 
 7 
 10 
0.388
 20 
2.357
 11 
0.382
 21 
2.363
 0 
LINE
 8 
0
 62 
 7 
 10 
0.382
 20 
2.363
 11 
0.375
 21 
2.363
 0 
LINE
 8 
0
 62 
 7 
 10 
0.375
 20 
2.363
 11 
0.369
 21 
2.357
 0 
LINE
 8 
0
 62 
 7 
 10 
0.369
 20 
2.357
 11 
0.369
 21 
2.344
 0 
LINE
 8 
0
 62 
 7 
 10 
0.369
 20 
2.344
 11 
0.375
 21 
2.338
 0 
LINE
 8 
0
 62 
 7 
 10 
0.25
 20 
2.3
 11 
0.25
 21 
2.319
 0 
LINE
 8 
0
 62 
 7 
 10 
0.25
 20 
2.319
 11 
0.256
 21 
2.325
 0 
LINE
 8 
0
 62 
 7 
 10 
0.256
 20 
2.325
 11 
0.263
 21 
2.325
 0 
LINE
 8 
0
 62 
 7 
 10 
0.263
 20 
2.325
 11 
0.269
 21 
2.319
 0 
LINE
 8 
0
 62 
 7 
 10 
0.269
 20 
2.319
 11 
0.275
 21 
2.325
 0 
LINE
 8 
0
 62 
 7 
 10 
0.275
 20 
2.325
 11 
0.282
 21 
2.325
 0 
LINE
 8 
0
 62 
 7 
 10 
0.282
 20 
2.325
 11 
0.288
 21 
2.319
 0 
LINE
 8 
0
 62 
 7 
 10 
0.288
 20 
2.319
 11 
0.288
 21 
2.3
 0 
LINE
 8 
0
 62 
 7 
 10 
0.25
 20 
2.306
 11 
0.288
 21 
2.306
 0 
LINE
 8 
0
 62 
 7 
 10 
0.269
 20 
2.306
 11 
0.269
 21 
2.319
 0 
LINE
 8 
0
 62 
 7 
 10 
0.256
 20 
2.338
 11 
0.25
 21 
2.338
 0 
LINE
 8 
0
 62 
 7 
 10 
0.25
 20 
2.338
 11 
0.25
 21 
2.363
 0 
LINE
 8 
0
 62 
 7 
 10 
0.25
 20 
2.363
 11 
0.256
 21 
2.363
 0 
LINE
 8 
0
 62 
 7 
 10 
0.256
 20 
2.363
 11 
0.275
 21 
2.344
 0 
LINE
 8 
0
 62 
 7 
 10 
0.275
 20 
2.344
 11 
0.288
 21 
2.344
 0 
LINE
 8 
0
 62 
 7 
 10 
0.15
 20 
2.3
 11 
0.15
 21 
2.319
 0 
LINE
 8 
0
 62 
 7 
 10 
0.15
 20 
2.319
 11 
0.156
 21 
2.325
 0 
LINE
 8 
0
 62 
 7 
 10 
0.156
 20 
2.325
 11 
0.163
 21 
2.325
 0 
LINE
 8 
0
 62 
 7 
 10 
0.163
 20 
2.325
 11 
0.169
 21 
2.319
 0 
LINE
 8 
0
 62 
 7 
 10 
0.169
 20 
2.319
 11 
0.175
 21 
2.325
 0 
LINE
 8 
0
 62 
 7 
 10 
0.175
 20 
2.325
 11 
0.182
 21 
2.325
 0 
LINE
 8 
0
 62 
 7 
 10 
0.182
 20 
2.325
 11 
0.188
 21 
2.319
 0 
LINE
 8 
0
 62 
 7 
 10 
0.188
 20 
2.319
 11 
0.188
 21 
2.3
 0 
LINE
 8 
0
 62 
 7 
 10 
0.15
 20 
2.306
 11 
0.188
 21 
2.306
 0 
LINE
 8 
0
 62 
 7 
 10 
0.169
 20 
2.306
 11 
0.169
 21 
2.319
 0 
LINE
 8 
0
 62 
 7 
 10 
0.156
 20 
2.351
 11 
0.182
 21 
2.351
 0 
LINE
 8 
0
 62 
 7 
 10 
0.169
 20 
2.338
 11 
0.169
 21 
2.363
 0 
LINE
 8 
0
 62 
 7 
 10 
0.05
 20 
2.3
 11 
0.05
 21 
2.319
 0 
LINE
 8 
0
 62 
 7 
 10 
0.05
 20 
2.319
 11 
0.056
 21 
2.325
 0 
LINE
 8 
0
 62 
 7 
 10 
0.056
 20 
2.325
 11 
0.063
 21 
2.325
 0 
LINE
 8 
0
 62 
 7 
 10 
0.063
 20 
2.325
 11 
0.069
 21 
2.319
 0 
LINE
 8 
0
 62 
 7 
 10 
0.069
 20 
2.319
 11 
0.075
 21 
2.325
 0 
LINE
 8 
0
 62 
 7 
 10 
0.075
 20 
2.325
 11 
0.082
 21 
2.325
 0 
LINE
 8 
0
 62 
 7 
 10 
0.082
 20 
2.325
 11 
0.088
 21 
2.319
 0 
LINE
 8 
0
 62 
 7 
 10 
0.088
 20 
2.319
 11 
0.088
 21 
2.3
 0 
LINE
 8 
0
 62 
 7 
 10 
0.05
 20 
2.306
 11 
0.088
 21 
2.306
 0 
LINE
 8 
0
 62 
 7 
 10 
0.069
 20 
2.306
 11 
0.069
 21 
2.319
 0 
LINE
 8 
0
 62 
 7 
 10 
0.069
 20 
2.338
 11 
0.069
 21 
2.363
 0 
ENDSEC
 0 
EOF
