 0 
SECTION
 2 
HEADER
 9 
$ACADVER
 1 
AC1004
 9 
$EXTMIN
 10 
0.0
 20 
0.0
 9 
$EXTMAX
 10 
1.65
 20 
1.55
 9 
$LIMMIN
 10 
0.0
 20 
0.0
 9 
$LIMMAX
 10 
1.65
 20 
1.55
 9 
$INSBASE
 10 
0.0
 20 
0.0
 9 
$VIEWCTR
 10 
0.825
 20 
0.775
 9 
$VIEWSIZE
 40 
1.55
 9 
$ORTHOMODE
 70 
 0 
 9 
$REGENMODE
 70 
 1 
 9 
$FILLMODE
 70 
 1 
 9 
$QTEXTMODE
 70 
 0 
 9 
$DRAGMODE
 70 
 2 
 9 
$LTSCALE
 40 
1.0
 9 
$OSMODE
 70 
 0 
 9 
$ATTMODE
 70 
 1 
 9 
$TEXTSIZE
 40 
0.2
 9 
$TRACEWID
 40 
0.05
 9 
$TEXTSTYLE
 7 
STANDARD
 9 
$CLAYER
 8 
0
 9 
$CELTYPE
 6 
BYLAYER
 9 
$CECOLOR
 62 
 256 
 9 
$DIMSCALE
 40 
1.0
 9 
$DIMLFAC
 40 
1.0
 9 
$LUNITS
 70 
 2 
 9 
$LUPREC
 70 
 4 
 9 
$AXISMODE
 70 
 0 
 9 
$AXISUNIT
 10 
0.0
 20 
0.0
 9 
$SKETCHINC
 40 
0.1
 9 
$MENU
 1 
acad
 9 
$ELEVATION
 40 
0.0
 9 
$THICKNESS
 40 
0.0
 9 
$VIEWDIR
 10 
0.0
 20 
0.0
 30 
1.0
 9 
$LIMCHECK
 70 
 0 
 9 
$BLIPMODE
 70 
 1 
 9 
$FASTZOOM
 70 
 1 
 9 
$SKPOLY
 70 
 0 
 9 
$ANGBASE
 50 
0.0
 9 
$ANGDIR
 70 
 0 
 9 
$PDMODE
 70 
 0 
 9 
$PDSIZE
 40 
0.0
 9 
$PLINEWID
 40 
0.0
 9 
$COORDS
 70 
 0 
 9 
$ATTDIA
 70 
 0 
 9 
$ATTREQ
 70 
 1 
 0 
ENDSEC
 0 
SECTION
 2 
TABLES
 0 
TABLE
 2 
LTYPE
 70 
 10 
 0 
LTYPE
 2 
CONTINUOUS
 70 
 64 
 3 
Solid line
 72 
 65 
 73 
 0 
 40 
0.0
 0 
ENDTAB
 0 
TABLE
 2 
LAYER
 70 
 153 
 0 
LAYER
 2 
0
 70 
 64 
 62 
 7 
 6 
CONTINUOUS
 0 
ENDTAB
 0 
ENDSEC
 0 
SECTION
 2 
BLOCKS
 0 
ENDSEC
 0 
SECTION
 2 
ENTITIES
 0 
LINE
 8 
0
 62 
 7 
 10 
0.0
 20 
1.55
 11 
1.65
 21 
1.55
 0 
LINE
 8 
0
 62 
 7 
 10 
1.65
 20 
1.55
 11 
1.65
 21 
0.0
 0 
LINE
 8 
0
 62 
 7 
 10 
1.65
 20 
0.0
 11 
0.0
 21 
0.0
 0 
LINE
 8 
0
 62 
 7 
 10 
0.0
 20 
0.0
 11 
0.0
 21 
1.55
 0 
CIRCLE
 8 
0
 62 
 7 
 10 
1.475
 20 
0.275
 40 
0.038
 0 
CIRCLE
 8 
0
 62 
 7 
 10 
1.475
 20 
0.275
 40 
0.02
 0 
CIRCLE
 8 
0
 62 
 7 
 10 
1.375
 20 
0.275
 40 
0.038
 0 
CIRCLE
 8 
0
 62 
 7 
 10 
1.375
 20 
0.275
 40 
0.02
 0 
CIRCLE
 8 
0
 62 
 7 
 10 
1.275
 20 
0.275
 40 
0.038
 0 
CIRCLE
 8 
0
 62 
 7 
 10 
1.275
 20 
0.275
 40 
0.02
 0 
CIRCLE
 8 
0
 62 
 7 
 10 
1.175
 20 
0.275
 40 
0.038
 0 
CIRCLE
 8 
0
 62 
 7 
 10 
1.175
 20 
0.275
 40 
0.02
 0 
CIRCLE
 8 
0
 62 
 7 
 10 
1.075
 20 
0.275
 40 
0.038
 0 
CIRCLE
 8 
0
 62 
 7 
 10 
1.075
 20 
0.275
 40 
0.02
 0 
LINE
 8 
0
 62 
 7 
 10 
0.938
 20 
0.312
 11 
1.013
 21 
0.312
 0 
LINE
 8 
0
 62 
 7 
 10 
1.013
 20 
0.312
 11 
1.013
 21 
0.237
 0 
LINE
 8 
0
 62 
 7 
 10 
1.013
 20 
0.237
 11 
0.938
 21 
0.237
 0 
LINE
 8 
0
 62 
 7 
 10 
0.938
 20 
0.237
 11 
0.938
 21 
0.312
 0 
CIRCLE
 8 
0
 62 
 7 
 10 
0.975
 20 
0.275
 40 
0.02
 0 
LINE
 8 
0
 62 
 7 
 10 
0.405
 20 
0.413
 11 
0.445
 21 
0.413
 0 
LINE
 8 
0
 62 
 7 
 10 
0.445
 20 
0.413
 11 
0.445
 21 
0.363
 0 
LINE
 8 
0
 62 
 7 
 10 
0.445
 20 
0.363
 11 
0.405
 21 
0.363
 0 
LINE
 8 
0
 62 
 7 
 10 
0.405
 20 
0.363
 11 
0.405
 21 
0.413
 0 
LINE
 8 
0
 62 
 7 
 10 
0.329
 20 
0.413
 11 
0.369
 21 
0.413
 0 
LINE
 8 
0
 62 
 7 
 10 
0.369
 20 
0.413
 11 
0.369
 21 
0.363
 0 
LINE
 8 
0
 62 
 7 
 10 
0.369
 20 
0.363
 11 
0.329
 21 
0.363
 0 
LINE
 8 
0
 62 
 7 
 10 
0.329
 20 
0.363
 11 
0.329
 21 
0.413
 0 
LINE
 8 
0
 62 
 7 
 10 
0.33
 20 
0.532
 11 
0.37
 21 
0.532
 0 
LINE
 8 
0
 62 
 7 
 10 
0.37
 20 
0.532
 11 
0.37
 21 
0.482
 0 
LINE
 8 
0
 62 
 7 
 10 
0.37
 20 
0.482
 11 
0.33
 21 
0.482
 0 
LINE
 8 
0
 62 
 7 
 10 
0.33
 20 
0.482
 11 
0.33
 21 
0.532
 0 
LINE
 8 
0
 62 
 7 
 10 
0.406
 20 
0.532
 11 
0.446
 21 
0.532
 0 
LINE
 8 
0
 62 
 7 
 10 
0.446
 20 
0.532
 11 
0.446
 21 
0.482
 0 
LINE
 8 
0
 62 
 7 
 10 
0.446
 20 
0.482
 11 
0.406
 21 
0.482
 0 
LINE
 8 
0
 62 
 7 
 10 
0.406
 20 
0.482
 11 
0.406
 21 
0.532
 0 
LINE
 8 
0
 62 
 7 
 10 
0.33
 20 
0.975
 11 
0.37
 21 
0.975
 0 
LINE
 8 
0
 62 
 7 
 10 
0.37
 20 
0.975
 11 
0.37
 21 
0.925
 0 
LINE
 8 
0
 62 
 7 
 10 
0.37
 20 
0.925
 11 
0.33
 21 
0.925
 0 
LINE
 8 
0
 62 
 7 
 10 
0.33
 20 
0.925
 11 
0.33
 21 
0.975
 0 
LINE
 8 
0
 62 
 7 
 10 
0.406
 20 
0.975
 11 
0.446
 21 
0.975
 0 
LINE
 8 
0
 62 
 7 
 10 
0.446
 20 
0.975
 11 
0.446
 21 
0.925
 0 
LINE
 8 
0
 62 
 7 
 10 
0.446
 20 
0.925
 11 
0.406
 21 
0.925
 0 
LINE
 8 
0
 62 
 7 
 10 
0.406
 20 
0.925
 11 
0.406
 21 
0.975
 0 
LINE
 8 
0
 62 
 7 
 10 
0.405
 20 
0.8
 11 
0.445
 21 
0.8
 0 
LINE
 8 
0
 62 
 7 
 10 
0.445
 20 
0.8
 11 
0.445
 21 
0.75
 0 
LINE
 8 
0
 62 
 7 
 10 
0.445
 20 
0.75
 11 
0.405
 21 
0.75
 0 
LINE
 8 
0
 62 
 7 
 10 
0.405
 20 
0.75
 11 
0.405
 21 
0.8
 0 
LINE
 8 
0
 62 
 7 
 10 
0.329
 20 
0.8
 11 
0.369
 21 
0.8
 0 
LINE
 8 
0
 62 
 7 
 10 
0.369
 20 
0.8
 11 
0.369
 21 
0.75
 0 
LINE
 8 
0
 62 
 7 
 10 
0.369
 20 
0.75
 11 
0.329
 21 
0.75
 0 
LINE
 8 
0
 62 
 7 
 10 
0.329
 20 
0.75
 11 
0.329
 21 
0.8
 0 
LINE
 8 
0
 62 
 7 
 10 
0.404
 20 
1.09
 11 
0.444
 21 
1.09
 0 
LINE
 8 
0
 62 
 7 
 10 
0.444
 20 
1.09
 11 
0.444
 21 
1.06
 0 
LINE
 8 
0
 62 
 7 
 10 
0.444
 20 
1.06
 11 
0.404
 21 
1.06
 0 
LINE
 8 
0
 62 
 7 
 10 
0.404
 20 
1.06
 11 
0.404
 21 
1.09
 0 
LINE
 8 
0
 62 
 7 
 10 
0.404
 20 
1.165
 11 
0.444
 21 
1.165
 0 
LINE
 8 
0
 62 
 7 
 10 
0.444
 20 
1.165
 11 
0.444
 21 
1.135
 0 
LINE
 8 
0
 62 
 7 
 10 
0.444
 20 
1.135
 11 
0.404
 21 
1.135
 0 
LINE
 8 
0
 62 
 7 
 10 
0.404
 20 
1.135
 11 
0.404
 21 
1.165
 0 
LINE
 8 
0
 62 
 7 
 10 
0.314
 20 
1.128
 11 
0.354
 21 
1.128
 0 
LINE
 8 
0
 62 
 7 
 10 
0.354
 20 
1.128
 11 
0.354
 21 
1.098
 0 
LINE
 8 
0
 62 
 7 
 10 
0.354
 20 
1.098
 11 
0.314
 21 
1.098
 0 
LINE
 8 
0
 62 
 7 
 10 
0.314
 20 
1.098
 11 
0.314
 21 
1.128
 0 
LINE
 8 
0
 62 
 7 
 10 
0.138
 20 
0.36
 11 
0.213
 21 
0.36
 0 
LINE
 8 
0
 62 
 7 
 10 
0.213
 20 
0.36
 11 
0.213
 21 
0.285
 0 
LINE
 8 
0
 62 
 7 
 10 
0.213
 20 
0.285
 11 
0.138
 21 
0.285
 0 
LINE
 8 
0
 62 
 7 
 10 
0.138
 20 
0.285
 11 
0.138
 21 
0.36
 0 
CIRCLE
 8 
0
 62 
 7 
 10 
0.175
 20 
0.322
 40 
0.02
 0 
CIRCLE
 8 
0
 62 
 7 
 10 
0.175
 20 
0.222
 40 
0.038
 0 
CIRCLE
 8 
0
 62 
 7 
 10 
0.175
 20 
0.222
 40 
0.02
 0 
CIRCLE
 8 
0
 62 
 7 
 10 
0.175
 20 
0.122
 40 
0.038
 0 
CIRCLE
 8 
0
 62 
 7 
 10 
0.175
 20 
0.122
 40 
0.02
 0 
LINE
 8 
0
 62 
 7 
 10 
0.225
 20 
0.072
 11 
0.225
 21 
0.372
 0 
LINE
 8 
0
 62 
 7 
 10 
0.125
 20 
0.372
 11 
0.225
 21 
0.372
 0 
LINE
 8 
0
 62 
 7 
 10 
0.125
 20 
0.072
 11 
0.225
 21 
0.072
 0 
LINE
 8 
0
 62 
 7 
 10 
0.125
 20 
0.072
 11 
0.125
 21 
0.372
 0 
LINE
 8 
0
 62 
 7 
 10 
0.147
 20 
0.058
 11 
0.166
 21 
0.058
 0 
LINE
 8 
0
 62 
 7 
 10 
0.166
 20 
0.058
 11 
0.166
 21 
0.026
 0 
LINE
 8 
0
 62 
 7 
 10 
0.166
 20 
0.026
 11 
0.16
 21 
0.02
 0 
LINE
 8 
0
 62 
 7 
 10 
0.16
 20 
0.02
 11 
0.147
 21 
0.02
 0 
LINE
 8 
0
 62 
 7 
 10 
0.147
 20 
0.02
 11 
0.141
 21 
0.026
 0 
LINE
 8 
0
 62 
 7 
 10 
0.179
 20 
0.052
 11 
0.185
 21 
0.058
 0 
LINE
 8 
0
 62 
 7 
 10 
0.185
 20 
0.058
 11 
0.198
 21 
0.058
 0 
LINE
 8 
0
 62 
 7 
 10 
0.198
 20 
0.058
 11 
0.204
 21 
0.052
 0 
LINE
 8 
0
 62 
 7 
 10 
0.204
 20 
0.052
 11 
0.204
 21 
0.045
 0 
LINE
 8 
0
 62 
 7 
 10 
0.204
 20 
0.045
 11 
0.198
 21 
0.039
 0 
LINE
 8 
0
 62 
 7 
 10 
0.198
 20 
0.039
 11 
0.192
 21 
0.039
 0 
LINE
 8 
0
 62 
 7 
 10 
0.198
 20 
0.039
 11 
0.204
 21 
0.033
 0 
LINE
 8 
0
 62 
 7 
 10 
0.204
 20 
0.033
 11 
0.204
 21 
0.026
 0 
LINE
 8 
0
 62 
 7 
 10 
0.204
 20 
0.026
 11 
0.198
 21 
0.02
 0 
LINE
 8 
0
 62 
 7 
 10 
0.198
 20 
0.02
 11 
0.185
 21 
0.02
 0 
LINE
 8 
0
 62 
 7 
 10 
0.185
 20 
0.02
 11 
0.179
 21 
0.026
 0 
CIRCLE
 8 
0
 62 
 7 
 10 
0.075
 20 
1.475
 40 
0.038
 0 
CIRCLE
 8 
0
 62 
 7 
 10 
0.075
 20 
1.475
 40 
0.02
 0 
CIRCLE
 8 
0
 62 
 7 
 10 
0.175
 20 
1.475
 40 
0.038
 0 
CIRCLE
 8 
0
 62 
 7 
 10 
0.175
 20 
1.475
 40 
0.02
 0 
CIRCLE
 8 
0
 62 
 7 
 10 
0.275
 20 
1.475
 40 
0.038
 0 
CIRCLE
 8 
0
 62 
 7 
 10 
0.275
 20 
1.475
 40 
0.02
 0 
CIRCLE
 8 
0
 62 
 7 
 10 
0.375
 20 
1.475
 40 
0.038
 0 
CIRCLE
 8 
0
 62 
 7 
 10 
0.375
 20 
1.475
 40 
0.02
 0 
CIRCLE
 8 
0
 62 
 7 
 10 
0.475
 20 
1.475
 40 
0.038
 0 
CIRCLE
 8 
0
 62 
 7 
 10 
0.475
 20 
1.475
 40 
0.02
 0 
LINE
 8 
0
 62 
 7 
 10 
0.538
 20 
1.512
 11 
0.613
 21 
1.512
 0 
LINE
 8 
0
 62 
 7 
 10 
0.613
 20 
1.512
 11 
0.613
 21 
1.437
 0 
LINE
 8 
0
 62 
 7 
 10 
0.613
 20 
1.437
 11 
0.538
 21 
1.437
 0 
LINE
 8 
0
 62 
 7 
 10 
0.538
 20 
1.437
 11 
0.538
 21 
1.512
 0 
CIRCLE
 8 
0
 62 
 7 
 10 
0.575
 20 
1.475
 40 
0.02
 0 
CIRCLE
 8 
0
 62 
 7 
 10 
1.075
 20 
1.475
 40 
0.038
 0 
CIRCLE
 8 
0
 62 
 7 
 10 
1.075
 20 
1.475
 40 
0.02
 0 
CIRCLE
 8 
0
 62 
 7 
 10 
1.175
 20 
1.475
 40 
0.038
 0 
CIRCLE
 8 
0
 62 
 7 
 10 
1.175
 20 
1.475
 40 
0.02
 0 
CIRCLE
 8 
0
 62 
 7 
 10 
1.275
 20 
1.475
 40 
0.038
 0 
CIRCLE
 8 
0
 62 
 7 
 10 
1.275
 20 
1.475
 40 
0.02
 0 
CIRCLE
 8 
0
 62 
 7 
 10 
1.375
 20 
1.475
 40 
0.038
 0 
CIRCLE
 8 
0
 62 
 7 
 10 
1.375
 20 
1.475
 40 
0.02
 0 
CIRCLE
 8 
0
 62 
 7 
 10 
1.475
 20 
1.475
 40 
0.038
 0 
CIRCLE
 8 
0
 62 
 7 
 10 
1.475
 20 
1.475
 40 
0.02
 0 
LINE
 8 
0
 62 
 7 
 10 
1.538
 20 
1.512
 11 
1.613
 21 
1.512
 0 
LINE
 8 
0
 62 
 7 
 10 
1.613
 20 
1.512
 11 
1.613
 21 
1.437
 0 
LINE
 8 
0
 62 
 7 
 10 
1.613
 20 
1.437
 11 
1.538
 21 
1.437
 0 
LINE
 8 
0
 62 
 7 
 10 
1.538
 20 
1.437
 11 
1.538
 21 
1.512
 0 
CIRCLE
 8 
0
 62 
 7 
 10 
1.575
 20 
1.475
 40 
0.02
 0 
CIRCLE
 8 
0
 62 
 7 
 10 
0.975
 20 
1.475
 40 
0.038
 0 
CIRCLE
 8 
0
 62 
 7 
 10 
0.975
 20 
1.475
 40 
0.02
 0 
CIRCLE
 8 
0
 62 
 7 
 10 
0.875
 20 
1.475
 40 
0.038
 0 
CIRCLE
 8 
0
 62 
 7 
 10 
0.875
 20 
1.475
 40 
0.02
 0 
CIRCLE
 8 
0
 62 
 7 
 10 
0.775
 20 
1.475
 40 
0.038
 0 
CIRCLE
 8 
0
 62 
 7 
 10 
0.775
 20 
1.475
 40 
0.02
 0 
CIRCLE
 8 
0
 62 
 7 
 10 
0.675
 20 
1.475
 40 
0.038
 0 
CIRCLE
 8 
0
 62 
 7 
 10 
0.675
 20 
1.475
 40 
0.02
 0 
CIRCLE
 8 
0
 62 
 7 
 10 
1.425
 20 
0.794
 40 
0.028
 0 
CIRCLE
 8 
0
 62 
 7 
 10 
1.425
 20 
0.794
 40 
0.014
 0 
CIRCLE
 8 
0
 62 
 7 
 10 
1.325
 20 
0.694
 40 
0.028
 0 
CIRCLE
 8 
0
 62 
 7 
 10 
1.325
 20 
0.694
 40 
0.014
 0 
CIRCLE
 8 
0
 62 
 7 
 10 
1.425
 20 
0.594
 40 
0.028
 0 
CIRCLE
 8 
0
 62 
 7 
 10 
1.425
 20 
0.594
 40 
0.014
 0 
LINE
 8 
0
 62 
 7 
 10 
1.4
 20 
1.028
 11 
1.45
 21 
1.028
 0 
LINE
 8 
0
 62 
 7 
 10 
1.45
 20 
1.028
 11 
1.45
 21 
0.988
 0 
LINE
 8 
0
 62 
 7 
 10 
1.45
 20 
0.988
 11 
1.4
 21 
0.988
 0 
LINE
 8 
0
 62 
 7 
 10 
1.4
 20 
0.988
 11 
1.4
 21 
1.028
 0 
LINE
 8 
0
 62 
 7 
 10 
1.4
 20 
1.104
 11 
1.45
 21 
1.104
 0 
LINE
 8 
0
 62 
 7 
 10 
1.45
 20 
1.104
 11 
1.45
 21 
1.064
 0 
LINE
 8 
0
 62 
 7 
 10 
1.45
 20 
1.064
 11 
1.4
 21 
1.064
 0 
LINE
 8 
0
 62 
 7 
 10 
1.4
 20 
1.064
 11 
1.4
 21 
1.104
 0 
LINE
 8 
0
 62 
 7 
 10 
1.25
 20 
1.028
 11 
1.3
 21 
1.028
 0 
LINE
 8 
0
 62 
 7 
 10 
1.3
 20 
1.028
 11 
1.3
 21 
0.988
 0 
LINE
 8 
0
 62 
 7 
 10 
1.3
 20 
0.988
 11 
1.25
 21 
0.988
 0 
LINE
 8 
0
 62 
 7 
 10 
1.25
 20 
0.988
 11 
1.25
 21 
1.028
 0 
LINE
 8 
0
 62 
 7 
 10 
1.25
 20 
1.104
 11 
1.3
 21 
1.104
 0 
LINE
 8 
0
 62 
 7 
 10 
1.3
 20 
1.104
 11 
1.3
 21 
1.064
 0 
LINE
 8 
0
 62 
 7 
 10 
1.3
 20 
1.064
 11 
1.25
 21 
1.064
 0 
LINE
 8 
0
 62 
 7 
 10 
1.25
 20 
1.064
 11 
1.25
 21 
1.104
 0 
LINE
 8 
0
 62 
 7 
 10 
0.705
 20 
0.375
 11 
0.745
 21 
0.375
 0 
LINE
 8 
0
 62 
 7 
 10 
0.745
 20 
0.375
 11 
0.745
 21 
0.325
 0 
LINE
 8 
0
 62 
 7 
 10 
0.745
 20 
0.325
 11 
0.705
 21 
0.325
 0 
LINE
 8 
0
 62 
 7 
 10 
0.705
 20 
0.325
 11 
0.705
 21 
0.375
 0 
LINE
 8 
0
 62 
 7 
 10 
0.781
 20 
0.375
 11 
0.821
 21 
0.375
 0 
LINE
 8 
0
 62 
 7 
 10 
0.821
 20 
0.375
 11 
0.821
 21 
0.325
 0 
LINE
 8 
0
 62 
 7 
 10 
0.821
 20 
0.325
 11 
0.781
 21 
0.325
 0 
LINE
 8 
0
 62 
 7 
 10 
0.781
 20 
0.325
 11 
0.781
 21 
0.375
 0 
LINE
 8 
0
 62 
 7 
 10 
0.635
 20 
1.138
 11 
0.715
 21 
1.138
 0 
LINE
 8 
0
 62 
 7 
 10 
0.715
 20 
1.138
 11 
0.715
 21 
1.112
 0 
LINE
 8 
0
 62 
 7 
 10 
0.715
 20 
1.112
 11 
0.635
 21 
1.112
 0 
LINE
 8 
0
 62 
 7 
 10 
0.635
 20 
1.112
 11 
0.635
 21 
1.138
 0 
LINE
 8 
0
 62 
 7 
 10 
0.635
 20 
1.088
 11 
0.715
 21 
1.088
 0 
LINE
 8 
0
 62 
 7 
 10 
0.715
 20 
1.088
 11 
0.715
 21 
1.062
 0 
LINE
 8 
0
 62 
 7 
 10 
0.715
 20 
1.062
 11 
0.635
 21 
1.062
 0 
LINE
 8 
0
 62 
 7 
 10 
0.635
 20 
1.062
 11 
0.635
 21 
1.088
 0 
LINE
 8 
0
 62 
 7 
 10 
0.635
 20 
1.038
 11 
0.715
 21 
1.038
 0 
LINE
 8 
0
 62 
 7 
 10 
0.715
 20 
1.038
 11 
0.715
 21 
1.012
 0 
LINE
 8 
0
 62 
 7 
 10 
0.715
 20 
1.012
 11 
0.635
 21 
1.012
 0 
LINE
 8 
0
 62 
 7 
 10 
0.635
 20 
1.012
 11 
0.635
 21 
1.038
 0 
LINE
 8 
0
 62 
 7 
 10 
0.635
 20 
0.988
 11 
0.715
 21 
0.988
 0 
LINE
 8 
0
 62 
 7 
 10 
0.715
 20 
0.988
 11 
0.715
 21 
0.962
 0 
LINE
 8 
0
 62 
 7 
 10 
0.715
 20 
0.962
 11 
0.635
 21 
0.962
 0 
LINE
 8 
0
 62 
 7 
 10 
0.635
 20 
0.962
 11 
0.635
 21 
0.988
 0 
LINE
 8 
0
 62 
 7 
 10 
0.635
 20 
0.938
 11 
0.715
 21 
0.938
 0 
LINE
 8 
0
 62 
 7 
 10 
0.715
 20 
0.938
 11 
0.715
 21 
0.912
 0 
LINE
 8 
0
 62 
 7 
 10 
0.715
 20 
0.912
 11 
0.635
 21 
0.912
 0 
LINE
 8 
0
 62 
 7 
 10 
0.635
 20 
0.912
 11 
0.635
 21 
0.938
 0 
LINE
 8 
0
 62 
 7 
 10 
0.635
 20 
0.888
 11 
0.715
 21 
0.888
 0 
LINE
 8 
0
 62 
 7 
 10 
0.715
 20 
0.888
 11 
0.715
 21 
0.862
 0 
LINE
 8 
0
 62 
 7 
 10 
0.715
 20 
0.862
 11 
0.635
 21 
0.862
 0 
LINE
 8 
0
 62 
 7 
 10 
0.635
 20 
0.862
 11 
0.635
 21 
0.888
 0 
LINE
 8 
0
 62 
 7 
 10 
0.635
 20 
0.838
 11 
0.715
 21 
0.838
 0 
LINE
 8 
0
 62 
 7 
 10 
0.715
 20 
0.838
 11 
0.715
 21 
0.812
 0 
LINE
 8 
0
 62 
 7 
 10 
0.715
 20 
0.812
 11 
0.635
 21 
0.812
 0 
LINE
 8 
0
 62 
 7 
 10 
0.635
 20 
0.812
 11 
0.635
 21 
0.838
 0 
LINE
 8 
0
 62 
 7 
 10 
0.635
 20 
0.788
 11 
0.715
 21 
0.788
 0 
LINE
 8 
0
 62 
 7 
 10 
0.715
 20 
0.788
 11 
0.715
 21 
0.762
 0 
LINE
 8 
0
 62 
 7 
 10 
0.715
 20 
0.762
 11 
0.635
 21 
0.762
 0 
LINE
 8 
0
 62 
 7 
 10 
0.635
 20 
0.762
 11 
0.635
 21 
0.788
 0 
LINE
 8 
0
 62 
 7 
 10 
0.635
 20 
0.738
 11 
0.715
 21 
0.738
 0 
LINE
 8 
0
 62 
 7 
 10 
0.715
 20 
0.738
 11 
0.715
 21 
0.712
 0 
LINE
 8 
0
 62 
 7 
 10 
0.715
 20 
0.712
 11 
0.635
 21 
0.712
 0 
LINE
 8 
0
 62 
 7 
 10 
0.635
 20 
0.712
 11 
0.635
 21 
0.738
 0 
LINE
 8 
0
 62 
 7 
 10 
1.01
 20 
0.738
 11 
1.09
 21 
0.738
 0 
LINE
 8 
0
 62 
 7 
 10 
1.09
 20 
0.738
 11 
1.09
 21 
0.712
 0 
LINE
 8 
0
 62 
 7 
 10 
1.09
 20 
0.712
 11 
1.01
 21 
0.712
 0 
LINE
 8 
0
 62 
 7 
 10 
1.01
 20 
0.712
 11 
1.01
 21 
0.738
 0 
LINE
 8 
0
 62 
 7 
 10 
1.01
 20 
0.788
 11 
1.09
 21 
0.788
 0 
LINE
 8 
0
 62 
 7 
 10 
1.09
 20 
0.788
 11 
1.09
 21 
0.762
 0 
LINE
 8 
0
 62 
 7 
 10 
1.09
 20 
0.762
 11 
1.01
 21 
0.762
 0 
LINE
 8 
0
 62 
 7 
 10 
1.01
 20 
0.762
 11 
1.01
 21 
0.788
 0 
LINE
 8 
0
 62 
 7 
 10 
1.01
 20 
0.838
 11 
1.09
 21 
0.838
 0 
LINE
 8 
0
 62 
 7 
 10 
1.09
 20 
0.838
 11 
1.09
 21 
0.812
 0 
LINE
 8 
0
 62 
 7 
 10 
1.09
 20 
0.812
 11 
1.01
 21 
0.812
 0 
LINE
 8 
0
 62 
 7 
 10 
1.01
 20 
0.812
 11 
1.01
 21 
0.838
 0 
LINE
 8 
0
 62 
 7 
 10 
1.01
 20 
0.888
 11 
1.09
 21 
0.888
 0 
LINE
 8 
0
 62 
 7 
 10 
1.09
 20 
0.888
 11 
1.09
 21 
0.862
 0 
LINE
 8 
0
 62 
 7 
 10 
1.09
 20 
0.862
 11 
1.01
 21 
0.862
 0 
LINE
 8 
0
 62 
 7 
 10 
1.01
 20 
0.862
 11 
1.01
 21 
0.888
 0 
LINE
 8 
0
 62 
 7 
 10 
1.01
 20 
0.938
 11 
1.09
 21 
0.938
 0 
LINE
 8 
0
 62 
 7 
 10 
1.09
 20 
0.938
 11 
1.09
 21 
0.912
 0 
LINE
 8 
0
 62 
 7 
 10 
1.09
 20 
0.912
 11 
1.01
 21 
0.912
 0 
LINE
 8 
0
 62 
 7 
 10 
1.01
 20 
0.912
 11 
1.01
 21 
0.938
 0 
LINE
 8 
0
 62 
 7 
 10 
1.01
 20 
0.988
 11 
1.09
 21 
0.988
 0 
LINE
 8 
0
 62 
 7 
 10 
1.09
 20 
0.988
 11 
1.09
 21 
0.962
 0 
LINE
 8 
0
 62 
 7 
 10 
1.09
 20 
0.962
 11 
1.01
 21 
0.962
 0 
LINE
 8 
0
 62 
 7 
 10 
1.01
 20 
0.962
 11 
1.01
 21 
0.988
 0 
LINE
 8 
0
 62 
 7 
 10 
1.01
 20 
1.038
 11 
1.09
 21 
1.038
 0 
LINE
 8 
0
 62 
 7 
 10 
1.09
 20 
1.038
 11 
1.09
 21 
1.012
 0 
LINE
 8 
0
 62 
 7 
 10 
1.09
 20 
1.012
 11 
1.01
 21 
1.012
 0 
LINE
 8 
0
 62 
 7 
 10 
1.01
 20 
1.012
 11 
1.01
 21 
1.038
 0 
LINE
 8 
0
 62 
 7 
 10 
1.01
 20 
1.088
 11 
1.09
 21 
1.088
 0 
LINE
 8 
0
 62 
 7 
 10 
1.09
 20 
1.088
 11 
1.09
 21 
1.062
 0 
LINE
 8 
0
 62 
 7 
 10 
1.09
 20 
1.062
 11 
1.01
 21 
1.062
 0 
LINE
 8 
0
 62 
 7 
 10 
1.01
 20 
1.062
 11 
1.01
 21 
1.088
 0 
LINE
 8 
0
 62 
 7 
 10 
1.01
 20 
1.138
 11 
1.09
 21 
1.138
 0 
LINE
 8 
0
 62 
 7 
 10 
1.09
 20 
1.138
 11 
1.09
 21 
1.112
 0 
LINE
 8 
0
 62 
 7 
 10 
1.09
 20 
1.112
 11 
1.01
 21 
1.112
 0 
LINE
 8 
0
 62 
 7 
 10 
1.01
 20 
1.112
 11 
1.01
 21 
1.138
 0 
LINE
 8 
0
 62 
 7 
 10 
0.405
 20 
1.275
 11 
0.445
 21 
1.275
 0 
LINE
 8 
0
 62 
 7 
 10 
0.445
 20 
1.275
 11 
0.445
 21 
1.225
 0 
LINE
 8 
0
 62 
 7 
 10 
0.445
 20 
1.225
 11 
0.405
 21 
1.225
 0 
LINE
 8 
0
 62 
 7 
 10 
0.405
 20 
1.225
 11 
0.405
 21 
1.275
 0 
LINE
 8 
0
 62 
 7 
 10 
0.329
 20 
1.275
 11 
0.369
 21 
1.275
 0 
LINE
 8 
0
 62 
 7 
 10 
0.369
 20 
1.275
 11 
0.369
 21 
1.225
 0 
LINE
 8 
0
 62 
 7 
 10 
0.369
 20 
1.225
 11 
0.329
 21 
1.225
 0 
LINE
 8 
0
 62 
 7 
 10 
0.329
 20 
1.225
 11 
0.329
 21 
1.275
 0 
LINE
 8 
0
 62 
 7 
 10 
1.255
 20 
1.19
 11 
1.295
 21 
1.19
 0 
LINE
 8 
0
 62 
 7 
 10 
1.295
 20 
1.19
 11 
1.295
 21 
1.16
 0 
LINE
 8 
0
 62 
 7 
 10 
1.295
 20 
1.16
 11 
1.255
 21 
1.16
 0 
LINE
 8 
0
 62 
 7 
 10 
1.255
 20 
1.16
 11 
1.255
 21 
1.19
 0 
LINE
 8 
0
 62 
 7 
 10 
1.255
 20 
1.265
 11 
1.295
 21 
1.265
 0 
LINE
 8 
0
 62 
 7 
 10 
1.295
 20 
1.265
 11 
1.295
 21 
1.235
 0 
LINE
 8 
0
 62 
 7 
 10 
1.295
 20 
1.235
 11 
1.255
 21 
1.235
 0 
LINE
 8 
0
 62 
 7 
 10 
1.255
 20 
1.235
 11 
1.255
 21 
1.265
 0 
LINE
 8 
0
 62 
 7 
 10 
1.165
 20 
1.228
 11 
1.205
 21 
1.228
 0 
LINE
 8 
0
 62 
 7 
 10 
1.205
 20 
1.228
 11 
1.205
 21 
1.198
 0 
LINE
 8 
0
 62 
 7 
 10 
1.205
 20 
1.198
 11 
1.165
 21 
1.198
 0 
LINE
 8 
0
 62 
 7 
 10 
1.165
 20 
1.198
 11 
1.165
 21 
1.228
 0 
LINE
 8 
0
 62 
 7 
 10 
0.9
 20 
0.2
 11 
1.55
 21 
0.2
 0 
LINE
 8 
0
 62 
 7 
 10 
1.55
 20 
0.375
 11 
0.9
 21 
0.375
 0 
LINE
 8 
0
 62 
 7 
 10 
0.9
 20 
0.2
 11 
0.9
 21 
0.375
 0 
LINE
 8 
0
 62 
 7 
 10 
1.55
 20 
0.2
 11 
1.55
 21 
0.375
 0 
LINE
 8 
0
 62 
 7 
 10 
0.95
 20 
0.375
 11 
1.5
 21 
0.375
 0 
LINE
 8 
0
 62 
 7 
 10 
1.5
 20 
0.375
 11 
1.5
 21 
0.35
 0 
LINE
 8 
0
 62 
 7 
 10 
1.5
 20 
0.35
 11 
0.95
 21 
0.35
 0 
LINE
 8 
0
 62 
 7 
 10 
0.95
 20 
0.35
 11 
0.95
 21 
0.375
 0 
LINE
 8 
0
 62 
 7 
 10 
0.845
 20 
0.201
 11 
0.845
 21 
0.22
 0 
LINE
 8 
0
 62 
 7 
 10 
0.845
 20 
0.22
 11 
0.877
 21 
0.22
 0 
LINE
 8 
0
 62 
 7 
 10 
0.877
 20 
0.22
 11 
0.883
 21 
0.214
 0 
LINE
 8 
0
 62 
 7 
 10 
0.883
 20 
0.214
 11 
0.883
 21 
0.201
 0 
LINE
 8 
0
 62 
 7 
 10 
0.883
 20 
0.201
 11 
0.877
 21 
0.195
 0 
LINE
 8 
0
 62 
 7 
 10 
0.845
 20 
0.252
 11 
0.845
 21 
0.246
 0 
LINE
 8 
0
 62 
 7 
 10 
0.845
 20 
0.246
 11 
0.858
 21 
0.233
 0 
LINE
 8 
0
 62 
 7 
 10 
0.858
 20 
0.233
 11 
0.877
 21 
0.233
 0 
LINE
 8 
0
 62 
 7 
 10 
0.877
 20 
0.233
 11 
0.883
 21 
0.239
 0 
LINE
 8 
0
 62 
 7 
 10 
0.883
 20 
0.239
 11 
0.883
 21 
0.252
 0 
LINE
 8 
0
 62 
 7 
 10 
0.883
 20 
0.252
 11 
0.877
 21 
0.258
 0 
LINE
 8 
0
 62 
 7 
 10 
0.877
 20 
0.258
 11 
0.87
 21 
0.258
 0 
LINE
 8 
0
 62 
 7 
 10 
0.87
 20 
0.258
 11 
0.864
 21 
0.252
 0 
LINE
 8 
0
 62 
 7 
 10 
0.864
 20 
0.252
 11 
0.864
 21 
0.239
 0 
LINE
 8 
0
 62 
 7 
 10 
0.864
 20 
0.239
 11 
0.87
 21 
0.233
 0 
LINE
 8 
0
 62 
 7 
 10 
0.407
 20 
0.343
 11 
0.465
 21 
0.343
 0 
LINE
 8 
0
 62 
 7 
 10 
0.465
 20 
0.343
 11 
0.465
 21 
0.433
 0 
LINE
 8 
0
 62 
 7 
 10 
0.465
 20 
0.433
 11 
0.407
 21 
0.433
 0 
LINE
 8 
0
 62 
 7 
 10 
0.367
 20 
0.343
 11 
0.309
 21 
0.343
 0 
LINE
 8 
0
 62 
 7 
 10 
0.309
 20 
0.343
 11 
0.309
 21 
0.433
 0 
LINE
 8 
0
 62 
 7 
 10 
0.309
 20 
0.433
 11 
0.367
 21 
0.433
 0 
LINE
 8 
0
 62 
 7 
 10 
0.523
 20 
0.358
 11 
0.485
 21 
0.358
 0 
LINE
 8 
0
 62 
 7 
 10 
0.485
 20 
0.358
 11 
0.485
 21 
0.377
 0 
LINE
 8 
0
 62 
 7 
 10 
0.485
 20 
0.377
 11 
0.491
 21 
0.383
 0 
LINE
 8 
0
 62 
 7 
 10 
0.491
 20 
0.383
 11 
0.498
 21 
0.383
 0 
LINE
 8 
0
 62 
 7 
 10 
0.498
 20 
0.383
 11 
0.504
 21 
0.377
 0 
LINE
 8 
0
 62 
 7 
 10 
0.504
 20 
0.377
 11 
0.504
 21 
0.358
 0 
LINE
 8 
0
 62 
 7 
 10 
0.504
 20 
0.364
 11 
0.523
 21 
0.383
 0 
LINE
 8 
0
 62 
 7 
 10 
0.491
 20 
0.396
 11 
0.485
 21 
0.402
 0 
LINE
 8 
0
 62 
 7 
 10 
0.485
 20 
0.402
 11 
0.485
 21 
0.415
 0 
LINE
 8 
0
 62 
 7 
 10 
0.485
 20 
0.415
 11 
0.491
 21 
0.421
 0 
LINE
 8 
0
 62 
 7 
 10 
0.491
 20 
0.421
 11 
0.498
 21 
0.421
 0 
LINE
 8 
0
 62 
 7 
 10 
0.498
 20 
0.421
 11 
0.504
 21 
0.415
 0 
LINE
 8 
0
 62 
 7 
 10 
0.504
 20 
0.415
 11 
0.504
 21 
0.402
 0 
LINE
 8 
0
 62 
 7 
 10 
0.504
 20 
0.402
 11 
0.51
 21 
0.396
 0 
LINE
 8 
0
 62 
 7 
 10 
0.51
 20 
0.396
 11 
0.523
 21 
0.396
 0 
LINE
 8 
0
 62 
 7 
 10 
0.523
 20 
0.396
 11 
0.523
 21 
0.421
 0 
LINE
 8 
0
 62 
 7 
 10 
0.368
 20 
0.552
 11 
0.31
 21 
0.552
 0 
LINE
 8 
0
 62 
 7 
 10 
0.31
 20 
0.552
 11 
0.31
 21 
0.462
 0 
LINE
 8 
0
 62 
 7 
 10 
0.31
 20 
0.462
 11 
0.368
 21 
0.462
 0 
LINE
 8 
0
 62 
 7 
 10 
0.408
 20 
0.552
 11 
0.466
 21 
0.552
 0 
LINE
 8 
0
 62 
 7 
 10 
0.466
 20 
0.552
 11 
0.466
 21 
0.462
 0 
LINE
 8 
0
 62 
 7 
 10 
0.466
 20 
0.462
 11 
0.408
 21 
0.462
 0 
LINE
 8 
0
 62 
 7 
 10 
0.491
 20 
0.507
 11 
0.485
 21 
0.501
 0 
LINE
 8 
0
 62 
 7 
 10 
0.485
 20 
0.501
 11 
0.485
 21 
0.488
 0 
LINE
 8 
0
 62 
 7 
 10 
0.485
 20 
0.488
 11 
0.491
 21 
0.482
 0 
LINE
 8 
0
 62 
 7 
 10 
0.491
 20 
0.482
 11 
0.517
 21 
0.482
 0 
LINE
 8 
0
 62 
 7 
 10 
0.517
 20 
0.482
 11 
0.523
 21 
0.488
 0 
LINE
 8 
0
 62 
 7 
 10 
0.523
 20 
0.488
 11 
0.523
 21 
0.501
 0 
LINE
 8 
0
 62 
 7 
 10 
0.523
 20 
0.501
 11 
0.517
 21 
0.507
 0 
LINE
 8 
0
 62 
 7 
 10 
0.491
 20 
0.526
 11 
0.485
 21 
0.533
 0 
LINE
 8 
0
 62 
 7 
 10 
0.485
 20 
0.533
 11 
0.523
 21 
0.533
 0 
LINE
 8 
0
 62 
 7 
 10 
0.523
 20 
0.526
 11 
0.523
 21 
0.539
 0 
LINE
 8 
0
 62 
 7 
 10 
0.368
 20 
0.995
 11 
0.31
 21 
0.995
 0 
LINE
 8 
0
 62 
 7 
 10 
0.31
 20 
0.995
 11 
0.31
 21 
0.905
 0 
LINE
 8 
0
 62 
 7 
 10 
0.31
 20 
0.905
 11 
0.368
 21 
0.905
 0 
LINE
 8 
0
 62 
 7 
 10 
0.408
 20 
0.995
 11 
0.466
 21 
0.995
 0 
LINE
 8 
0
 62 
 7 
 10 
0.466
 20 
0.995
 11 
0.466
 21 
0.905
 0 
LINE
 8 
0
 62 
 7 
 10 
0.466
 20 
0.905
 11 
0.408
 21 
0.905
 0 
LINE
 8 
0
 62 
 7 
 10 
0.523
 20 
0.92
 11 
0.485
 21 
0.92
 0 
LINE
 8 
0
 62 
 7 
 10 
0.485
 20 
0.92
 11 
0.485
 21 
0.939
 0 
LINE
 8 
0
 62 
 7 
 10 
0.485
 20 
0.939
 11 
0.491
 21 
0.945
 0 
LINE
 8 
0
 62 
 7 
 10 
0.491
 20 
0.945
 11 
0.498
 21 
0.945
 0 
LINE
 8 
0
 62 
 7 
 10 
0.498
 20 
0.945
 11 
0.504
 21 
0.939
 0 
LINE
 8 
0
 62 
 7 
 10 
0.504
 20 
0.939
 11 
0.504
 21 
0.92
 0 
LINE
 8 
0
 62 
 7 
 10 
0.504
 20 
0.926
 11 
0.523
 21 
0.945
 0 
LINE
 8 
0
 62 
 7 
 10 
0.491
 20 
0.958
 11 
0.485
 21 
0.958
 0 
LINE
 8 
0
 62 
 7 
 10 
0.485
 20 
0.958
 11 
0.485
 21 
0.983
 0 
LINE
 8 
0
 62 
 7 
 10 
0.485
 20 
0.983
 11 
0.491
 21 
0.983
 0 
LINE
 8 
0
 62 
 7 
 10 
0.491
 20 
0.983
 11 
0.51
 21 
0.964
 0 
LINE
 8 
0
 62 
 7 
 10 
0.51
 20 
0.964
 11 
0.523
 21 
0.964
 0 
LINE
 8 
0
 62 
 7 
 10 
0.407
 20 
0.73
 11 
0.465
 21 
0.73
 0 
LINE
 8 
0
 62 
 7 
 10 
0.465
 20 
0.73
 11 
0.465
 21 
0.82
 0 
LINE
 8 
0
 62 
 7 
 10 
0.465
 20 
0.82
 11 
0.407
 21 
0.82
 0 
LINE
 8 
0
 62 
 7 
 10 
0.367
 20 
0.73
 11 
0.309
 21 
0.73
 0 
LINE
 8 
0
 62 
 7 
 10 
0.309
 20 
0.73
 11 
0.309
 21 
0.82
 0 
LINE
 8 
0
 62 
 7 
 10 
0.309
 20 
0.82
 11 
0.367
 21 
0.82
 0 
LINE
 8 
0
 62 
 7 
 10 
0.523
 20 
0.745
 11 
0.485
 21 
0.745
 0 
LINE
 8 
0
 62 
 7 
 10 
0.485
 20 
0.745
 11 
0.485
 21 
0.764
 0 
LINE
 8 
0
 62 
 7 
 10 
0.485
 20 
0.764
 11 
0.491
 21 
0.77
 0 
LINE
 8 
0
 62 
 7 
 10 
0.491
 20 
0.77
 11 
0.498
 21 
0.77
 0 
LINE
 8 
0
 62 
 7 
 10 
0.498
 20 
0.77
 11 
0.504
 21 
0.764
 0 
LINE
 8 
0
 62 
 7 
 10 
0.504
 20 
0.764
 11 
0.504
 21 
0.745
 0 
LINE
 8 
0
 62 
 7 
 10 
0.504
 20 
0.751
 11 
0.523
 21 
0.77
 0 
LINE
 8 
0
 62 
 7 
 10 
0.51
 20 
0.808
 11 
0.51
 21 
0.783
 0 
LINE
 8 
0
 62 
 7 
 10 
0.51
 20 
0.783
 11 
0.504
 21 
0.783
 0 
LINE
 8 
0
 62 
 7 
 10 
0.504
 20 
0.783
 11 
0.485
 21 
0.802
 0 
LINE
 8 
0
 62 
 7 
 10 
0.485
 20 
0.802
 11 
0.523
 21 
0.802
 0 
LINE
 8 
0
 62 
 7 
 10 
0.382
 20 
1.057
 11 
0.332
 21 
1.057
 0 
LINE
 8 
0
 62 
 7 
 10 
0.332
 20 
1.057
 11 
0.332
 21 
1.078
 0 
LINE
 8 
0
 62 
 7 
 10 
0.382
 20 
1.168
 11 
0.332
 21 
1.168
 0 
LINE
 8 
0
 62 
 7 
 10 
0.43
 20 
1.106
 11 
0.43
 21 
1.119
 0 
LINE
 8 
0
 62 
 7 
 10 
0.332
 20 
1.147
 11 
0.332
 21 
1.168
 0 
LINE
 8 
0
 62 
 7 
 10 
0.461
 20 
1.115
 11 
0.455
 21 
1.109
 0 
LINE
 8 
0
 62 
 7 
 10 
0.455
 20 
1.109
 11 
0.455
 21 
1.096
 0 
LINE
 8 
0
 62 
 7 
 10 
0.455
 20 
1.096
 11 
0.461
 21 
1.09
 0 
LINE
 8 
0
 62 
 7 
 10 
0.461
 20 
1.09
 11 
0.487
 21 
1.09
 0 
LINE
 8 
0
 62 
 7 
 10 
0.487
 20 
1.09
 11 
0.493
 21 
1.096
 0 
LINE
 8 
0
 62 
 7 
 10 
0.493
 20 
1.096
 11 
0.493
 21 
1.103
 0 
LINE
 8 
0
 62 
 7 
 10 
0.493
 20 
1.103
 11 
0.48
 21 
1.115
 0 
LINE
 8 
0
 62 
 7 
 10 
0.48
 20 
1.115
 11 
0.461
 21 
1.115
 0 
LINE
 8 
0
 62 
 7 
 10 
0.48
 20 
1.103
 11 
0.493
 21 
1.115
 0 
LINE
 8 
0
 62 
 7 
 10 
0.461
 20 
1.128
 11 
0.455
 21 
1.134
 0 
LINE
 8 
0
 62 
 7 
 10 
0.455
 20 
1.134
 11 
0.455
 21 
1.147
 0 
LINE
 8 
0
 62 
 7 
 10 
0.455
 20 
1.147
 11 
0.461
 21 
1.153
 0 
LINE
 8 
0
 62 
 7 
 10 
0.461
 20 
1.153
 11 
0.468
 21 
1.153
 0 
LINE
 8 
0
 62 
 7 
 10 
0.468
 20 
1.153
 11 
0.474
 21 
1.147
 0 
LINE
 8 
0
 62 
 7 
 10 
0.474
 20 
1.147
 11 
0.474
 21 
1.134
 0 
LINE
 8 
0
 62 
 7 
 10 
0.474
 20 
1.134
 11 
0.48
 21 
1.128
 0 
LINE
 8 
0
 62 
 7 
 10 
0.48
 20 
1.128
 11 
0.493
 21 
1.128
 0 
LINE
 8 
0
 62 
 7 
 10 
0.493
 20 
1.128
 11 
0.493
 21 
1.153
 0 
LINE
 8 
0
 62 
 7 
 10 
0.475
 20 
0.68
 11 
0.525
 21 
0.68
 0 
LINE
 8 
0
 62 
 7 
 10 
0.525
 20 
0.68
 11 
0.525
 21 
0.597
 0 
LINE
 8 
0
 62 
 7 
 10 
0.525
 20 
0.597
 11 
0.475
 21 
0.597
 0 
LINE
 8 
0
 62 
 7 
 10 
0.475
 20 
0.597
 11 
0.475
 21 
0.68
 0 
LINE
 8 
0
 62 
 7 
 10 
0.328
 20 
0.68
 11 
0.378
 21 
0.68
 0 
LINE
 8 
0
 62 
 7 
 10 
0.378
 20 
0.68
 11 
0.378
 21 
0.597
 0 
LINE
 8 
0
 62 
 7 
 10 
0.378
 20 
0.597
 11 
0.328
 21 
0.597
 0 
LINE
 8 
0
 62 
 7 
 10 
0.328
 20 
0.597
 11 
0.328
 21 
0.68
 0 
LINE
 8 
0
 62 
 7 
 10 
0.31
 20 
0.579
 11 
0.31
 21 
0.699
 0 
LINE
 8 
0
 62 
 7 
 10 
0.54
 20 
0.699
 11 
0.31
 21 
0.699
 0 
LINE
 8 
0
 62 
 7 
 10 
0.46
 20 
0.699
 11 
0.46
 21 
0.579
 0 
LINE
 8 
0
 62 
 7 
 10 
0.625
 20 
1.525
 11 
0.025
 21 
1.525
 0 
LINE
 8 
0
 62 
 7 
 10 
0.025
 20 
1.425
 11 
0.625
 21 
1.425
 0 
LINE
 8 
0
 62 
 7 
 10 
0.625
 20 
1.525
 11 
0.625
 21 
1.425
 0 
LINE
 8 
0
 62 
 7 
 10 
0.025
 20 
1.525
 11 
0.025
 21 
1.425
 0 
LINE
 8 
0
 62 
 7 
 10 
1.625
 20 
1.525
 11 
1.025
 21 
1.525
 0 
LINE
 8 
0
 62 
 7 
 10 
1.025
 20 
1.425
 11 
1.625
 21 
1.425
 0 
LINE
 8 
0
 62 
 7 
 10 
1.625
 20 
1.525
 11 
1.625
 21 
1.425
 0 
LINE
 8 
0
 62 
 7 
 10 
1.025
 20 
1.525
 11 
1.025
 21 
1.425
 0 
LINE
 8 
0
 62 
 7 
 10 
0.3
 20 
0.15
 11 
0.3
 21 
0.112
 0 
LINE
 8 
0
 62 
 7 
 10 
0.325
 20 
0.15
 11 
0.325
 21 
0.112
 0 
LINE
 8 
0
 62 
 7 
 10 
0.3
 20 
0.131
 11 
0.325
 21 
0.131
 0 
LINE
 8 
0
 62 
 7 
 10 
0.363
 20 
0.131
 11 
0.357
 21 
0.137
 0 
LINE
 8 
0
 62 
 7 
 10 
0.357
 20 
0.137
 11 
0.344
 21 
0.137
 0 
LINE
 8 
0
 62 
 7 
 10 
0.344
 20 
0.137
 11 
0.338
 21 
0.131
 0 
LINE
 8 
0
 62 
 7 
 10 
0.338
 20 
0.131
 11 
0.338
 21 
0.118
 0 
LINE
 8 
0
 62 
 7 
 10 
0.338
 20 
0.118
 11 
0.344
 21 
0.112
 0 
LINE
 8 
0
 62 
 7 
 10 
0.344
 20 
0.112
 11 
0.357
 21 
0.112
 0 
LINE
 8 
0
 62 
 7 
 10 
0.357
 20 
0.112
 11 
0.363
 21 
0.118
 0 
LINE
 8 
0
 62 
 7 
 10 
0.363
 20 
0.118
 11 
0.363
 21 
0.131
 0 
LINE
 8 
0
 62 
 7 
 10 
0.376
 20 
0.15
 11 
0.376
 21 
0.112
 0 
LINE
 8 
0
 62 
 7 
 10 
0.376
 20 
0.125
 11 
0.389
 21 
0.137
 0 
LINE
 8 
0
 62 
 7 
 10 
0.389
 20 
0.137
 11 
0.395
 21 
0.137
 0 
LINE
 8 
0
 62 
 7 
 10 
0.395
 20 
0.137
 11 
0.401
 21 
0.131
 0 
LINE
 8 
0
 62 
 7 
 10 
0.401
 20 
0.131
 11 
0.401
 21 
0.118
 0 
LINE
 8 
0
 62 
 7 
 10 
0.401
 20 
0.118
 11 
0.395
 21 
0.112
 0 
LINE
 8 
0
 62 
 7 
 10 
0.395
 20 
0.112
 11 
0.382
 21 
0.112
 0 
LINE
 8 
0
 62 
 7 
 10 
0.382
 20 
0.112
 11 
0.376
 21 
0.118
 0 
LINE
 8 
0
 62 
 7 
 10 
0.414
 20 
0.15
 11 
0.414
 21 
0.112
 0 
LINE
 8 
0
 62 
 7 
 10 
0.414
 20 
0.125
 11 
0.427
 21 
0.137
 0 
LINE
 8 
0
 62 
 7 
 10 
0.427
 20 
0.137
 11 
0.433
 21 
0.137
 0 
LINE
 8 
0
 62 
 7 
 10 
0.433
 20 
0.137
 11 
0.439
 21 
0.131
 0 
LINE
 8 
0
 62 
 7 
 10 
0.439
 20 
0.131
 11 
0.439
 21 
0.118
 0 
LINE
 8 
0
 62 
 7 
 10 
0.439
 20 
0.118
 11 
0.433
 21 
0.112
 0 
LINE
 8 
0
 62 
 7 
 10 
0.433
 20 
0.112
 11 
0.42
 21 
0.112
 0 
LINE
 8 
0
 62 
 7 
 10 
0.42
 20 
0.112
 11 
0.414
 21 
0.118
 0 
LINE
 8 
0
 62 
 7 
 10 
0.452
 20 
0.137
 11 
0.452
 21 
0.118
 0 
LINE
 8 
0
 62 
 7 
 10 
0.452
 20 
0.118
 11 
0.458
 21 
0.112
 0 
LINE
 8 
0
 62 
 7 
 10 
0.458
 20 
0.112
 11 
0.465
 21 
0.112
 0 
LINE
 8 
0
 62 
 7 
 10 
0.465
 20 
0.112
 11 
0.477
 21 
0.125
 0 
LINE
 8 
0
 62 
 7 
 10 
0.477
 20 
0.137
 11 
0.477
 21 
0.106
 0 
LINE
 8 
0
 62 
 7 
 10 
0.477
 20 
0.106
 11 
0.471
 21 
0.099
 0 
LINE
 8 
0
 62 
 7 
 10 
0.471
 20 
0.099
 11 
0.452
 21 
0.099
 0 
LINE
 8 
0
 62 
 7 
 10 
0.49
 20 
0.15
 11 
0.49
 21 
0.112
 0 
LINE
 8 
0
 62 
 7 
 10 
0.49
 20 
0.125
 11 
0.503
 21 
0.137
 0 
LINE
 8 
0
 62 
 7 
 10 
0.503
 20 
0.137
 11 
0.509
 21 
0.137
 0 
LINE
 8 
0
 62 
 7 
 10 
0.509
 20 
0.137
 11 
0.515
 21 
0.131
 0 
LINE
 8 
0
 62 
 7 
 10 
0.515
 20 
0.131
 11 
0.515
 21 
0.118
 0 
LINE
 8 
0
 62 
 7 
 10 
0.515
 20 
0.118
 11 
0.509
 21 
0.112
 0 
LINE
 8 
0
 62 
 7 
 10 
0.509
 20 
0.112
 11 
0.496
 21 
0.112
 0 
LINE
 8 
0
 62 
 7 
 10 
0.496
 20 
0.112
 11 
0.49
 21 
0.118
 0 
LINE
 8 
0
 62 
 7 
 10 
0.553
 20 
0.131
 11 
0.547
 21 
0.137
 0 
LINE
 8 
0
 62 
 7 
 10 
0.547
 20 
0.137
 11 
0.534
 21 
0.137
 0 
LINE
 8 
0
 62 
 7 
 10 
0.534
 20 
0.137
 11 
0.528
 21 
0.131
 0 
LINE
 8 
0
 62 
 7 
 10 
0.528
 20 
0.131
 11 
0.528
 21 
0.118
 0 
LINE
 8 
0
 62 
 7 
 10 
0.528
 20 
0.118
 11 
0.534
 21 
0.112
 0 
LINE
 8 
0
 62 
 7 
 10 
0.534
 20 
0.112
 11 
0.547
 21 
0.112
 0 
LINE
 8 
0
 62 
 7 
 10 
0.547
 20 
0.112
 11 
0.553
 21 
0.118
 0 
LINE
 8 
0
 62 
 7 
 10 
0.553
 20 
0.118
 11 
0.553
 21 
0.131
 0 
LINE
 8 
0
 62 
 7 
 10 
0.572
 20 
0.15
 11 
0.572
 21 
0.118
 0 
LINE
 8 
0
 62 
 7 
 10 
0.572
 20 
0.118
 11 
0.579
 21 
0.112
 0 
LINE
 8 
0
 62 
 7 
 10 
0.579
 20 
0.112
 11 
0.585
 21 
0.112
 0 
LINE
 8 
0
 62 
 7 
 10 
0.585
 20 
0.112
 11 
0.591
 21 
0.118
 0 
LINE
 8 
0
 62 
 7 
 10 
0.566
 20 
0.137
 11 
0.585
 21 
0.137
 0 
LINE
 8 
0
 62 
 7 
 10 
0.617
 20 
0.15
 11 
0.617
 21 
0.144
 0 
LINE
 8 
0
 62 
 7 
 10 
0.61
 20 
0.112
 11 
0.623
 21 
0.112
 0 
LINE
 8 
0
 62 
 7 
 10 
0.61
 20 
0.131
 11 
0.617
 21 
0.131
 0 
LINE
 8 
0
 62 
 7 
 10 
0.617
 20 
0.131
 11 
0.617
 21 
0.112
 0 
LINE
 8 
0
 62 
 7 
 10 
0.667
 20 
0.131
 11 
0.661
 21 
0.137
 0 
LINE
 8 
0
 62 
 7 
 10 
0.661
 20 
0.137
 11 
0.648
 21 
0.137
 0 
LINE
 8 
0
 62 
 7 
 10 
0.648
 20 
0.137
 11 
0.642
 21 
0.131
 0 
LINE
 8 
0
 62 
 7 
 10 
0.642
 20 
0.131
 11 
0.642
 21 
0.118
 0 
LINE
 8 
0
 62 
 7 
 10 
0.642
 20 
0.118
 11 
0.648
 21 
0.112
 0 
LINE
 8 
0
 62 
 7 
 10 
0.648
 20 
0.112
 11 
0.661
 21 
0.112
 0 
LINE
 8 
0
 62 
 7 
 10 
0.661
 20 
0.112
 11 
0.667
 21 
0.118
 0 
LINE
 8 
0
 62 
 7 
 10 
0.705
 20 
0.137
 11 
0.686
 21 
0.137
 0 
LINE
 8 
0
 62 
 7 
 10 
0.686
 20 
0.137
 11 
0.68
 21 
0.131
 0 
LINE
 8 
0
 62 
 7 
 10 
0.68
 20 
0.131
 11 
0.686
 21 
0.125
 0 
LINE
 8 
0
 62 
 7 
 10 
0.686
 20 
0.125
 11 
0.699
 21 
0.125
 0 
LINE
 8 
0
 62 
 7 
 10 
0.699
 20 
0.125
 11 
0.705
 21 
0.118
 0 
LINE
 8 
0
 62 
 7 
 10 
0.705
 20 
0.118
 11 
0.699
 21 
0.112
 0 
LINE
 8 
0
 62 
 7 
 10 
0.699
 20 
0.112
 11 
0.68
 21 
0.112
 0 
LINE
 8 
0
 62 
 7 
 10 
0.756
 20 
0.144
 11 
0.781
 21 
0.118
 0 
LINE
 8 
0
 62 
 7 
 10 
0.794
 20 
0.118
 11 
0.794
 21 
0.144
 0 
LINE
 8 
0
 62 
 7 
 10 
0.794
 20 
0.144
 11 
0.8
 21 
0.15
 0 
LINE
 8 
0
 62 
 7 
 10 
0.8
 20 
0.15
 11 
0.813
 21 
0.15
 0 
LINE
 8 
0
 62 
 7 
 10 
0.813
 20 
0.15
 11 
0.819
 21 
0.144
 0 
LINE
 8 
0
 62 
 7 
 10 
0.819
 20 
0.144
 11 
0.819
 21 
0.118
 0 
LINE
 8 
0
 62 
 7 
 10 
0.819
 20 
0.118
 11 
0.813
 21 
0.112
 0 
LINE
 8 
0
 62 
 7 
 10 
0.813
 20 
0.112
 11 
0.8
 21 
0.112
 0 
LINE
 8 
0
 62 
 7 
 10 
0.8
 20 
0.112
 11 
0.794
 21 
0.118
 0 
LINE
 8 
0
 62 
 7 
 10 
0.794
 20 
0.118
 11 
0.819
 21 
0.144
 0 
LINE
 8 
0
 62 
 7 
 10 
0.832
 20 
0.118
 11 
0.857
 21 
0.144
 0 
LINE
 8 
0
 62 
 7 
 10 
0.3
 20 
0.075
 11 
0.3
 21 
0.037
 0 
LINE
 8 
0
 62 
 7 
 10 
0.3
 20 
0.037
 11 
0.325
 21 
0.037
 0 
LINE
 8 
0
 62 
 7 
 10 
0.363
 20 
0.069
 11 
0.357
 21 
0.075
 0 
LINE
 8 
0
 62 
 7 
 10 
0.357
 20 
0.075
 11 
0.344
 21 
0.075
 0 
LINE
 8 
0
 62 
 7 
 10 
0.344
 20 
0.075
 11 
0.338
 21 
0.069
 0 
LINE
 8 
0
 62 
 7 
 10 
0.338
 20 
0.069
 11 
0.338
 21 
0.043
 0 
LINE
 8 
0
 62 
 7 
 10 
0.338
 20 
0.043
 11 
0.344
 21 
0.037
 0 
LINE
 8 
0
 62 
 7 
 10 
0.344
 20 
0.037
 11 
0.357
 21 
0.037
 0 
LINE
 8 
0
 62 
 7 
 10 
0.357
 20 
0.037
 11 
0.363
 21 
0.043
 0 
LINE
 8 
0
 62 
 7 
 10 
0.376
 20 
0.075
 11 
0.395
 21 
0.075
 0 
LINE
 8 
0
 62 
 7 
 10 
0.395
 20 
0.075
 11 
0.401
 21 
0.069
 0 
LINE
 8 
0
 62 
 7 
 10 
0.401
 20 
0.069
 11 
0.401
 21 
0.043
 0 
LINE
 8 
0
 62 
 7 
 10 
0.401
 20 
0.043
 11 
0.395
 21 
0.037
 0 
LINE
 8 
0
 62 
 7 
 10 
0.395
 20 
0.037
 11 
0.376
 21 
0.037
 0 
LINE
 8 
0
 62 
 7 
 10 
0.382
 20 
0.075
 11 
0.382
 21 
0.037
 0 
LINE
 8 
0
 62 
 7 
 10 
0.452
 20 
0.075
 11 
0.471
 21 
0.075
 0 
LINE
 8 
0
 62 
 7 
 10 
0.471
 20 
0.075
 11 
0.477
 21 
0.069
 0 
LINE
 8 
0
 62 
 7 
 10 
0.477
 20 
0.069
 11 
0.477
 21 
0.062
 0 
LINE
 8 
0
 62 
 7 
 10 
0.477
 20 
0.062
 11 
0.471
 21 
0.056
 0 
LINE
 8 
0
 62 
 7 
 10 
0.471
 20 
0.056
 11 
0.477
 21 
0.05
 0 
LINE
 8 
0
 62 
 7 
 10 
0.477
 20 
0.05
 11 
0.477
 21 
0.043
 0 
LINE
 8 
0
 62 
 7 
 10 
0.477
 20 
0.043
 11 
0.471
 21 
0.037
 0 
LINE
 8 
0
 62 
 7 
 10 
0.471
 20 
0.037
 11 
0.452
 21 
0.037
 0 
LINE
 8 
0
 62 
 7 
 10 
0.458
 20 
0.075
 11 
0.458
 21 
0.037
 0 
LINE
 8 
0
 62 
 7 
 10 
0.458
 20 
0.056
 11 
0.471
 21 
0.056
 0 
LINE
 8 
0
 62 
 7 
 10 
0.496
 20 
0.062
 11 
0.509
 21 
0.062
 0 
LINE
 8 
0
 62 
 7 
 10 
0.509
 20 
0.062
 11 
0.515
 21 
0.056
 0 
LINE
 8 
0
 62 
 7 
 10 
0.515
 20 
0.056
 11 
0.515
 21 
0.037
 0 
LINE
 8 
0
 62 
 7 
 10 
0.515
 20 
0.05
 11 
0.496
 21 
0.05
 0 
LINE
 8 
0
 62 
 7 
 10 
0.496
 20 
0.05
 11 
0.49
 21 
0.043
 0 
LINE
 8 
0
 62 
 7 
 10 
0.49
 20 
0.043
 11 
0.496
 21 
0.037
 0 
LINE
 8 
0
 62 
 7 
 10 
0.496
 20 
0.037
 11 
0.509
 21 
0.037
 0 
LINE
 8 
0
 62 
 7 
 10 
0.509
 20 
0.037
 11 
0.515
 21 
0.043
 0 
LINE
 8 
0
 62 
 7 
 10 
0.553
 20 
0.056
 11 
0.547
 21 
0.062
 0 
LINE
 8 
0
 62 
 7 
 10 
0.547
 20 
0.062
 11 
0.534
 21 
0.062
 0 
LINE
 8 
0
 62 
 7 
 10 
0.534
 20 
0.062
 11 
0.528
 21 
0.056
 0 
LINE
 8 
0
 62 
 7 
 10 
0.528
 20 
0.056
 11 
0.528
 21 
0.043
 0 
LINE
 8 
0
 62 
 7 
 10 
0.528
 20 
0.043
 11 
0.534
 21 
0.037
 0 
LINE
 8 
0
 62 
 7 
 10 
0.534
 20 
0.037
 11 
0.547
 21 
0.037
 0 
LINE
 8 
0
 62 
 7 
 10 
0.547
 20 
0.037
 11 
0.553
 21 
0.043
 0 
LINE
 8 
0
 62 
 7 
 10 
0.566
 20 
0.075
 11 
0.572
 21 
0.075
 0 
LINE
 8 
0
 62 
 7 
 10 
0.572
 20 
0.075
 11 
0.572
 21 
0.037
 0 
LINE
 8 
0
 62 
 7 
 10 
0.591
 20 
0.062
 11 
0.579
 21 
0.05
 0 
LINE
 8 
0
 62 
 7 
 10 
0.579
 20 
0.05
 11 
0.591
 21 
0.037
 0 
LINE
 8 
0
 62 
 7 
 10 
0.572
 20 
0.05
 11 
0.579
 21 
0.05
 0 
LINE
 8 
0
 62 
 7 
 10 
0.604
 20 
0.062
 11 
0.604
 21 
0.024
 0 
LINE
 8 
0
 62 
 7 
 10 
0.604
 20 
0.056
 11 
0.61
 21 
0.062
 0 
LINE
 8 
0
 62 
 7 
 10 
0.61
 20 
0.062
 11 
0.623
 21 
0.062
 0 
LINE
 8 
0
 62 
 7 
 10 
0.623
 20 
0.062
 11 
0.629
 21 
0.056
 0 
LINE
 8 
0
 62 
 7 
 10 
0.629
 20 
0.056
 11 
0.629
 21 
0.043
 0 
LINE
 8 
0
 62 
 7 
 10 
0.629
 20 
0.043
 11 
0.623
 21 
0.037
 0 
LINE
 8 
0
 62 
 7 
 10 
0.623
 20 
0.037
 11 
0.617
 21 
0.037
 0 
LINE
 8 
0
 62 
 7 
 10 
0.617
 20 
0.037
 11 
0.604
 21 
0.05
 0 
LINE
 8 
0
 62 
 7 
 10 
0.648
 20 
0.062
 11 
0.661
 21 
0.062
 0 
LINE
 8 
0
 62 
 7 
 10 
0.661
 20 
0.062
 11 
0.667
 21 
0.056
 0 
LINE
 8 
0
 62 
 7 
 10 
0.667
 20 
0.056
 11 
0.667
 21 
0.037
 0 
LINE
 8 
0
 62 
 7 
 10 
0.667
 20 
0.05
 11 
0.648
 21 
0.05
 0 
LINE
 8 
0
 62 
 7 
 10 
0.648
 20 
0.05
 11 
0.642
 21 
0.043
 0 
LINE
 8 
0
 62 
 7 
 10 
0.642
 20 
0.043
 11 
0.648
 21 
0.037
 0 
LINE
 8 
0
 62 
 7 
 10 
0.648
 20 
0.037
 11 
0.661
 21 
0.037
 0 
LINE
 8 
0
 62 
 7 
 10 
0.661
 20 
0.037
 11 
0.667
 21 
0.043
 0 
LINE
 8 
0
 62 
 7 
 10 
0.705
 20 
0.056
 11 
0.699
 21 
0.062
 0 
LINE
 8 
0
 62 
 7 
 10 
0.699
 20 
0.062
 11 
0.686
 21 
0.062
 0 
LINE
 8 
0
 62 
 7 
 10 
0.686
 20 
0.062
 11 
0.68
 21 
0.056
 0 
LINE
 8 
0
 62 
 7 
 10 
0.68
 20 
0.056
 11 
0.68
 21 
0.043
 0 
LINE
 8 
0
 62 
 7 
 10 
0.68
 20 
0.043
 11 
0.686
 21 
0.037
 0 
LINE
 8 
0
 62 
 7 
 10 
0.686
 20 
0.037
 11 
0.699
 21 
0.037
 0 
LINE
 8 
0
 62 
 7 
 10 
0.699
 20 
0.037
 11 
0.705
 21 
0.043
 0 
LINE
 8 
0
 62 
 7 
 10 
0.718
 20 
0.075
 11 
0.724
 21 
0.075
 0 
LINE
 8 
0
 62 
 7 
 10 
0.724
 20 
0.075
 11 
0.724
 21 
0.037
 0 
LINE
 8 
0
 62 
 7 
 10 
0.743
 20 
0.062
 11 
0.731
 21 
0.05
 0 
LINE
 8 
0
 62 
 7 
 10 
0.731
 20 
0.05
 11 
0.743
 21 
0.037
 0 
LINE
 8 
0
 62 
 7 
 10 
0.724
 20 
0.05
 11 
0.731
 21 
0.05
 0 
LINE
 8 
0
 62 
 7 
 10 
0.794
 20 
0.075
 11 
0.794
 21 
0.056
 0 
LINE
 8 
0
 62 
 7 
 10 
0.794
 20 
0.056
 11 
0.807
 21 
0.043
 0 
LINE
 8 
0
 62 
 7 
 10 
0.807
 20 
0.043
 11 
0.819
 21 
0.056
 0 
LINE
 8 
0
 62 
 7 
 10 
0.819
 20 
0.056
 11 
0.819
 21 
0.075
 0 
LINE
 8 
0
 62 
 7 
 10 
0.807
 20 
0.043
 11 
0.807
 21 
0.037
 0 
LINE
 8 
0
 62 
 7 
 10 
0.832
 20 
0.069
 11 
0.838
 21 
0.075
 0 
LINE
 8 
0
 62 
 7 
 10 
0.838
 20 
0.075
 11 
0.851
 21 
0.075
 0 
LINE
 8 
0
 62 
 7 
 10 
0.851
 20 
0.075
 11 
0.857
 21 
0.069
 0 
LINE
 8 
0
 62 
 7 
 10 
0.857
 20 
0.069
 11 
0.857
 21 
0.062
 0 
LINE
 8 
0
 62 
 7 
 10 
0.857
 20 
0.062
 11 
0.851
 21 
0.056
 0 
LINE
 8 
0
 62 
 7 
 10 
0.851
 20 
0.056
 11 
0.845
 21 
0.056
 0 
LINE
 8 
0
 62 
 7 
 10 
0.851
 20 
0.056
 11 
0.857
 21 
0.05
 0 
LINE
 8 
0
 62 
 7 
 10 
0.857
 20 
0.05
 11 
0.857
 21 
0.043
 0 
LINE
 8 
0
 62 
 7 
 10 
0.857
 20 
0.043
 11 
0.851
 21 
0.037
 0 
LINE
 8 
0
 62 
 7 
 10 
0.851
 20 
0.037
 11 
0.838
 21 
0.037
 0 
LINE
 8 
0
 62 
 7 
 10 
0.838
 20 
0.037
 11 
0.832
 21 
0.043
 0 
LINE
 8 
0
 62 
 7 
 10 
0.883
 20 
0.037
 11 
0.876
 21 
0.037
 0 
LINE
 8 
0
 62 
 7 
 10 
0.876
 20 
0.037
 11 
0.876
 21 
0.043
 0 
LINE
 8 
0
 62 
 7 
 10 
0.876
 20 
0.043
 11 
0.883
 21 
0.043
 0 
LINE
 8 
0
 62 
 7 
 10 
0.883
 20 
0.043
 11 
0.883
 21 
0.037
 0 
LINE
 8 
0
 62 
 7 
 10 
0.908
 20 
0.043
 11 
0.908
 21 
0.069
 0 
LINE
 8 
0
 62 
 7 
 10 
0.908
 20 
0.069
 11 
0.914
 21 
0.075
 0 
LINE
 8 
0
 62 
 7 
 10 
0.914
 20 
0.075
 11 
0.927
 21 
0.075
 0 
LINE
 8 
0
 62 
 7 
 10 
0.927
 20 
0.075
 11 
0.933
 21 
0.069
 0 
LINE
 8 
0
 62 
 7 
 10 
0.933
 20 
0.069
 11 
0.933
 21 
0.043
 0 
LINE
 8 
0
 62 
 7 
 10 
0.933
 20 
0.043
 11 
0.927
 21 
0.037
 0 
LINE
 8 
0
 62 
 7 
 10 
0.927
 20 
0.037
 11 
0.914
 21 
0.037
 0 
LINE
 8 
0
 62 
 7 
 10 
0.914
 20 
0.037
 11 
0.908
 21 
0.043
 0 
LINE
 8 
0
 62 
 7 
 10 
0.908
 20 
0.043
 11 
0.933
 21 
0.069
 0 
LINE
 8 
0
 62 
 7 
 10 
1.575
 20 
0.844
 11 
1.575
 21 
0.544
 0 
LINE
 8 
0
 62 
 7 
 10 
1.275
 20 
0.544
 11 
1.575
 21 
0.544
 0 
LINE
 8 
0
 62 
 7 
 10 
1.275
 20 
0.544
 11 
1.275
 21 
0.844
 0 
LINE
 8 
0
 62 
 7 
 10 
1.575
 20 
0.844
 11 
1.275
 21 
0.844
 0 
LINE
 8 
0
 62 
 7 
 10 
1.263
 20 
0.544
 11 
1.225
 21 
0.544
 0 
LINE
 8 
0
 62 
 7 
 10 
1.225
 20 
0.544
 11 
1.225
 21 
0.563
 0 
LINE
 8 
0
 62 
 7 
 10 
1.225
 20 
0.563
 11 
1.231
 21 
0.569
 0 
LINE
 8 
0
 62 
 7 
 10 
1.231
 20 
0.569
 11 
1.238
 21 
0.569
 0 
LINE
 8 
0
 62 
 7 
 10 
1.238
 20 
0.569
 11 
1.244
 21 
0.563
 0 
LINE
 8 
0
 62 
 7 
 10 
1.244
 20 
0.563
 11 
1.244
 21 
0.544
 0 
LINE
 8 
0
 62 
 7 
 10 
1.244
 20 
0.55
 11 
1.263
 21 
0.569
 0 
LINE
 8 
0
 62 
 7 
 10 
1.225
 20 
0.601
 11 
1.225
 21 
0.595
 0 
LINE
 8 
0
 62 
 7 
 10 
1.225
 20 
0.595
 11 
1.238
 21 
0.582
 0 
LINE
 8 
0
 62 
 7 
 10 
1.238
 20 
0.582
 11 
1.257
 21 
0.582
 0 
LINE
 8 
0
 62 
 7 
 10 
1.257
 20 
0.582
 11 
1.263
 21 
0.588
 0 
LINE
 8 
0
 62 
 7 
 10 
1.263
 20 
0.588
 11 
1.263
 21 
0.601
 0 
LINE
 8 
0
 62 
 7 
 10 
1.263
 20 
0.601
 11 
1.257
 21 
0.607
 0 
LINE
 8 
0
 62 
 7 
 10 
1.257
 20 
0.607
 11 
1.25
 21 
0.607
 0 
LINE
 8 
0
 62 
 7 
 10 
1.25
 20 
0.607
 11 
1.244
 21 
0.601
 0 
LINE
 8 
0
 62 
 7 
 10 
1.244
 20 
0.601
 11 
1.244
 21 
0.588
 0 
LINE
 8 
0
 62 
 7 
 10 
1.244
 20 
0.588
 11 
1.25
 21 
0.582
 0 
LINE
 8 
0
 62 
 7 
 10 
1.38
 20 
1.026
 11 
1.38
 21 
0.968
 0 
LINE
 8 
0
 62 
 7 
 10 
1.38
 20 
0.968
 11 
1.47
 21 
0.968
 0 
LINE
 8 
0
 62 
 7 
 10 
1.47
 20 
0.968
 11 
1.47
 21 
1.026
 0 
LINE
 8 
0
 62 
 7 
 10 
1.38
 20 
1.066
 11 
1.38
 21 
1.124
 0 
LINE
 8 
0
 62 
 7 
 10 
1.38
 20 
1.124
 11 
1.47
 21 
1.124
 0 
LINE
 8 
0
 62 
 7 
 10 
1.47
 20 
1.124
 11 
1.47
 21 
1.066
 0 
LINE
 8 
0
 62 
 7 
 10 
1.395
 20 
0.91
 11 
1.395
 21 
0.948
 0 
LINE
 8 
0
 62 
 7 
 10 
1.395
 20 
0.948
 11 
1.414
 21 
0.948
 0 
LINE
 8 
0
 62 
 7 
 10 
1.414
 20 
0.948
 11 
1.42
 21 
0.942
 0 
LINE
 8 
0
 62 
 7 
 10 
1.42
 20 
0.942
 11 
1.42
 21 
0.935
 0 
LINE
 8 
0
 62 
 7 
 10 
1.42
 20 
0.935
 11 
1.414
 21 
0.929
 0 
LINE
 8 
0
 62 
 7 
 10 
1.414
 20 
0.929
 11 
1.395
 21 
0.929
 0 
LINE
 8 
0
 62 
 7 
 10 
1.401
 20 
0.929
 11 
1.42
 21 
0.91
 0 
LINE
 8 
0
 62 
 7 
 10 
1.458
 20 
0.948
 11 
1.433
 21 
0.948
 0 
LINE
 8 
0
 62 
 7 
 10 
1.433
 20 
0.948
 11 
1.433
 21 
0.935
 0 
LINE
 8 
0
 62 
 7 
 10 
1.433
 20 
0.935
 11 
1.452
 21 
0.935
 0 
LINE
 8 
0
 62 
 7 
 10 
1.452
 20 
0.935
 11 
1.458
 21 
0.929
 0 
LINE
 8 
0
 62 
 7 
 10 
1.458
 20 
0.929
 11 
1.458
 21 
0.916
 0 
LINE
 8 
0
 62 
 7 
 10 
1.458
 20 
0.916
 11 
1.452
 21 
0.91
 0 
LINE
 8 
0
 62 
 7 
 10 
1.452
 20 
0.91
 11 
1.439
 21 
0.91
 0 
LINE
 8 
0
 62 
 7 
 10 
1.439
 20 
0.91
 11 
1.433
 21 
0.916
 0 
LINE
 8 
0
 62 
 7 
 10 
1.23
 20 
1.026
 11 
1.23
 21 
0.968
 0 
LINE
 8 
0
 62 
 7 
 10 
1.23
 20 
0.968
 11 
1.32
 21 
0.968
 0 
LINE
 8 
0
 62 
 7 
 10 
1.32
 20 
0.968
 11 
1.32
 21 
1.026
 0 
LINE
 8 
0
 62 
 7 
 10 
1.23
 20 
1.066
 11 
1.23
 21 
1.124
 0 
LINE
 8 
0
 62 
 7 
 10 
1.23
 20 
1.124
 11 
1.32
 21 
1.124
 0 
LINE
 8 
0
 62 
 7 
 10 
1.32
 20 
1.124
 11 
1.32
 21 
1.066
 0 
LINE
 8 
0
 62 
 7 
 10 
1.245
 20 
0.91
 11 
1.245
 21 
0.948
 0 
LINE
 8 
0
 62 
 7 
 10 
1.245
 20 
0.948
 11 
1.264
 21 
0.948
 0 
LINE
 8 
0
 62 
 7 
 10 
1.264
 20 
0.948
 11 
1.27
 21 
0.942
 0 
LINE
 8 
0
 62 
 7 
 10 
1.27
 20 
0.942
 11 
1.27
 21 
0.935
 0 
LINE
 8 
0
 62 
 7 
 10 
1.27
 20 
0.935
 11 
1.264
 21 
0.929
 0 
LINE
 8 
0
 62 
 7 
 10 
1.264
 20 
0.929
 11 
1.245
 21 
0.929
 0 
LINE
 8 
0
 62 
 7 
 10 
1.251
 20 
0.929
 11 
1.27
 21 
0.91
 0 
LINE
 8 
0
 62 
 7 
 10 
1.283
 20 
0.942
 11 
1.289
 21 
0.948
 0 
LINE
 8 
0
 62 
 7 
 10 
1.289
 20 
0.948
 11 
1.302
 21 
0.948
 0 
LINE
 8 
0
 62 
 7 
 10 
1.302
 20 
0.948
 11 
1.308
 21 
0.942
 0 
LINE
 8 
0
 62 
 7 
 10 
1.308
 20 
0.942
 11 
1.308
 21 
0.935
 0 
LINE
 8 
0
 62 
 7 
 10 
1.308
 20 
0.935
 11 
1.302
 21 
0.929
 0 
LINE
 8 
0
 62 
 7 
 10 
1.302
 20 
0.929
 11 
1.296
 21 
0.929
 0 
LINE
 8 
0
 62 
 7 
 10 
1.302
 20 
0.929
 11 
1.308
 21 
0.923
 0 
LINE
 8 
0
 62 
 7 
 10 
1.308
 20 
0.923
 11 
1.308
 21 
0.916
 0 
LINE
 8 
0
 62 
 7 
 10 
1.308
 20 
0.916
 11 
1.302
 21 
0.91
 0 
LINE
 8 
0
 62 
 7 
 10 
1.302
 20 
0.91
 11 
1.289
 21 
0.91
 0 
LINE
 8 
0
 62 
 7 
 10 
1.289
 20 
0.91
 11 
1.283
 21 
0.916
 0 
LINE
 8 
0
 62 
 7 
 10 
0.743
 20 
0.395
 11 
0.685
 21 
0.395
 0 
LINE
 8 
0
 62 
 7 
 10 
0.685
 20 
0.395
 11 
0.685
 21 
0.305
 0 
LINE
 8 
0
 62 
 7 
 10 
0.685
 20 
0.305
 11 
0.743
 21 
0.305
 0 
LINE
 8 
0
 62 
 7 
 10 
0.783
 20 
0.395
 11 
0.841
 21 
0.395
 0 
LINE
 8 
0
 62 
 7 
 10 
0.841
 20 
0.395
 11 
0.841
 21 
0.305
 0 
LINE
 8 
0
 62 
 7 
 10 
0.841
 20 
0.305
 11 
0.783
 21 
0.305
 0 
LINE
 8 
0
 62 
 7 
 10 
0.663
 20 
0.325
 11 
0.625
 21 
0.325
 0 
LINE
 8 
0
 62 
 7 
 10 
0.625
 20 
0.325
 11 
0.625
 21 
0.344
 0 
LINE
 8 
0
 62 
 7 
 10 
0.625
 20 
0.344
 11 
0.631
 21 
0.35
 0 
LINE
 8 
0
 62 
 7 
 10 
0.631
 20 
0.35
 11 
0.638
 21 
0.35
 0 
LINE
 8 
0
 62 
 7 
 10 
0.638
 20 
0.35
 11 
0.644
 21 
0.344
 0 
LINE
 8 
0
 62 
 7 
 10 
0.644
 20 
0.344
 11 
0.644
 21 
0.325
 0 
LINE
 8 
0
 62 
 7 
 10 
0.644
 20 
0.331
 11 
0.663
 21 
0.35
 0 
LINE
 8 
0
 62 
 7 
 10 
0.631
 20 
0.369
 11 
0.625
 21 
0.376
 0 
LINE
 8 
0
 62 
 7 
 10 
0.625
 20 
0.376
 11 
0.663
 21 
0.376
 0 
LINE
 8 
0
 62 
 7 
 10 
0.663
 20 
0.369
 11 
0.663
 21 
0.382
 0 
LINE
 8 
0
 62 
 7 
 10 
0.85
 20 
1.145
 11 
0.745
 21 
1.145
 0 
LINE
 8 
0
 62 
 7 
 10 
0.745
 20 
1.145
 11 
0.745
 21 
0.705
 0 
LINE
 8 
0
 62 
 7 
 10 
0.745
 20 
0.705
 11 
0.981
 21 
0.705
 0 
LINE
 8 
0
 62 
 7 
 10 
0.981
 20 
0.705
 11 
0.981
 21 
1.145
 0 
LINE
 8 
0
 62 
 7 
 10 
0.981
 20 
1.145
 11 
0.876
 21 
1.145
 0 
LINE
 8 
0
 62 
 7 
 10 
0.876
 20 
1.145
 11 
0.876
 21 
1.119
 0 
LINE
 8 
0
 62 
 7 
 10 
0.876
 20 
1.119
 11 
0.85
 21 
1.119
 0 
LINE
 8 
0
 62 
 7 
 10 
0.85
 20 
1.119
 11 
0.85
 21 
1.145
 0 
LINE
 8 
0
 62 
 7 
 10 
0.838
 20 
0.875
 11 
0.87
 21 
0.875
 0 
LINE
 8 
0
 62 
 7 
 10 
0.87
 20 
0.875
 11 
0.876
 21 
0.881
 0 
LINE
 8 
0
 62 
 7 
 10 
0.876
 20 
0.881
 11 
0.876
 21 
0.894
 0 
LINE
 8 
0
 62 
 7 
 10 
0.876
 20 
0.894
 11 
0.87
 21 
0.9
 0 
LINE
 8 
0
 62 
 7 
 10 
0.87
 20 
0.9
 11 
0.838
 21 
0.9
 0 
LINE
 8 
0
 62 
 7 
 10 
0.844
 20 
0.919
 11 
0.838
 21 
0.926
 0 
LINE
 8 
0
 62 
 7 
 10 
0.838
 20 
0.926
 11 
0.876
 21 
0.926
 0 
LINE
 8 
0
 62 
 7 
 10 
0.876
 20 
0.919
 11 
0.876
 21 
0.932
 0 
LINE
 8 
0
 62 
 7 
 10 
0.407
 20 
1.205
 11 
0.465
 21 
1.205
 0 
LINE
 8 
0
 62 
 7 
 10 
0.465
 20 
1.205
 11 
0.465
 21 
1.295
 0 
LINE
 8 
0
 62 
 7 
 10 
0.465
 20 
1.295
 11 
0.407
 21 
1.295
 0 
LINE
 8 
0
 62 
 7 
 10 
0.367
 20 
1.205
 11 
0.309
 21 
1.205
 0 
LINE
 8 
0
 62 
 7 
 10 
0.309
 20 
1.205
 11 
0.309
 21 
1.295
 0 
LINE
 8 
0
 62 
 7 
 10 
0.309
 20 
1.295
 11 
0.367
 21 
1.295
 0 
LINE
 8 
0
 62 
 7 
 10 
0.518
 20 
1.22
 11 
0.48
 21 
1.22
 0 
LINE
 8 
0
 62 
 7 
 10 
0.48
 20 
1.22
 11 
0.48
 21 
1.239
 0 
LINE
 8 
0
 62 
 7 
 10 
0.48
 20 
1.239
 11 
0.486
 21 
1.245
 0 
LINE
 8 
0
 62 
 7 
 10 
0.486
 20 
1.245
 11 
0.493
 21 
1.245
 0 
LINE
 8 
0
 62 
 7 
 10 
0.493
 20 
1.245
 11 
0.499
 21 
1.239
 0 
LINE
 8 
0
 62 
 7 
 10 
0.499
 20 
1.239
 11 
0.499
 21 
1.22
 0 
LINE
 8 
0
 62 
 7 
 10 
0.499
 20 
1.226
 11 
0.518
 21 
1.245
 0 
LINE
 8 
0
 62 
 7 
 10 
0.499
 20 
1.264
 11 
0.493
 21 
1.258
 0 
LINE
 8 
0
 62 
 7 
 10 
0.493
 20 
1.258
 11 
0.486
 21 
1.258
 0 
LINE
 8 
0
 62 
 7 
 10 
0.486
 20 
1.258
 11 
0.48
 21 
1.264
 0 
LINE
 8 
0
 62 
 7 
 10 
0.48
 20 
1.264
 11 
0.48
 21 
1.277
 0 
LINE
 8 
0
 62 
 7 
 10 
0.48
 20 
1.277
 11 
0.486
 21 
1.283
 0 
LINE
 8 
0
 62 
 7 
 10 
0.486
 20 
1.283
 11 
0.493
 21 
1.283
 0 
LINE
 8 
0
 62 
 7 
 10 
0.493
 20 
1.283
 11 
0.499
 21 
1.277
 0 
LINE
 8 
0
 62 
 7 
 10 
0.499
 20 
1.277
 11 
0.499
 21 
1.264
 0 
LINE
 8 
0
 62 
 7 
 10 
0.499
 20 
1.264
 11 
0.505
 21 
1.258
 0 
LINE
 8 
0
 62 
 7 
 10 
0.505
 20 
1.258
 11 
0.512
 21 
1.258
 0 
LINE
 8 
0
 62 
 7 
 10 
0.512
 20 
1.258
 11 
0.518
 21 
1.264
 0 
LINE
 8 
0
 62 
 7 
 10 
0.518
 20 
1.264
 11 
0.518
 21 
1.277
 0 
LINE
 8 
0
 62 
 7 
 10 
0.518
 20 
1.277
 11 
0.512
 21 
1.283
 0 
LINE
 8 
0
 62 
 7 
 10 
0.512
 20 
1.283
 11 
0.505
 21 
1.283
 0 
LINE
 8 
0
 62 
 7 
 10 
0.505
 20 
1.283
 11 
0.499
 21 
1.277
 0 
LINE
 8 
0
 62 
 7 
 10 
1.233
 20 
1.157
 11 
1.183
 21 
1.157
 0 
LINE
 8 
0
 62 
 7 
 10 
1.183
 20 
1.157
 11 
1.183
 21 
1.178
 0 
LINE
 8 
0
 62 
 7 
 10 
1.233
 20 
1.268
 11 
1.183
 21 
1.268
 0 
LINE
 8 
0
 62 
 7 
 10 
1.281
 20 
1.206
 11 
1.281
 21 
1.219
 0 
LINE
 8 
0
 62 
 7 
 10 
1.183
 20 
1.247
 11 
1.183
 21 
1.268
 0 
LINE
 8 
0
 62 
 7 
 10 
1.311
 20 
1.21
 11 
1.305
 21 
1.204
 0 
LINE
 8 
0
 62 
 7 
 10 
1.305
 20 
1.204
 11 
1.305
 21 
1.191
 0 
LINE
 8 
0
 62 
 7 
 10 
1.305
 20 
1.191
 11 
1.311
 21 
1.185
 0 
LINE
 8 
0
 62 
 7 
 10 
1.311
 20 
1.185
 11 
1.337
 21 
1.185
 0 
LINE
 8 
0
 62 
 7 
 10 
1.337
 20 
1.185
 11 
1.343
 21 
1.191
 0 
LINE
 8 
0
 62 
 7 
 10 
1.343
 20 
1.191
 11 
1.343
 21 
1.198
 0 
LINE
 8 
0
 62 
 7 
 10 
1.343
 20 
1.198
 11 
1.33
 21 
1.21
 0 
LINE
 8 
0
 62 
 7 
 10 
1.33
 20 
1.21
 11 
1.311
 21 
1.21
 0 
LINE
 8 
0
 62 
 7 
 10 
1.33
 20 
1.198
 11 
1.343
 21 
1.21
 0 
LINE
 8 
0
 62 
 7 
 10 
1.311
 20 
1.229
 11 
1.305
 21 
1.236
 0 
LINE
 8 
0
 62 
 7 
 10 
1.305
 20 
1.236
 11 
1.343
 21 
1.236
 0 
LINE
 8 
0
 62 
 7 
 10 
1.343
 20 
1.229
 11 
1.343
 21 
1.242
 0 
LINE
 8 
0
 62 
 7 
 10 
0.138
 20 
0.66
 11 
0.213
 21 
0.66
 0 
LINE
 8 
0
 62 
 7 
 10 
0.213
 20 
0.66
 11 
0.213
 21 
0.585
 0 
LINE
 8 
0
 62 
 7 
 10 
0.213
 20 
0.585
 11 
0.138
 21 
0.585
 0 
LINE
 8 
0
 62 
 7 
 10 
0.138
 20 
0.585
 11 
0.138
 21 
0.66
 0 
CIRCLE
 8 
0
 62 
 7 
 10 
0.175
 20 
0.622
 40 
0.02
 0 
CIRCLE
 8 
0
 62 
 7 
 10 
0.175
 20 
0.522
 40 
0.038
 0 
CIRCLE
 8 
0
 62 
 7 
 10 
0.175
 20 
0.522
 40 
0.02
 0 
CIRCLE
 8 
0
 62 
 7 
 10 
0.175
 20 
0.422
 40 
0.038
 0 
CIRCLE
 8 
0
 62 
 7 
 10 
0.175
 20 
0.422
 40 
0.02
 0 
LINE
 8 
0
 62 
 7 
 10 
0.225
 20 
0.372
 11 
0.225
 21 
0.672
 0 
LINE
 8 
0
 62 
 7 
 10 
0.125
 20 
0.672
 11 
0.225
 21 
0.672
 0 
LINE
 8 
0
 62 
 7 
 10 
0.125
 20 
0.372
 11 
0.225
 21 
0.372
 0 
LINE
 8 
0
 62 
 7 
 10 
0.125
 20 
0.372
 11 
0.125
 21 
0.672
 0 
LINE
 8 
0
 62 
 7 
 10 
0.146
 20 
0.719
 11 
0.165
 21 
0.719
 0 
LINE
 8 
0
 62 
 7 
 10 
0.165
 20 
0.719
 11 
0.165
 21 
0.687
 0 
LINE
 8 
0
 62 
 7 
 10 
0.165
 20 
0.687
 11 
0.159
 21 
0.681
 0 
LINE
 8 
0
 62 
 7 
 10 
0.159
 20 
0.681
 11 
0.146
 21 
0.681
 0 
LINE
 8 
0
 62 
 7 
 10 
0.146
 20 
0.681
 11 
0.14
 21 
0.687
 0 
LINE
 8 
0
 62 
 7 
 10 
0.178
 20 
0.713
 11 
0.184
 21 
0.719
 0 
LINE
 8 
0
 62 
 7 
 10 
0.184
 20 
0.719
 11 
0.197
 21 
0.719
 0 
LINE
 8 
0
 62 
 7 
 10 
0.197
 20 
0.719
 11 
0.203
 21 
0.713
 0 
LINE
 8 
0
 62 
 7 
 10 
0.203
 20 
0.713
 11 
0.203
 21 
0.706
 0 
LINE
 8 
0
 62 
 7 
 10 
0.203
 20 
0.706
 11 
0.197
 21 
0.7
 0 
LINE
 8 
0
 62 
 7 
 10 
0.197
 20 
0.7
 11 
0.184
 21 
0.7
 0 
LINE
 8 
0
 62 
 7 
 10 
0.184
 20 
0.7
 11 
0.178
 21 
0.694
 0 
LINE
 8 
0
 62 
 7 
 10 
0.178
 20 
0.694
 11 
0.178
 21 
0.681
 0 
LINE
 8 
0
 62 
 7 
 10 
0.178
 20 
0.681
 11 
0.203
 21 
0.681
 0 
LINE
 8 
0
 62 
 7 
 10 
0.83
 20 
0.63
 11 
0.869
 21 
0.63
 0 
LINE
 8 
0
 62 
 7 
 10 
0.869
 20 
0.63
 11 
0.869
 21 
0.469
 0 
LINE
 8 
0
 62 
 7 
 10 
0.869
 20 
0.469
 11 
0.83
 21 
0.469
 0 
LINE
 8 
0
 62 
 7 
 10 
0.83
 20 
0.469
 11 
0.83
 21 
0.63
 0 
LINE
 8 
0
 62 
 7 
 10 
0.78
 20 
0.63
 11 
0.808
 21 
0.63
 0 
LINE
 8 
0
 62 
 7 
 10 
0.808
 20 
0.63
 11 
0.808
 21 
0.469
 0 
LINE
 8 
0
 62 
 7 
 10 
0.808
 20 
0.469
 11 
0.78
 21 
0.469
 0 
LINE
 8 
0
 62 
 7 
 10 
0.78
 20 
0.469
 11 
0.78
 21 
0.63
 0 
LINE
 8 
0
 62 
 7 
 10 
0.891
 20 
0.63
 11 
0.919
 21 
0.63
 0 
LINE
 8 
0
 62 
 7 
 10 
0.919
 20 
0.63
 11 
0.919
 21 
0.469
 0 
LINE
 8 
0
 62 
 7 
 10 
0.919
 20 
0.469
 11 
0.891
 21 
0.469
 0 
LINE
 8 
0
 62 
 7 
 10 
0.891
 20 
0.469
 11 
0.891
 21 
0.63
 0 
LINE
 8 
0
 62 
 7 
 10 
0.766
 20 
0.65
 11 
0.934
 21 
0.65
 0 
LINE
 8 
0
 62 
 7 
 10 
0.934
 20 
0.45
 11 
0.934
 21 
0.65
 0 
LINE
 8 
0
 62 
 7 
 10 
0.934
 20 
0.446
 11 
0.766
 21 
0.446
 0 
LINE
 8 
0
 62 
 7 
 10 
0.766
 20 
0.446
 11 
0.766
 21 
0.65
 0 
LINE
 8 
0
 62 
 7 
 10 
0.715
 20 
0.515
 11 
0.721
 21 
0.515
 0 
LINE
 8 
0
 62 
 7 
 10 
0.721
 20 
0.515
 11 
0.734
 21 
0.528
 0 
LINE
 8 
0
 62 
 7 
 10 
0.734
 20 
0.528
 11 
0.721
 21 
0.54
 0 
LINE
 8 
0
 62 
 7 
 10 
0.721
 20 
0.54
 11 
0.715
 21 
0.54
 0 
LINE
 8 
0
 62 
 7 
 10 
0.753
 20 
0.528
 11 
0.734
 21 
0.528
 0 
LINE
 8 
0
 62 
 7 
 10 
0.721
 20 
0.559
 11 
0.715
 21 
0.566
 0 
LINE
 8 
0
 62 
 7 
 10 
0.715
 20 
0.566
 11 
0.753
 21 
0.566
 0 
LINE
 8 
0
 62 
 7 
 10 
0.753
 20 
0.559
 11 
0.753
 21 
0.572
 0 
LINE
 8 
0
 62 
 7 
 10 
0.31
 20 
0.579
 11 
0.54
 21 
0.579
 0 
LINE
 8 
0
 62 
 7 
 10 
0.54
 20 
0.699
 11 
0.54
 21 
0.579
 0 
LINE
 8 
0
 62 
 7 
 10 
0.555
 20 
0.604
 11 
0.555
 21 
0.623
 0 
LINE
 8 
0
 62 
 7 
 10 
0.555
 20 
0.623
 11 
0.561
 21 
0.629
 0 
LINE
 8 
0
 62 
 7 
 10 
0.561
 20 
0.629
 11 
0.587
 21 
0.629
 0 
LINE
 8 
0
 62 
 7 
 10 
0.587
 20 
0.629
 11 
0.593
 21 
0.623
 0 
LINE
 8 
0
 62 
 7 
 10 
0.593
 20 
0.623
 11 
0.593
 21 
0.604
 0 
LINE
 8 
0
 62 
 7 
 10 
0.555
 20 
0.61
 11 
0.593
 21 
0.61
 0 
LINE
 8 
0
 62 
 7 
 10 
0.561
 20 
0.648
 11 
0.555
 21 
0.655
 0 
LINE
 8 
0
 62 
 7 
 10 
0.555
 20 
0.655
 11 
0.593
 21 
0.655
 0 
LINE
 8 
0
 62 
 7 
 10 
0.593
 20 
0.648
 11 
0.593
 21 
0.661
 0 
LINE
 8 
0
 62 
 7 
 10 
0.1
 20 
0.225
 11 
0.075
 21 
0.225
 0 
LINE
 8 
0
 62 
 7 
 10 
0.075
 20 
0.225
 11 
0.075
 21 
0.275
 0 
LINE
 8 
0
 62 
 7 
 10 
0.075
 20 
0.275
 11 
0.075
 21 
0.175
 0 
LINE
 8 
0
 62 
 7 
 10 
0.1
 20 
0.525
 11 
0.075
 21 
0.525
 0 
LINE
 8 
0
 62 
 7 
 10 
0.075
 20 
0.525
 11 
0.075
 21 
0.575
 0 
LINE
 8 
0
 62 
 7 
 10 
0.075
 20 
0.575
 11 
0.075
 21 
0.475
 0 
LINE
 8 
0
 62 
 7 
 10 
0.998
 20 
0.08
 11 
0.96
 21 
0.08
 0 
LINE
 8 
0
 62 
 7 
 10 
0.96
 20 
0.08
 11 
0.96
 21 
0.099
 0 
LINE
 8 
0
 62 
 7 
 10 
0.96
 20 
0.099
 11 
0.966
 21 
0.105
 0 
LINE
 8 
0
 62 
 7 
 10 
0.966
 20 
0.105
 11 
0.973
 21 
0.105
 0 
LINE
 8 
0
 62 
 7 
 10 
0.973
 20 
0.105
 11 
0.979
 21 
0.099
 0 
LINE
 8 
0
 62 
 7 
 10 
0.979
 20 
0.099
 11 
0.979
 21 
0.08
 0 
LINE
 8 
0
 62 
 7 
 10 
0.966
 20 
0.143
 11 
0.96
 21 
0.137
 0 
LINE
 8 
0
 62 
 7 
 10 
0.96
 20 
0.137
 11 
0.96
 21 
0.124
 0 
LINE
 8 
0
 62 
 7 
 10 
0.96
 20 
0.124
 11 
0.966
 21 
0.118
 0 
LINE
 8 
0
 62 
 7 
 10 
0.966
 20 
0.118
 11 
0.992
 21 
0.118
 0 
LINE
 8 
0
 62 
 7 
 10 
0.992
 20 
0.118
 11 
0.998
 21 
0.124
 0 
LINE
 8 
0
 62 
 7 
 10 
0.998
 20 
0.124
 11 
0.998
 21 
0.143
 0 
LINE
 8 
0
 62 
 7 
 10 
0.998
 20 
0.143
 11 
0.985
 21 
0.143
 0 
LINE
 8 
0
 62 
 7 
 10 
0.985
 20 
0.143
 11 
0.985
 21 
0.137
 0 
LINE
 8 
0
 62 
 7 
 10 
0.998
 20 
0.156
 11 
0.96
 21 
0.156
 0 
LINE
 8 
0
 62 
 7 
 10 
0.96
 20 
0.156
 11 
0.973
 21 
0.169
 0 
LINE
 8 
0
 62 
 7 
 10 
0.973
 20 
0.169
 11 
0.979
 21 
0.169
 0 
LINE
 8 
0
 62 
 7 
 10 
0.973
 20 
0.169
 11 
0.96
 21 
0.181
 0 
LINE
 8 
0
 62 
 7 
 10 
0.96
 20 
0.181
 11 
0.998
 21 
0.181
 0 
LINE
 8 
0
 62 
 7 
 10 
1.098
 20 
0.08
 11 
1.06
 21 
0.08
 0 
LINE
 8 
0
 62 
 7 
 10 
1.06
 20 
0.08
 11 
1.06
 21 
0.099
 0 
LINE
 8 
0
 62 
 7 
 10 
1.06
 20 
0.099
 11 
1.066
 21 
0.105
 0 
LINE
 8 
0
 62 
 7 
 10 
1.066
 20 
0.105
 11 
1.073
 21 
0.105
 0 
LINE
 8 
0
 62 
 7 
 10 
1.073
 20 
0.105
 11 
1.079
 21 
0.099
 0 
LINE
 8 
0
 62 
 7 
 10 
1.079
 20 
0.099
 11 
1.079
 21 
0.08
 0 
LINE
 8 
0
 62 
 7 
 10 
1.066
 20 
0.143
 11 
1.06
 21 
0.137
 0 
LINE
 8 
0
 62 
 7 
 10 
1.06
 20 
0.137
 11 
1.06
 21 
0.124
 0 
LINE
 8 
0
 62 
 7 
 10 
1.06
 20 
0.124
 11 
1.066
 21 
0.118
 0 
LINE
 8 
0
 62 
 7 
 10 
1.066
 20 
0.118
 11 
1.092
 21 
0.118
 0 
LINE
 8 
0
 62 
 7 
 10 
1.092
 20 
0.118
 11 
1.098
 21 
0.124
 0 
LINE
 8 
0
 62 
 7 
 10 
1.098
 20 
0.124
 11 
1.098
 21 
0.143
 0 
LINE
 8 
0
 62 
 7 
 10 
1.098
 20 
0.143
 11 
1.085
 21 
0.143
 0 
LINE
 8 
0
 62 
 7 
 10 
1.085
 20 
0.143
 11 
1.085
 21 
0.137
 0 
LINE
 8 
0
 62 
 7 
 10 
1.066
 20 
0.181
 11 
1.06
 21 
0.175
 0 
LINE
 8 
0
 62 
 7 
 10 
1.06
 20 
0.175
 11 
1.06
 21 
0.162
 0 
LINE
 8 
0
 62 
 7 
 10 
1.06
 20 
0.162
 11 
1.066
 21 
0.156
 0 
LINE
 8 
0
 62 
 7 
 10 
1.066
 20 
0.156
 11 
1.092
 21 
0.156
 0 
LINE
 8 
0
 62 
 7 
 10 
1.092
 20 
0.156
 11 
1.098
 21 
0.162
 0 
LINE
 8 
0
 62 
 7 
 10 
1.098
 20 
0.162
 11 
1.098
 21 
0.175
 0 
LINE
 8 
0
 62 
 7 
 10 
1.098
 20 
0.175
 11 
1.092
 21 
0.181
 0 
LINE
 8 
0
 62 
 7 
 10 
1.198
 20 
0.08
 11 
1.16
 21 
0.08
 0 
LINE
 8 
0
 62 
 7 
 10 
1.16
 20 
0.08
 11 
1.16
 21 
0.099
 0 
LINE
 8 
0
 62 
 7 
 10 
1.16
 20 
0.099
 11 
1.166
 21 
0.105
 0 
LINE
 8 
0
 62 
 7 
 10 
1.166
 20 
0.105
 11 
1.173
 21 
0.105
 0 
LINE
 8 
0
 62 
 7 
 10 
1.173
 20 
0.105
 11 
1.179
 21 
0.099
 0 
LINE
 8 
0
 62 
 7 
 10 
1.179
 20 
0.099
 11 
1.179
 21 
0.08
 0 
LINE
 8 
0
 62 
 7 
 10 
1.166
 20 
0.143
 11 
1.16
 21 
0.137
 0 
LINE
 8 
0
 62 
 7 
 10 
1.16
 20 
0.137
 11 
1.16
 21 
0.124
 0 
LINE
 8 
0
 62 
 7 
 10 
1.16
 20 
0.124
 11 
1.166
 21 
0.118
 0 
LINE
 8 
0
 62 
 7 
 10 
1.166
 20 
0.118
 11 
1.192
 21 
0.118
 0 
LINE
 8 
0
 62 
 7 
 10 
1.192
 20 
0.118
 11 
1.198
 21 
0.124
 0 
LINE
 8 
0
 62 
 7 
 10 
1.198
 20 
0.124
 11 
1.198
 21 
0.143
 0 
LINE
 8 
0
 62 
 7 
 10 
1.198
 20 
0.143
 11 
1.185
 21 
0.143
 0 
LINE
 8 
0
 62 
 7 
 10 
1.185
 20 
0.143
 11 
1.185
 21 
0.137
 0 
LINE
 8 
0
 62 
 7 
 10 
1.16
 20 
0.156
 11 
1.16
 21 
0.175
 0 
LINE
 8 
0
 62 
 7 
 10 
1.16
 20 
0.175
 11 
1.166
 21 
0.181
 0 
LINE
 8 
0
 62 
 7 
 10 
1.166
 20 
0.181
 11 
1.192
 21 
0.181
 0 
LINE
 8 
0
 62 
 7 
 10 
1.192
 20 
0.181
 11 
1.198
 21 
0.175
 0 
LINE
 8 
0
 62 
 7 
 10 
1.198
 20 
0.175
 11 
1.198
 21 
0.156
 0 
LINE
 8 
0
 62 
 7 
 10 
1.16
 20 
0.162
 11 
1.198
 21 
0.162
 0 
LINE
 8 
0
 62 
 7 
 10 
1.266
 20 
0.105
 11 
1.26
 21 
0.099
 0 
LINE
 8 
0
 62 
 7 
 10 
1.26
 20 
0.099
 11 
1.26
 21 
0.086
 0 
LINE
 8 
0
 62 
 7 
 10 
1.26
 20 
0.086
 11 
1.266
 21 
0.08
 0 
LINE
 8 
0
 62 
 7 
 10 
1.266
 20 
0.08
 11 
1.292
 21 
0.08
 0 
LINE
 8 
0
 62 
 7 
 10 
1.292
 20 
0.08
 11 
1.298
 21 
0.086
 0 
LINE
 8 
0
 62 
 7 
 10 
1.298
 20 
0.086
 11 
1.298
 21 
0.105
 0 
LINE
 8 
0
 62 
 7 
 10 
1.298
 20 
0.105
 11 
1.285
 21 
0.105
 0 
LINE
 8 
0
 62 
 7 
 10 
1.285
 20 
0.105
 11 
1.285
 21 
0.099
 0 
LINE
 8 
0
 62 
 7 
 10 
1.298
 20 
0.118
 11 
1.26
 21 
0.118
 0 
LINE
 8 
0
 62 
 7 
 10 
1.26
 20 
0.118
 11 
1.285
 21 
0.143
 0 
LINE
 8 
0
 62 
 7 
 10 
1.26
 20 
0.143
 11 
1.298
 21 
0.143
 0 
LINE
 8 
0
 62 
 7 
 10 
1.26
 20 
0.156
 11 
1.26
 21 
0.175
 0 
LINE
 8 
0
 62 
 7 
 10 
1.26
 20 
0.175
 11 
1.266
 21 
0.181
 0 
LINE
 8 
0
 62 
 7 
 10 
1.266
 20 
0.181
 11 
1.292
 21 
0.181
 0 
LINE
 8 
0
 62 
 7 
 10 
1.292
 20 
0.181
 11 
1.298
 21 
0.175
 0 
LINE
 8 
0
 62 
 7 
 10 
1.298
 20 
0.175
 11 
1.298
 21 
0.156
 0 
LINE
 8 
0
 62 
 7 
 10 
1.26
 20 
0.162
 11 
1.298
 21 
0.162
 0 
LINE
 8 
0
 62 
 7 
 10 
1.36
 20 
0.08
 11 
1.379
 21 
0.08
 0 
LINE
 8 
0
 62 
 7 
 10 
1.379
 20 
0.08
 11 
1.392
 21 
0.093
 0 
LINE
 8 
0
 62 
 7 
 10 
1.392
 20 
0.093
 11 
1.379
 21 
0.105
 0 
LINE
 8 
0
 62 
 7 
 10 
1.379
 20 
0.105
 11 
1.36
 21 
0.105
 0 
LINE
 8 
0
 62 
 7 
 10 
1.392
 20 
0.093
 11 
1.398
 21 
0.093
 0 
LINE
 8 
0
 62 
 7 
 10 
1.36
 20 
0.118
 11 
1.36
 21 
0.137
 0 
LINE
 8 
0
 62 
 7 
 10 
1.36
 20 
0.137
 11 
1.366
 21 
0.143
 0 
LINE
 8 
0
 62 
 7 
 10 
1.366
 20 
0.143
 11 
1.392
 21 
0.143
 0 
LINE
 8 
0
 62 
 7 
 10 
1.392
 20 
0.143
 11 
1.398
 21 
0.137
 0 
LINE
 8 
0
 62 
 7 
 10 
1.398
 20 
0.137
 11 
1.398
 21 
0.118
 0 
LINE
 8 
0
 62 
 7 
 10 
1.36
 20 
0.124
 11 
1.398
 21 
0.124
 0 
LINE
 8 
0
 62 
 7 
 10 
1.36
 20 
0.156
 11 
1.36
 21 
0.175
 0 
LINE
 8 
0
 62 
 7 
 10 
1.36
 20 
0.175
 11 
1.366
 21 
0.181
 0 
LINE
 8 
0
 62 
 7 
 10 
1.366
 20 
0.181
 11 
1.392
 21 
0.181
 0 
LINE
 8 
0
 62 
 7 
 10 
1.392
 20 
0.181
 11 
1.398
 21 
0.175
 0 
LINE
 8 
0
 62 
 7 
 10 
1.398
 20 
0.175
 11 
1.398
 21 
0.156
 0 
LINE
 8 
0
 62 
 7 
 10 
1.36
 20 
0.162
 11 
1.398
 21 
0.162
 0 
LINE
 8 
0
 62 
 7 
 10 
1.498
 20 
0.041
 11 
1.46
 21 
0.041
 0 
LINE
 8 
0
 62 
 7 
 10 
1.46
 20 
0.041
 11 
1.473
 21 
0.054
 0 
LINE
 8 
0
 62 
 7 
 10 
1.473
 20 
0.054
 11 
1.479
 21 
0.054
 0 
LINE
 8 
0
 62 
 7 
 10 
1.473
 20 
0.054
 11 
1.46
 21 
0.066
 0 
LINE
 8 
0
 62 
 7 
 10 
1.46
 20 
0.066
 11 
1.498
 21 
0.066
 0 
LINE
 8 
0
 62 
 7 
 10 
1.466
 20 
0.104
 11 
1.46
 21 
0.098
 0 
LINE
 8 
0
 62 
 7 
 10 
1.46
 20 
0.098
 11 
1.46
 21 
0.085
 0 
LINE
 8 
0
 62 
 7 
 10 
1.46
 20 
0.085
 11 
1.466
 21 
0.079
 0 
LINE
 8 
0
 62 
 7 
 10 
1.466
 20 
0.079
 11 
1.492
 21 
0.079
 0 
LINE
 8 
0
 62 
 7 
 10 
1.492
 20 
0.079
 11 
1.498
 21 
0.085
 0 
LINE
 8 
0
 62 
 7 
 10 
1.498
 20 
0.085
 11 
1.498
 21 
0.098
 0 
LINE
 8 
0
 62 
 7 
 10 
1.498
 20 
0.098
 11 
1.492
 21 
0.104
 0 
LINE
 8 
0
 62 
 7 
 10 
1.46
 20 
0.117
 11 
1.498
 21 
0.117
 0 
LINE
 8 
0
 62 
 7 
 10 
1.498
 20 
0.117
 11 
1.498
 21 
0.142
 0 
LINE
 8 
0
 62 
 7 
 10 
1.498
 20 
0.155
 11 
1.46
 21 
0.155
 0 
LINE
 8 
0
 62 
 7 
 10 
1.46
 20 
0.155
 11 
1.46
 21 
0.174
 0 
LINE
 8 
0
 62 
 7 
 10 
1.46
 20 
0.174
 11 
1.466
 21 
0.18
 0 
LINE
 8 
0
 62 
 7 
 10 
1.466
 20 
0.18
 11 
1.473
 21 
0.18
 0 
LINE
 8 
0
 62 
 7 
 10 
1.473
 20 
0.18
 11 
1.479
 21 
0.174
 0 
LINE
 8 
0
 62 
 7 
 10 
1.479
 20 
0.174
 11 
1.479
 21 
0.155
 0 
LINE
 8 
0
 62 
 7 
 10 
1.479
 20 
0.161
 11 
1.498
 21 
0.18
 0 
LINE
 8 
0
 62 
 7 
 10 
0.045
 20 
0.607
 11 
0.045
 21 
0.645
 0 
LINE
 8 
0
 62 
 7 
 10 
0.045
 20 
0.645
 11 
0.058
 21 
0.632
 0 
LINE
 8 
0
 62 
 7 
 10 
0.058
 20 
0.632
 11 
0.058
 21 
0.626
 0 
LINE
 8 
0
 62 
 7 
 10 
0.058
 20 
0.632
 11 
0.07
 21 
0.645
 0 
LINE
 8 
0
 62 
 7 
 10 
0.07
 20 
0.645
 11 
0.07
 21 
0.607
 0 
LINE
 8 
0
 62 
 7 
 10 
0.108
 20 
0.639
 11 
0.102
 21 
0.645
 0 
LINE
 8 
0
 62 
 7 
 10 
0.102
 20 
0.645
 11 
0.089
 21 
0.645
 0 
LINE
 8 
0
 62 
 7 
 10 
0.089
 20 
0.645
 11 
0.083
 21 
0.639
 0 
LINE
 8 
0
 62 
 7 
 10 
0.083
 20 
0.639
 11 
0.083
 21 
0.613
 0 
LINE
 8 
0
 62 
 7 
 10 
0.083
 20 
0.613
 11 
0.089
 21 
0.607
 0 
LINE
 8 
0
 62 
 7 
 10 
0.089
 20 
0.607
 11 
0.102
 21 
0.607
 0 
LINE
 8 
0
 62 
 7 
 10 
0.102
 20 
0.607
 11 
0.108
 21 
0.613
 0 
LINE
 8 
0
 62 
 7 
 10 
0.045
 20 
0.407
 11 
0.045
 21 
0.445
 0 
LINE
 8 
0
 62 
 7 
 10 
0.045
 20 
0.445
 11 
0.064
 21 
0.445
 0 
LINE
 8 
0
 62 
 7 
 10 
0.064
 20 
0.445
 11 
0.07
 21 
0.439
 0 
LINE
 8 
0
 62 
 7 
 10 
0.07
 20 
0.439
 11 
0.07
 21 
0.432
 0 
LINE
 8 
0
 62 
 7 
 10 
0.07
 20 
0.432
 11 
0.064
 21 
0.426
 0 
LINE
 8 
0
 62 
 7 
 10 
0.064
 20 
0.426
 11 
0.045
 21 
0.426
 0 
LINE
 8 
0
 62 
 7 
 10 
0.108
 20 
0.439
 11 
0.102
 21 
0.445
 0 
LINE
 8 
0
 62 
 7 
 10 
0.102
 20 
0.445
 11 
0.089
 21 
0.445
 0 
LINE
 8 
0
 62 
 7 
 10 
0.089
 20 
0.445
 11 
0.083
 21 
0.439
 0 
LINE
 8 
0
 62 
 7 
 10 
0.083
 20 
0.439
 11 
0.083
 21 
0.413
 0 
LINE
 8 
0
 62 
 7 
 10 
0.083
 20 
0.413
 11 
0.089
 21 
0.407
 0 
LINE
 8 
0
 62 
 7 
 10 
0.089
 20 
0.407
 11 
0.102
 21 
0.407
 0 
LINE
 8 
0
 62 
 7 
 10 
0.102
 20 
0.407
 11 
0.108
 21 
0.413
 0 
LINE
 8 
0
 62 
 7 
 10 
0.045
 20 
0.107
 11 
0.045
 21 
0.145
 0 
LINE
 8 
0
 62 
 7 
 10 
0.045
 20 
0.145
 11 
0.058
 21 
0.132
 0 
LINE
 8 
0
 62 
 7 
 10 
0.058
 20 
0.132
 11 
0.058
 21 
0.126
 0 
LINE
 8 
0
 62 
 7 
 10 
0.058
 20 
0.132
 11 
0.07
 21 
0.145
 0 
LINE
 8 
0
 62 
 7 
 10 
0.07
 20 
0.145
 11 
0.07
 21 
0.107
 0 
LINE
 8 
0
 62 
 7 
 10 
0.108
 20 
0.139
 11 
0.102
 21 
0.145
 0 
LINE
 8 
0
 62 
 7 
 10 
0.102
 20 
0.145
 11 
0.089
 21 
0.145
 0 
LINE
 8 
0
 62 
 7 
 10 
0.089
 20 
0.145
 11 
0.083
 21 
0.139
 0 
LINE
 8 
0
 62 
 7 
 10 
0.083
 20 
0.139
 11 
0.083
 21 
0.113
 0 
LINE
 8 
0
 62 
 7 
 10 
0.083
 20 
0.113
 11 
0.089
 21 
0.107
 0 
LINE
 8 
0
 62 
 7 
 10 
0.089
 20 
0.107
 11 
0.102
 21 
0.107
 0 
LINE
 8 
0
 62 
 7 
 10 
0.102
 20 
0.107
 11 
0.108
 21 
0.113
 0 
LINE
 8 
0
 62 
 7 
 10 
0.045
 20 
0.307
 11 
0.045
 21 
0.345
 0 
LINE
 8 
0
 62 
 7 
 10 
0.045
 20 
0.345
 11 
0.064
 21 
0.345
 0 
LINE
 8 
0
 62 
 7 
 10 
0.064
 20 
0.345
 11 
0.07
 21 
0.339
 0 
LINE
 8 
0
 62 
 7 
 10 
0.07
 20 
0.339
 11 
0.07
 21 
0.332
 0 
LINE
 8 
0
 62 
 7 
 10 
0.07
 20 
0.332
 11 
0.064
 21 
0.326
 0 
LINE
 8 
0
 62 
 7 
 10 
0.064
 20 
0.326
 11 
0.045
 21 
0.326
 0 
LINE
 8 
0
 62 
 7 
 10 
0.108
 20 
0.339
 11 
0.102
 21 
0.345
 0 
LINE
 8 
0
 62 
 7 
 10 
0.102
 20 
0.345
 11 
0.089
 21 
0.345
 0 
LINE
 8 
0
 62 
 7 
 10 
0.089
 20 
0.345
 11 
0.083
 21 
0.339
 0 
LINE
 8 
0
 62 
 7 
 10 
0.083
 20 
0.339
 11 
0.083
 21 
0.313
 0 
LINE
 8 
0
 62 
 7 
 10 
0.083
 20 
0.313
 11 
0.089
 21 
0.307
 0 
LINE
 8 
0
 62 
 7 
 10 
0.089
 20 
0.307
 11 
0.102
 21 
0.307
 0 
LINE
 8 
0
 62 
 7 
 10 
0.102
 20 
0.307
 11 
0.108
 21 
0.313
 0 
LINE
 8 
0
 62 
 7 
 10 
0.14
 20 
1.034
 11 
0.14
 21 
1.072
 0 
LINE
 8 
0
 62 
 7 
 10 
0.14
 20 
1.072
 11 
0.159
 21 
1.072
 0 
LINE
 8 
0
 62 
 7 
 10 
0.159
 20 
1.072
 11 
0.165
 21 
1.066
 0 
LINE
 8 
0
 62 
 7 
 10 
0.165
 20 
1.066
 11 
0.165
 21 
1.059
 0 
LINE
 8 
0
 62 
 7 
 10 
0.165
 20 
1.059
 11 
0.159
 21 
1.053
 0 
LINE
 8 
0
 62 
 7 
 10 
0.159
 20 
1.053
 11 
0.14
 21 
1.053
 0 
LINE
 8 
0
 62 
 7 
 10 
0.146
 20 
1.053
 11 
0.165
 21 
1.034
 0 
LINE
 8 
0
 62 
 7 
 10 
0.178
 20 
1.072
 11 
0.178
 21 
1.066
 0 
LINE
 8 
0
 62 
 7 
 10 
0.178
 20 
1.066
 11 
0.203
 21 
1.04
 0 
LINE
 8 
0
 62 
 7 
 10 
0.203
 20 
1.04
 11 
0.203
 21 
1.034
 0 
LINE
 8 
0
 62 
 7 
 10 
0.203
 20 
1.072
 11 
0.203
 21 
1.066
 0 
LINE
 8 
0
 62 
 7 
 10 
0.203
 20 
1.066
 11 
0.178
 21 
1.04
 0 
LINE
 8 
0
 62 
 7 
 10 
0.178
 20 
1.04
 11 
0.178
 21 
1.034
 0 
LINE
 8 
0
 62 
 7 
 10 
0.222
 20 
1.072
 11 
0.235
 21 
1.072
 0 
LINE
 8 
0
 62 
 7 
 10 
0.222
 20 
1.034
 11 
0.235
 21 
1.034
 0 
LINE
 8 
0
 62 
 7 
 10 
0.229
 20 
1.072
 11 
0.229
 21 
1.034
 0 
LINE
 8 
0
 62 
 7 
 10 
0.14
 20 
1.172
 11 
0.14
 21 
1.153
 0 
LINE
 8 
0
 62 
 7 
 10 
0.14
 20 
1.153
 11 
0.153
 21 
1.14
 0 
LINE
 8 
0
 62 
 7 
 10 
0.153
 20 
1.14
 11 
0.165
 21 
1.153
 0 
LINE
 8 
0
 62 
 7 
 10 
0.165
 20 
1.153
 11 
0.165
 21 
1.172
 0 
LINE
 8 
0
 62 
 7 
 10 
0.153
 20 
1.14
 11 
0.153
 21 
1.134
 0 
LINE
 8 
0
 62 
 7 
 10 
0.203
 20 
1.166
 11 
0.197
 21 
1.172
 0 
LINE
 8 
0
 62 
 7 
 10 
0.197
 20 
1.172
 11 
0.184
 21 
1.172
 0 
LINE
 8 
0
 62 
 7 
 10 
0.184
 20 
1.172
 11 
0.178
 21 
1.166
 0 
LINE
 8 
0
 62 
 7 
 10 
0.178
 20 
1.166
 11 
0.178
 21 
1.14
 0 
LINE
 8 
0
 62 
 7 
 10 
0.178
 20 
1.14
 11 
0.184
 21 
1.134
 0 
LINE
 8 
0
 62 
 7 
 10 
0.184
 20 
1.134
 11 
0.197
 21 
1.134
 0 
LINE
 8 
0
 62 
 7 
 10 
0.197
 20 
1.134
 11 
0.203
 21 
1.14
 0 
LINE
 8 
0
 62 
 7 
 10 
0.241
 20 
1.166
 11 
0.235
 21 
1.172
 0 
LINE
 8 
0
 62 
 7 
 10 
0.235
 20 
1.172
 11 
0.222
 21 
1.172
 0 
LINE
 8 
0
 62 
 7 
 10 
0.222
 20 
1.172
 11 
0.216
 21 
1.166
 0 
LINE
 8 
0
 62 
 7 
 10 
0.216
 20 
1.166
 11 
0.216
 21 
1.14
 0 
LINE
 8 
0
 62 
 7 
 10 
0.216
 20 
1.14
 11 
0.222
 21 
1.134
 0 
LINE
 8 
0
 62 
 7 
 10 
0.222
 20 
1.134
 11 
0.235
 21 
1.134
 0 
LINE
 8 
0
 62 
 7 
 10 
0.235
 20 
1.134
 11 
0.241
 21 
1.14
 0 
LINE
 8 
0
 62 
 7 
 10 
0.165
 20 
1.266
 11 
0.159
 21 
1.272
 0 
LINE
 8 
0
 62 
 7 
 10 
0.159
 20 
1.272
 11 
0.146
 21 
1.272
 0 
LINE
 8 
0
 62 
 7 
 10 
0.146
 20 
1.272
 11 
0.14
 21 
1.266
 0 
LINE
 8 
0
 62 
 7 
 10 
0.14
 20 
1.266
 11 
0.14
 21 
1.24
 0 
LINE
 8 
0
 62 
 7 
 10 
0.14
 20 
1.24
 11 
0.146
 21 
1.234
 0 
LINE
 8 
0
 62 
 7 
 10 
0.146
 20 
1.234
 11 
0.165
 21 
1.234
 0 
LINE
 8 
0
 62 
 7 
 10 
0.165
 20 
1.234
 11 
0.165
 21 
1.247
 0 
LINE
 8 
0
 62 
 7 
 10 
0.165
 20 
1.247
 11 
0.159
 21 
1.247
 0 
LINE
 8 
0
 62 
 7 
 10 
0.178
 20 
1.234
 11 
0.178
 21 
1.272
 0 
LINE
 8 
0
 62 
 7 
 10 
0.178
 20 
1.272
 11 
0.203
 21 
1.247
 0 
LINE
 8 
0
 62 
 7 
 10 
0.203
 20 
1.272
 11 
0.203
 21 
1.234
 0 
LINE
 8 
0
 62 
 7 
 10 
0.216
 20 
1.272
 11 
0.235
 21 
1.272
 0 
LINE
 8 
0
 62 
 7 
 10 
0.235
 20 
1.272
 11 
0.241
 21 
1.266
 0 
LINE
 8 
0
 62 
 7 
 10 
0.241
 20 
1.266
 11 
0.241
 21 
1.24
 0 
LINE
 8 
0
 62 
 7 
 10 
0.241
 20 
1.24
 11 
0.235
 21 
1.234
 0 
LINE
 8 
0
 62 
 7 
 10 
0.235
 20 
1.234
 11 
0.216
 21 
1.234
 0 
LINE
 8 
0
 62 
 7 
 10 
0.222
 20 
1.272
 11 
0.222
 21 
1.234
 0 
LINE
 8 
0
 62 
 7 
 10 
0.038
 20 
1.09
 11 
0.113
 21 
1.09
 0 
LINE
 8 
0
 62 
 7 
 10 
0.113
 20 
1.09
 11 
0.113
 21 
1.015
 0 
LINE
 8 
0
 62 
 7 
 10 
0.113
 20 
1.015
 11 
0.038
 21 
1.015
 0 
LINE
 8 
0
 62 
 7 
 10 
0.038
 20 
1.015
 11 
0.038
 21 
1.09
 0 
CIRCLE
 8 
0
 62 
 7 
 10 
0.075
 20 
1.052
 40 
0.02
 0 
CIRCLE
 8 
0
 62 
 7 
 10 
0.075
 20 
1.152
 40 
0.038
 0 
CIRCLE
 8 
0
 62 
 7 
 10 
0.075
 20 
1.152
 40 
0.02
 0 
CIRCLE
 8 
0
 62 
 7 
 10 
0.075
 20 
1.252
 40 
0.038
 0 
CIRCLE
 8 
0
 62 
 7 
 10 
0.075
 20 
1.252
 40 
0.02
 0 
LINE
 8 
0
 62 
 7 
 10 
0.025
 20 
1.302
 11 
0.025
 21 
1.002
 0 
LINE
 8 
0
 62 
 7 
 10 
0.125
 20 
1.002
 11 
0.025
 21 
1.002
 0 
LINE
 8 
0
 62 
 7 
 10 
0.125
 20 
1.302
 11 
0.025
 21 
1.302
 0 
LINE
 8 
0
 62 
 7 
 10 
0.125
 20 
1.302
 11 
0.125
 21 
1.002
 0 
LINE
 8 
0
 62 
 7 
 10 
0.056
 20 
0.982
 11 
0.075
 21 
0.982
 0 
LINE
 8 
0
 62 
 7 
 10 
0.075
 20 
0.982
 11 
0.075
 21 
0.95
 0 
LINE
 8 
0
 62 
 7 
 10 
0.075
 20 
0.95
 11 
0.069
 21 
0.944
 0 
LINE
 8 
0
 62 
 7 
 10 
0.069
 20 
0.944
 11 
0.056
 21 
0.944
 0 
LINE
 8 
0
 62 
 7 
 10 
0.056
 20 
0.944
 11 
0.05
 21 
0.95
 0 
LINE
 8 
0
 62 
 7 
 10 
0.094
 20 
0.976
 11 
0.101
 21 
0.982
 0 
LINE
 8 
0
 62 
 7 
 10 
0.101
 20 
0.982
 11 
0.101
 21 
0.944
 0 
LINE
 8 
0
 62 
 7 
 10 
0.094
 20 
0.944
 11 
0.107
 21 
0.944
 0 
LINE
 8 
0
 62 
 7 
 10 
1.56
 20 
1.31
 11 
1.579
 21 
1.31
 0 
LINE
 8 
0
 62 
 7 
 10 
1.579
 20 
1.31
 11 
1.592
 21 
1.323
 0 
LINE
 8 
0
 62 
 7 
 10 
1.592
 20 
1.323
 11 
1.579
 21 
1.335
 0 
LINE
 8 
0
 62 
 7 
 10 
1.579
 20 
1.335
 11 
1.56
 21 
1.335
 0 
LINE
 8 
0
 62 
 7 
 10 
1.592
 20 
1.323
 11 
1.598
 21 
1.323
 0 
LINE
 8 
0
 62 
 7 
 10 
1.566
 20 
1.373
 11 
1.56
 21 
1.367
 0 
LINE
 8 
0
 62 
 7 
 10 
1.56
 20 
1.367
 11 
1.56
 21 
1.354
 0 
LINE
 8 
0
 62 
 7 
 10 
1.56
 20 
1.354
 11 
1.566
 21 
1.348
 0 
LINE
 8 
0
 62 
 7 
 10 
1.566
 20 
1.348
 11 
1.573
 21 
1.348
 0 
LINE
 8 
0
 62 
 7 
 10 
1.573
 20 
1.348
 11 
1.579
 21 
1.354
 0 
LINE
 8 
0
 62 
 7 
 10 
1.579
 20 
1.354
 11 
1.579
 21 
1.367
 0 
LINE
 8 
0
 62 
 7 
 10 
1.579
 20 
1.367
 11 
1.585
 21 
1.373
 0 
LINE
 8 
0
 62 
 7 
 10 
1.585
 20 
1.373
 11 
1.592
 21 
1.373
 0 
LINE
 8 
0
 62 
 7 
 10 
1.592
 20 
1.373
 11 
1.598
 21 
1.367
 0 
LINE
 8 
0
 62 
 7 
 10 
1.598
 20 
1.367
 11 
1.598
 21 
1.354
 0 
LINE
 8 
0
 62 
 7 
 10 
1.598
 20 
1.354
 11 
1.592
 21 
1.348
 0 
LINE
 8 
0
 62 
 7 
 10 
1.566
 20 
1.411
 11 
1.56
 21 
1.405
 0 
LINE
 8 
0
 62 
 7 
 10 
1.56
 20 
1.405
 11 
1.56
 21 
1.392
 0 
LINE
 8 
0
 62 
 7 
 10 
1.56
 20 
1.392
 11 
1.566
 21 
1.386
 0 
LINE
 8 
0
 62 
 7 
 10 
1.566
 20 
1.386
 11 
1.573
 21 
1.386
 0 
LINE
 8 
0
 62 
 7 
 10 
1.573
 20 
1.386
 11 
1.579
 21 
1.392
 0 
LINE
 8 
0
 62 
 7 
 10 
1.579
 20 
1.392
 11 
1.579
 21 
1.405
 0 
LINE
 8 
0
 62 
 7 
 10 
1.579
 20 
1.405
 11 
1.585
 21 
1.411
 0 
LINE
 8 
0
 62 
 7 
 10 
1.585
 20 
1.411
 11 
1.592
 21 
1.411
 0 
LINE
 8 
0
 62 
 7 
 10 
1.592
 20 
1.411
 11 
1.598
 21 
1.405
 0 
LINE
 8 
0
 62 
 7 
 10 
1.598
 20 
1.405
 11 
1.598
 21 
1.392
 0 
LINE
 8 
0
 62 
 7 
 10 
1.598
 20 
1.392
 11 
1.592
 21 
1.386
 0 
LINE
 8 
0
 62 
 7 
 10 
1.46
 20 
1.31
 11 
1.479
 21 
1.31
 0 
LINE
 8 
0
 62 
 7 
 10 
1.479
 20 
1.31
 11 
1.492
 21 
1.323
 0 
LINE
 8 
0
 62 
 7 
 10 
1.492
 20 
1.323
 11 
1.479
 21 
1.335
 0 
LINE
 8 
0
 62 
 7 
 10 
1.479
 20 
1.335
 11 
1.46
 21 
1.335
 0 
LINE
 8 
0
 62 
 7 
 10 
1.492
 20 
1.323
 11 
1.498
 21 
1.323
 0 
LINE
 8 
0
 62 
 7 
 10 
1.46
 20 
1.348
 11 
1.46
 21 
1.367
 0 
LINE
 8 
0
 62 
 7 
 10 
1.46
 20 
1.367
 11 
1.466
 21 
1.373
 0 
LINE
 8 
0
 62 
 7 
 10 
1.466
 20 
1.373
 11 
1.492
 21 
1.373
 0 
LINE
 8 
0
 62 
 7 
 10 
1.492
 20 
1.373
 11 
1.498
 21 
1.367
 0 
LINE
 8 
0
 62 
 7 
 10 
1.498
 20 
1.367
 11 
1.498
 21 
1.348
 0 
LINE
 8 
0
 62 
 7 
 10 
1.46
 20 
1.354
 11 
1.498
 21 
1.354
 0 
LINE
 8 
0
 62 
 7 
 10 
1.46
 20 
1.386
 11 
1.46
 21 
1.405
 0 
LINE
 8 
0
 62 
 7 
 10 
1.46
 20 
1.405
 11 
1.466
 21 
1.411
 0 
LINE
 8 
0
 62 
 7 
 10 
1.466
 20 
1.411
 11 
1.492
 21 
1.411
 0 
LINE
 8 
0
 62 
 7 
 10 
1.492
 20 
1.411
 11 
1.498
 21 
1.405
 0 
LINE
 8 
0
 62 
 7 
 10 
1.498
 20 
1.405
 11 
1.498
 21 
1.386
 0 
LINE
 8 
0
 62 
 7 
 10 
1.46
 20 
1.392
 11 
1.498
 21 
1.392
 0 
LINE
 8 
0
 62 
 7 
 10 
1.36
 20 
1.35
 11 
1.379
 21 
1.35
 0 
LINE
 8 
0
 62 
 7 
 10 
1.379
 20 
1.35
 11 
1.392
 21 
1.363
 0 
LINE
 8 
0
 62 
 7 
 10 
1.392
 20 
1.363
 11 
1.379
 21 
1.375
 0 
LINE
 8 
0
 62 
 7 
 10 
1.379
 20 
1.375
 11 
1.36
 21 
1.375
 0 
LINE
 8 
0
 62 
 7 
 10 
1.392
 20 
1.363
 11 
1.398
 21 
1.363
 0 
LINE
 8 
0
 62 
 7 
 10 
1.366
 20 
1.413
 11 
1.36
 21 
1.407
 0 
LINE
 8 
0
 62 
 7 
 10 
1.36
 20 
1.407
 11 
1.36
 21 
1.394
 0 
LINE
 8 
0
 62 
 7 
 10 
1.36
 20 
1.394
 11 
1.366
 21 
1.388
 0 
LINE
 8 
0
 62 
 7 
 10 
1.366
 20 
1.388
 11 
1.392
 21 
1.388
 0 
LINE
 8 
0
 62 
 7 
 10 
1.392
 20 
1.388
 11 
1.398
 21 
1.394
 0 
LINE
 8 
0
 62 
 7 
 10 
1.398
 20 
1.394
 11 
1.398
 21 
1.407
 0 
LINE
 8 
0
 62 
 7 
 10 
1.398
 20 
1.407
 11 
1.392
 21 
1.413
 0 
LINE
 8 
0
 62 
 7 
 10 
1.392
 20 
1.413
 11 
1.366
 21 
1.413
 0 
LINE
 8 
0
 62 
 7 
 10 
1.298
 20 
1.31
 11 
1.26
 21 
1.31
 0 
LINE
 8 
0
 62 
 7 
 10 
1.26
 20 
1.31
 11 
1.26
 21 
1.329
 0 
LINE
 8 
0
 62 
 7 
 10 
1.26
 20 
1.329
 11 
1.266
 21 
1.335
 0 
LINE
 8 
0
 62 
 7 
 10 
1.266
 20 
1.335
 11 
1.273
 21 
1.335
 0 
LINE
 8 
0
 62 
 7 
 10 
1.273
 20 
1.335
 11 
1.279
 21 
1.329
 0 
LINE
 8 
0
 62 
 7 
 10 
1.279
 20 
1.329
 11 
1.279
 21 
1.31
 0 
LINE
 8 
0
 62 
 7 
 10 
1.279
 20 
1.316
 11 
1.298
 21 
1.335
 0 
LINE
 8 
0
 62 
 7 
 10 
1.292
 20 
1.348
 11 
1.266
 21 
1.373
 0 
LINE
 8 
0
 62 
 7 
 10 
1.266
 20 
1.411
 11 
1.26
 21 
1.405
 0 
LINE
 8 
0
 62 
 7 
 10 
1.26
 20 
1.405
 11 
1.26
 21 
1.392
 0 
LINE
 8 
0
 62 
 7 
 10 
1.26
 20 
1.392
 11 
1.266
 21 
1.386
 0 
LINE
 8 
0
 62 
 7 
 10 
1.266
 20 
1.386
 11 
1.273
 21 
1.386
 0 
LINE
 8 
0
 62 
 7 
 10 
1.273
 20 
1.386
 11 
1.279
 21 
1.392
 0 
LINE
 8 
0
 62 
 7 
 10 
1.279
 20 
1.392
 11 
1.279
 21 
1.405
 0 
LINE
 8 
0
 62 
 7 
 10 
1.279
 20 
1.405
 11 
1.285
 21 
1.411
 0 
LINE
 8 
0
 62 
 7 
 10 
1.285
 20 
1.411
 11 
1.292
 21 
1.411
 0 
LINE
 8 
0
 62 
 7 
 10 
1.292
 20 
1.411
 11 
1.298
 21 
1.405
 0 
LINE
 8 
0
 62 
 7 
 10 
1.298
 20 
1.405
 11 
1.298
 21 
1.392
 0 
LINE
 8 
0
 62 
 7 
 10 
1.298
 20 
1.392
 11 
1.292
 21 
1.386
 0 
LINE
 8 
0
 62 
 7 
 10 
1.198
 20 
1.31
 11 
1.16
 21 
1.31
 0 
LINE
 8 
0
 62 
 7 
 10 
1.16
 20 
1.31
 11 
1.16
 21 
1.329
 0 
LINE
 8 
0
 62 
 7 
 10 
1.16
 20 
1.329
 11 
1.166
 21 
1.335
 0 
LINE
 8 
0
 62 
 7 
 10 
1.166
 20 
1.335
 11 
1.173
 21 
1.335
 0 
LINE
 8 
0
 62 
 7 
 10 
1.173
 20 
1.335
 11 
1.179
 21 
1.329
 0 
LINE
 8 
0
 62 
 7 
 10 
1.179
 20 
1.329
 11 
1.179
 21 
1.31
 0 
LINE
 8 
0
 62 
 7 
 10 
1.179
 20 
1.316
 11 
1.198
 21 
1.335
 0 
LINE
 8 
0
 62 
 7 
 10 
1.192
 20 
1.348
 11 
1.166
 21 
1.373
 0 
LINE
 8 
0
 62 
 7 
 10 
1.16
 20 
1.386
 11 
1.198
 21 
1.386
 0 
LINE
 8 
0
 62 
 7 
 10 
1.198
 20 
1.386
 11 
1.185
 21 
1.399
 0 
LINE
 8 
0
 62 
 7 
 10 
1.185
 20 
1.399
 11 
1.198
 21 
1.411
 0 
LINE
 8 
0
 62 
 7 
 10 
1.198
 20 
1.411
 11 
1.16
 21 
1.411
 0 
LINE
 8 
0
 62 
 7 
 10 
1.185
 20 
1.399
 11 
1.179
 21 
1.399
 0 
LINE
 8 
0
 62 
 7 
 10 
1.05
 20 
1.375
 11 
1.05
 21 
1.35
 0 
LINE
 8 
0
 62 
 7 
 10 
1.05
 20 
1.35
 11 
1.088
 21 
1.35
 0 
LINE
 8 
0
 62 
 7 
 10 
1.088
 20 
1.35
 11 
1.088
 21 
1.375
 0 
LINE
 8 
0
 62 
 7 
 10 
1.069
 20 
1.35
 11 
1.069
 21 
1.369
 0 
LINE
 8 
0
 62 
 7 
 10 
1.088
 20 
1.388
 11 
1.05
 21 
1.388
 0 
LINE
 8 
0
 62 
 7 
 10 
1.05
 20 
1.388
 11 
1.075
 21 
1.413
 0 
LINE
 8 
0
 62 
 7 
 10 
1.05
 20 
1.413
 11 
1.088
 21 
1.413
 0 
LINE
 8 
0
 62 
 7 
 10 
0.56
 20 
1.35
 11 
0.56
 21 
1.369
 0 
LINE
 8 
0
 62 
 7 
 10 
0.56
 20 
1.369
 11 
0.566
 21 
1.375
 0 
LINE
 8 
0
 62 
 7 
 10 
0.566
 20 
1.375
 11 
0.573
 21 
1.375
 0 
LINE
 8 
0
 62 
 7 
 10 
0.573
 20 
1.375
 11 
0.579
 21 
1.369
 0 
LINE
 8 
0
 62 
 7 
 10 
0.579
 20 
1.369
 11 
0.585
 21 
1.375
 0 
LINE
 8 
0
 62 
 7 
 10 
0.585
 20 
1.375
 11 
0.592
 21 
1.375
 0 
LINE
 8 
0
 62 
 7 
 10 
0.592
 20 
1.375
 11 
0.598
 21 
1.369
 0 
LINE
 8 
0
 62 
 7 
 10 
0.598
 20 
1.369
 11 
0.598
 21 
1.35
 0 
LINE
 8 
0
 62 
 7 
 10 
0.56
 20 
1.356
 11 
0.598
 21 
1.356
 0 
LINE
 8 
0
 62 
 7 
 10 
0.579
 20 
1.356
 11 
0.579
 21 
1.369
 0 
LINE
 8 
0
 62 
 7 
 10 
0.585
 20 
1.413
 11 
0.585
 21 
1.388
 0 
LINE
 8 
0
 62 
 7 
 10 
0.585
 20 
1.388
 11 
0.579
 21 
1.388
 0 
LINE
 8 
0
 62 
 7 
 10 
0.579
 20 
1.388
 11 
0.56
 21 
1.407
 0 
LINE
 8 
0
 62 
 7 
 10 
0.56
 20 
1.407
 11 
0.598
 21 
1.407
 0 
LINE
 8 
0
 62 
 7 
 10 
0.45
 20 
1.35
 11 
0.45
 21 
1.369
 0 
LINE
 8 
0
 62 
 7 
 10 
0.45
 20 
1.369
 11 
0.456
 21 
1.375
 0 
LINE
 8 
0
 62 
 7 
 10 
0.456
 20 
1.375
 11 
0.463
 21 
1.375
 0 
LINE
 8 
0
 62 
 7 
 10 
0.463
 20 
1.375
 11 
0.469
 21 
1.369
 0 
LINE
 8 
0
 62 
 7 
 10 
0.469
 20 
1.369
 11 
0.475
 21 
1.375
 0 
LINE
 8 
0
 62 
 7 
 10 
0.475
 20 
1.375
 11 
0.482
 21 
1.375
 0 
LINE
 8 
0
 62 
 7 
 10 
0.482
 20 
1.375
 11 
0.488
 21 
1.369
 0 
LINE
 8 
0
 62 
 7 
 10 
0.488
 20 
1.369
 11 
0.488
 21 
1.35
 0 
LINE
 8 
0
 62 
 7 
 10 
0.45
 20 
1.356
 11 
0.488
 21 
1.356
 0 
LINE
 8 
0
 62 
 7 
 10 
0.469
 20 
1.356
 11 
0.469
 21 
1.369
 0 
LINE
 8 
0
 62 
 7 
 10 
0.45
 20 
1.413
 11 
0.45
 21 
1.388
 0 
LINE
 8 
0
 62 
 7 
 10 
0.45
 20 
1.388
 11 
0.463
 21 
1.388
 0 
LINE
 8 
0
 62 
 7 
 10 
0.463
 20 
1.388
 11 
0.463
 21 
1.407
 0 
LINE
 8 
0
 62 
 7 
 10 
0.463
 20 
1.407
 11 
0.469
 21 
1.413
 0 
LINE
 8 
0
 62 
 7 
 10 
0.469
 20 
1.413
 11 
0.482
 21 
1.413
 0 
LINE
 8 
0
 62 
 7 
 10 
0.482
 20 
1.413
 11 
0.488
 21 
1.407
 0 
LINE
 8 
0
 62 
 7 
 10 
0.488
 20 
1.407
 11 
0.488
 21 
1.394
 0 
LINE
 8 
0
 62 
 7 
 10 
0.488
 20 
1.394
 11 
0.482
 21 
1.388
 0 
LINE
 8 
0
 62 
 7 
 10 
0.35
 20 
1.35
 11 
0.35
 21 
1.369
 0 
LINE
 8 
0
 62 
 7 
 10 
0.35
 20 
1.369
 11 
0.356
 21 
1.375
 0 
LINE
 8 
0
 62 
 7 
 10 
0.356
 20 
1.375
 11 
0.363
 21 
1.375
 0 
LINE
 8 
0
 62 
 7 
 10 
0.363
 20 
1.375
 11 
0.369
 21 
1.369
 0 
LINE
 8 
0
 62 
 7 
 10 
0.369
 20 
1.369
 11 
0.375
 21 
1.375
 0 
LINE
 8 
0
 62 
 7 
 10 
0.375
 20 
1.375
 11 
0.382
 21 
1.375
 0 
LINE
 8 
0
 62 
 7 
 10 
0.382
 20 
1.375
 11 
0.388
 21 
1.369
 0 
LINE
 8 
0
 62 
 7 
 10 
0.388
 20 
1.369
 11 
0.388
 21 
1.35
 0 
LINE
 8 
0
 62 
 7 
 10 
0.35
 20 
1.356
 11 
0.388
 21 
1.356
 0 
LINE
 8 
0
 62 
 7 
 10 
0.369
 20 
1.356
 11 
0.369
 21 
1.369
 0 
LINE
 8 
0
 62 
 7 
 10 
0.35
 20 
1.407
 11 
0.35
 21 
1.401
 0 
LINE
 8 
0
 62 
 7 
 10 
0.35
 20 
1.401
 11 
0.363
 21 
1.388
 0 
LINE
 8 
0
 62 
 7 
 10 
0.363
 20 
1.388
 11 
0.382
 21 
1.388
 0 
LINE
 8 
0
 62 
 7 
 10 
0.382
 20 
1.388
 11 
0.388
 21 
1.394
 0 
LINE
 8 
0
 62 
 7 
 10 
0.388
 20 
1.394
 11 
0.388
 21 
1.407
 0 
LINE
 8 
0
 62 
 7 
 10 
0.388
 20 
1.407
 11 
0.382
 21 
1.413
 0 
LINE
 8 
0
 62 
 7 
 10 
0.382
 20 
1.413
 11 
0.375
 21 
1.413
 0 
LINE
 8 
0
 62 
 7 
 10 
0.375
 20 
1.413
 11 
0.369
 21 
1.407
 0 
LINE
 8 
0
 62 
 7 
 10 
0.369
 20 
1.407
 11 
0.369
 21 
1.394
 0 
LINE
 8 
0
 62 
 7 
 10 
0.369
 20 
1.394
 11 
0.375
 21 
1.388
 0 
LINE
 8 
0
 62 
 7 
 10 
0.25
 20 
1.35
 11 
0.25
 21 
1.369
 0 
LINE
 8 
0
 62 
 7 
 10 
0.25
 20 
1.369
 11 
0.256
 21 
1.375
 0 
LINE
 8 
0
 62 
 7 
 10 
0.256
 20 
1.375
 11 
0.263
 21 
1.375
 0 
LINE
 8 
0
 62 
 7 
 10 
0.263
 20 
1.375
 11 
0.269
 21 
1.369
 0 
LINE
 8 
0
 62 
 7 
 10 
0.269
 20 
1.369
 11 
0.275
 21 
1.375
 0 
LINE
 8 
0
 62 
 7 
 10 
0.275
 20 
1.375
 11 
0.282
 21 
1.375
 0 
LINE
 8 
0
 62 
 7 
 10 
0.282
 20 
1.375
 11 
0.288
 21 
1.369
 0 
LINE
 8 
0
 62 
 7 
 10 
0.288
 20 
1.369
 11 
0.288
 21 
1.35
 0 
LINE
 8 
0
 62 
 7 
 10 
0.25
 20 
1.356
 11 
0.288
 21 
1.356
 0 
LINE
 8 
0
 62 
 7 
 10 
0.269
 20 
1.356
 11 
0.269
 21 
1.369
 0 
LINE
 8 
0
 62 
 7 
 10 
0.256
 20 
1.388
 11 
0.25
 21 
1.388
 0 
LINE
 8 
0
 62 
 7 
 10 
0.25
 20 
1.388
 11 
0.25
 21 
1.413
 0 
LINE
 8 
0
 62 
 7 
 10 
0.25
 20 
1.413
 11 
0.256
 21 
1.413
 0 
LINE
 8 
0
 62 
 7 
 10 
0.256
 20 
1.413
 11 
0.275
 21 
1.394
 0 
LINE
 8 
0
 62 
 7 
 10 
0.275
 20 
1.394
 11 
0.288
 21 
1.394
 0 
LINE
 8 
0
 62 
 7 
 10 
0.15
 20 
1.35
 11 
0.15
 21 
1.369
 0 
LINE
 8 
0
 62 
 7 
 10 
0.15
 20 
1.369
 11 
0.156
 21 
1.375
 0 
LINE
 8 
0
 62 
 7 
 10 
0.156
 20 
1.375
 11 
0.163
 21 
1.375
 0 
LINE
 8 
0
 62 
 7 
 10 
0.163
 20 
1.375
 11 
0.169
 21 
1.369
 0 
LINE
 8 
0
 62 
 7 
 10 
0.169
 20 
1.369
 11 
0.175
 21 
1.375
 0 
LINE
 8 
0
 62 
 7 
 10 
0.175
 20 
1.375
 11 
0.182
 21 
1.375
 0 
LINE
 8 
0
 62 
 7 
 10 
0.182
 20 
1.375
 11 
0.188
 21 
1.369
 0 
LINE
 8 
0
 62 
 7 
 10 
0.188
 20 
1.369
 11 
0.188
 21 
1.35
 0 
LINE
 8 
0
 62 
 7 
 10 
0.15
 20 
1.356
 11 
0.188
 21 
1.356
 0 
LINE
 8 
0
 62 
 7 
 10 
0.169
 20 
1.356
 11 
0.169
 21 
1.369
 0 
LINE
 8 
0
 62 
 7 
 10 
0.156
 20 
1.401
 11 
0.182
 21 
1.401
 0 
LINE
 8 
0
 62 
 7 
 10 
0.169
 20 
1.388
 11 
0.169
 21 
1.413
 0 
LINE
 8 
0
 62 
 7 
 10 
0.05
 20 
1.35
 11 
0.05
 21 
1.369
 0 
LINE
 8 
0
 62 
 7 
 10 
0.05
 20 
1.369
 11 
0.056
 21 
1.375
 0 
LINE
 8 
0
 62 
 7 
 10 
0.056
 20 
1.375
 11 
0.063
 21 
1.375
 0 
LINE
 8 
0
 62 
 7 
 10 
0.063
 20 
1.375
 11 
0.069
 21 
1.369
 0 
LINE
 8 
0
 62 
 7 
 10 
0.069
 20 
1.369
 11 
0.075
 21 
1.375
 0 
LINE
 8 
0
 62 
 7 
 10 
0.075
 20 
1.375
 11 
0.082
 21 
1.375
 0 
LINE
 8 
0
 62 
 7 
 10 
0.082
 20 
1.375
 11 
0.088
 21 
1.369
 0 
LINE
 8 
0
 62 
 7 
 10 
0.088
 20 
1.369
 11 
0.088
 21 
1.35
 0 
LINE
 8 
0
 62 
 7 
 10 
0.05
 20 
1.356
 11 
0.088
 21 
1.356
 0 
LINE
 8 
0
 62 
 7 
 10 
0.069
 20 
1.356
 11 
0.069
 21 
1.369
 0 
LINE
 8 
0
 62 
 7 
 10 
0.069
 20 
1.388
 11 
0.069
 21 
1.413
 0 
ENDSEC
 0 
EOF
